{"glyphs":{"0":{"ha":605,"x_min":52,"x_max":573,"o":"m 258 1208 l 266 1208 q 307 1190 289 1202 l 323 1194 l 325 1194 q 353 1162 349 1194 q 516 924 455 1098 q 573 466 573 703 l 573 458 q 416 12 573 85 q 357 0 396 3 q 172 90 259 0 q 52 533 52 253 l 52 572 q 178 1082 52 865 q 250 1158 218 1138 q 235 1184 235 1172 q 258 1208 241 1208 m 103 551 q 223 112 103 256 q 357 53 289 53 q 514 326 483 53 q 520 433 520 378 l 520 484 q 449 958 520 741 q 307 1131 392 1079 q 174 960 243 1111 q 103 551 103 769 z "},"1":{"ha":214,"x_min":56,"x_max":136,"o":"m 107 1192 l 113 1192 q 136 1168 131 1192 q 107 673 107 913 q 127 18 111 429 q 111 0 123 5 l 99 0 q 75 53 75 0 q 56 633 56 471 l 56 718 q 95 1188 68 1188 l 107 1192 z "},"2":{"ha":454,"x_min":47,"x_max":418,"o":"m 195 1188 l 208 1188 q 370 1072 300 1188 q 403 946 403 1011 l 403 932 q 214 411 403 804 q 119 83 127 190 q 184 96 155 96 q 343 65 209 96 l 378 63 l 390 63 q 418 37 418 60 q 388 10 418 14 q 209 41 330 10 l 182 43 l 180 43 q 97 10 140 43 l 85 10 q 62 33 62 14 q 252 618 62 220 q 352 938 352 854 q 271 1111 352 1044 q 208 1135 237 1135 l 195 1135 q 94 1029 133 1135 q 73 1021 81 1021 q 47 1050 52 1021 q 195 1188 96 1188 z "},"3":{"ha":543,"x_min":0,"x_max":527,"o":"m 226 1202 q 378 1131 308 1202 q 421 1034 421 1081 l 421 1023 q 283 873 421 930 l 283 871 q 387 820 324 861 q 527 488 527 705 q 387 79 527 258 q 234 0 311 0 l 228 0 q 0 199 100 0 l 0 201 q 22 228 3 228 l 26 228 q 63 187 49 228 q 226 53 148 53 l 240 53 q 399 189 318 53 q 474 494 474 328 q 285 816 474 736 q 155 836 225 836 l 151 836 q 122 865 122 836 q 191 897 122 891 q 350 977 302 924 q 368 1019 368 1004 l 368 1034 q 267 1143 368 1099 l 224 1149 q 118 1052 149 1149 q 87 1011 111 1011 q 61 1036 61 1019 q 110 1149 61 1078 q 226 1202 161 1202 z "},"4":{"ha":543,"x_min":29,"x_max":544,"o":"m 204 1204 q 229 1180 229 1199 l 229 1174 q 88 739 157 997 l 90 739 q 355 714 125 739 q 399 1190 355 858 q 420 1204 410 1204 l 428 1204 q 450 1182 444 1204 q 408 712 408 853 l 410 712 q 507 734 486 712 l 517 739 q 544 716 544 734 l 544 708 q 440 661 535 667 l 404 659 l 404 657 l 401 507 l 401 429 q 450 26 401 156 l 450 22 q 422 0 441 0 q 349 393 365 0 l 349 480 q 353 661 349 600 l 347 663 q 82 686 122 686 l 52 686 q 29 708 35 686 l 29 710 q 139 1082 29 751 q 192 1200 176 1200 q 204 1204 192 1204 z "},"5":{"ha":589,"x_min":51,"x_max":559,"o":"m 123 1172 q 300 1162 220 1162 q 384 1170 353 1162 q 408 1145 408 1163 l 408 1143 q 337 1111 408 1111 l 294 1109 q 152 1117 200 1111 q 115 747 142 947 q 250 785 188 785 l 266 785 q 506 616 408 785 q 549 365 559 513 q 413 68 539 216 q 260 -7 336 -7 q 51 189 131 -7 l 51 191 q 73 215 56 215 l 81 215 q 124 152 98 215 q 262 46 185 46 q 431 182 350 46 q 498 418 488 290 q 410 663 508 545 q 258 734 338 734 q 85 667 183 734 l 81 667 q 52 694 52 672 q 99 1143 99 991 q 123 1172 104 1172 z "},"6":{"ha":581,"x_min":52,"x_max":536,"o":"m 217 1174 l 221 1174 q 245 1149 245 1169 q 146 783 176 924 q 105 458 105 604 q 113 336 105 412 l 115 336 q 252 488 157 441 q 327 505 291 505 q 498 395 421 505 q 536 260 536 332 q 422 35 536 126 q 327 0 370 0 l 307 0 q 113 163 200 0 q 52 460 52 291 q 199 1166 52 726 q 217 1174 210 1174 m 142 228 q 317 51 216 51 q 469 179 408 51 q 484 258 484 226 l 484 264 q 359 448 484 385 l 327 452 l 321 452 q 162 315 229 452 q 142 228 150 278 z "},"7":{"ha":543,"x_min":60,"x_max":488,"o":"m 274 1194 q 486 1154 486 1187 l 488 1143 q 378 903 422 1010 q 195 24 195 380 l 195 20 q 167 -8 195 -8 q 142 22 147 -8 q 374 1027 142 431 l 422 1129 l 420 1129 q 278 1141 357 1141 l 276 1141 q 83 1133 189 1141 q 60 1158 60 1141 l 60 1164 q 119 1188 60 1188 l 274 1194 z "},"8":{"ha":600,"x_min":52,"x_max":561,"o":"m 313 1186 q 490 1034 433 1186 q 508 918 508 984 q 402 684 508 764 q 524 576 485 652 q 561 395 561 490 l 561 374 q 427 49 561 184 q 298 0 361 0 q 85 155 186 0 q 52 321 52 233 l 52 358 q 150 661 52 543 l 182 688 q 115 777 130 733 q 85 928 85 853 q 201 1160 92 1120 q 254 1176 216 1160 q 313 1186 283 1184 m 138 928 q 245 712 144 753 l 296 704 q 431 795 378 704 q 455 909 455 853 l 455 928 q 363 1121 455 1059 q 313 1133 336 1133 q 189 1084 262 1133 q 138 928 149 1078 m 103 340 q 180 116 103 182 q 302 53 239 53 q 490 248 416 53 q 510 387 510 330 q 429 612 510 543 q 260 653 363 653 l 243 655 q 168 600 212 655 q 103 340 103 495 z "},"9":{"ha":543,"x_min":52,"x_max":465,"o":"m 223 1204 l 243 1204 q 420 1103 347 1204 l 429 1082 l 443 1082 q 465 1060 460 1082 l 465 1054 q 420 881 441 1004 q 410 712 410 796 l 410 651 q 449 22 410 481 q 422 0 441 0 q 394 55 394 0 q 357 675 357 479 l 357 682 l 361 818 l 361 820 l 359 820 q 213 714 307 714 q 64 867 106 714 q 52 970 52 920 q 164 1190 52 1141 q 223 1204 196 1204 m 105 968 q 189 771 109 808 l 215 767 q 335 885 286 767 q 392 1025 353 920 q 327 1125 392 1074 q 235 1154 279 1154 q 115 1058 149 1154 q 105 968 105 1013 z "}," ":{"ha":340,"x_min":0,"x_max":0,"o":""},"!":{"ha":271,"x_min":140,"x_max":224,"o":"m 197 1166 q 224 1141 224 1158 q 195 867 195 1015 l 195 832 l 205 407 q 185 216 205 216 q 171 210 180 210 l 169 210 q 144 232 144 215 q 153 385 153 329 l 153 431 l 142 852 q 175 1154 142 1038 q 197 1166 185 1164 m 165 61 q 195 24 191 61 q 171 0 191 0 l 167 0 q 140 31 146 0 l 140 39 q 165 61 140 56 z "},"\"":{"ha":378,"x_min":82,"x_max":315,"o":"m 113 1167 l 159 1145 q 180 1102 180 1124 q 102 1023 180 1048 q 84 1043 84 1027 l 84 1045 q 113 1069 84 1061 q 139 1102 139 1087 l 139 1106 l 133 1114 q 109 1106 121 1106 q 82 1139 90 1106 q 113 1167 82 1167 m 248 1167 l 295 1145 q 315 1102 315 1124 q 238 1023 315 1048 q 220 1043 220 1027 l 220 1045 q 248 1069 220 1061 q 275 1102 275 1087 l 275 1106 l 269 1114 q 244 1106 257 1106 q 218 1139 225 1106 q 248 1167 218 1167 z "},"#":{"ha":522,"x_min":14,"x_max":473,"o":"m 333 1135 l 339 1135 q 361 1116 352 1135 l 357 951 l 359 951 l 439 960 q 461 935 461 953 l 461 931 q 388 903 461 903 q 359 897 359 901 l 361 831 l 363 831 l 449 852 q 473 829 473 846 l 473 821 q 394 787 473 797 l 366 779 q 398 522 366 710 q 370 498 393 498 q 337 571 342 498 q 315 762 321 654 l 309 764 l 193 732 l 193 699 q 201 420 193 576 q 170 400 194 400 q 148 433 148 408 l 138 713 l 52 683 l 46 683 q 24 709 27 683 l 24 711 q 91 752 24 734 l 140 768 l 140 864 l 34 850 q 14 872 14 859 l 14 876 q 62 905 14 905 l 142 917 l 142 919 q 168 1118 151 1118 l 180 1122 l 182 1122 q 209 1098 209 1120 q 195 927 201 1036 q 307 947 307 943 l 307 1017 q 319 1131 307 1131 l 333 1135 m 193 874 l 193 787 l 195 787 l 311 819 l 307 892 l 193 874 z "},"$":{"ha":543,"x_min":77,"x_max":514,"o":"m 211 1170 l 219 1170 q 241 1135 241 1170 l 241 1086 l 256 1088 l 266 1088 l 264 1137 q 286 1170 264 1170 l 294 1170 q 317 1143 313 1170 l 317 1084 q 410 964 410 1061 q 382 907 410 907 l 380 907 q 355 926 365 907 l 357 975 q 319 1029 357 1011 l 319 1027 l 325 621 q 514 311 514 444 q 412 124 514 207 q 319 83 378 104 q 302 4 317 4 q 292 0 302 0 l 286 0 q 262 24 262 5 l 266 77 l 241 77 q 221 2 241 2 l 215 0 l 209 0 q 186 24 192 0 l 189 85 l 186 85 q 105 144 128 104 q 89 203 89 180 q 117 228 89 223 q 146 179 140 228 q 191 140 172 140 l 193 140 l 197 441 l 197 517 l 195 680 q 77 891 77 802 l 77 903 q 189 1068 77 1009 l 189 1143 q 211 1170 192 1170 m 241 1034 l 248 698 l 272 675 l 270 706 l 266 1038 l 241 1034 m 127 895 q 193 763 127 840 l 193 765 l 191 1009 q 127 895 127 966 m 248 625 l 250 484 q 243 128 250 285 l 268 130 l 274 446 l 272 541 l 272 600 l 248 625 m 325 545 l 325 393 l 321 140 q 433 220 401 167 q 461 305 461 268 l 461 319 q 325 545 461 408 z "},"%":{"ha":454,"x_min":42,"x_max":410,"o":"m 382 1107 q 410 1078 410 1107 q 109 100 235 590 q 75 6 94 6 l 64 6 q 42 28 42 9 l 42 31 q 180 553 97 285 q 361 1097 250 773 q 382 1107 373 1107 m 156 1101 q 215 1054 207 1101 l 215 1052 q 142 970 215 996 l 132 970 q 79 1044 85 970 l 79 1056 q 136 1101 79 1101 l 156 1101 m 132 1048 l 132 1044 l 134 1023 q 162 1048 149 1023 l 150 1050 l 132 1048 m 288 130 l 300 130 q 359 79 359 124 q 286 0 359 26 l 276 0 q 223 69 223 9 l 223 92 q 288 130 223 130 m 276 77 l 276 67 l 278 53 q 307 77 292 53 l 276 77 z "},"&":{"ha":673,"x_min":45,"x_max":629,"o":"m 361 1158 q 404 1097 398 1158 l 404 1093 q 281 659 404 987 q 444 321 334 494 l 446 321 q 491 545 491 473 l 489 545 q 401 568 401 545 l 399 574 l 399 580 q 458 604 399 604 q 587 618 543 618 l 589 618 q 623 596 623 618 l 623 588 q 601 566 619 566 l 564 566 q 544 559 544 566 q 481 271 544 435 q 625 102 511 216 l 629 90 q 599 61 629 61 q 479 183 570 73 l 456 212 q 216 0 350 0 q 56 130 108 0 q 45 189 47 153 q 145 462 45 282 l 227 659 q 192 865 192 772 l 192 871 q 336 1154 192 1066 l 361 1158 m 245 881 l 245 857 q 257 749 245 810 l 259 749 q 351 1086 351 1011 l 351 1101 l 349 1101 q 245 881 245 1023 m 251 582 q 127 307 205 460 q 98 189 98 238 q 163 67 98 119 q 218 53 191 53 q 422 264 328 53 q 290 494 351 363 l 253 582 l 251 582 z "},"'":{"ha":225,"x_min":68,"x_max":166,"o":"m 99 1094 l 146 1072 q 166 1029 166 1050 q 89 949 166 975 q 71 970 71 954 l 71 972 q 99 996 71 988 q 125 1029 125 1014 l 125 1033 l 119 1041 q 95 1033 108 1033 q 68 1065 76 1033 q 99 1094 68 1094 z "},"(":{"ha":271,"x_min":54,"x_max":271,"o":"m 241 1190 q 267 1166 267 1186 l 267 1156 q 104 631 104 945 q 227 110 104 353 l 271 28 l 271 22 q 249 0 271 3 l 243 0 q 196 55 226 0 q 54 608 54 323 l 54 651 q 125 1017 54 840 q 241 1190 208 1190 z "},")":{"ha":271,"x_min":39,"x_max":257,"o":"m 70 1190 q 186 1017 102 1190 q 257 651 257 840 l 257 608 q 115 55 257 323 q 68 0 85 0 l 62 0 q 39 22 39 3 l 39 28 l 84 110 q 206 631 206 353 q 43 1156 206 945 l 43 1166 q 70 1190 43 1186 z "},"*":{"ha":454,"x_min":43,"x_max":407,"o":"m 220 1013 q 242 989 237 1013 q 236 926 236 956 l 236 869 q 378 956 363 953 q 407 930 407 950 q 360 887 407 910 q 252 814 267 829 q 395 702 395 732 q 370 677 389 677 l 364 677 q 299 724 357 677 l 246 757 l 246 753 l 258 631 q 236 610 251 610 l 230 610 q 201 686 201 610 l 191 767 q 92 649 109 692 l 75 643 l 71 643 q 47 667 47 648 q 161 812 47 703 q 65 893 117 837 q 43 932 43 922 l 43 940 q 67 962 43 957 q 112 918 85 962 q 185 859 151 881 l 183 893 l 183 905 q 210 1013 183 1013 l 220 1013 z "},"+":{"ha":601,"x_min":22,"x_max":543,"o":"m 254 618 q 278 596 278 613 l 278 582 q 288 364 278 454 l 512 364 q 543 336 543 361 q 514 311 536 311 l 459 311 l 292 313 q 337 26 311 160 q 313 0 331 0 l 311 0 q 280 49 280 0 q 239 313 262 134 l 215 311 l 201 311 q 40 303 129 311 q 22 326 22 313 l 22 332 q 81 358 22 358 q 223 364 123 364 l 235 364 q 225 562 227 449 q 250 618 225 618 l 254 618 z "},",":{"ha":203,"x_min":69,"x_max":167,"o":"m 100 50 l 146 27 q 167 -16 167 6 q 90 -95 167 -69 q 71 -75 71 -91 l 71 -73 q 100 -48 71 -56 q 126 -16 126 -31 l 126 -12 l 120 -3 q 96 -12 109 -12 q 69 21 77 -12 q 100 50 69 50 z "},"-":{"ha":589,"x_min":47,"x_max":552,"o":"m 440 442 q 546 422 546 438 q 552 408 552 417 l 552 406 q 530 381 547 381 q 424 391 473 389 l 127 367 l 78 367 q 47 395 47 370 q 72 420 54 420 l 119 420 l 395 442 l 440 442 z "},".":{"ha":271,"x_min":136,"x_max":224,"o":"m 185 94 q 224 47 224 78 l 224 35 q 178 0 224 4 q 136 50 148 0 q 185 94 136 94 z "},"/":{"ha":410,"x_min":33,"x_max":387,"o":"m 351 1196 l 367 1201 q 382 1177 387 1196 l 85 39 q 54 1 77 -3 l 33 11 l 351 1196 z "},":":{"ha":212,"x_min":69,"x_max":149,"o":"m 113 516 q 149 479 149 504 l 149 470 q 107 443 149 446 q 69 482 80 443 q 113 516 69 516 m 113 240 q 149 203 149 228 l 149 194 q 107 167 149 170 q 69 205 80 167 q 113 240 69 240 z "},";":{"ha":239,"x_min":97,"x_max":195,"o":"m 149 351 q 191 304 191 336 l 191 292 q 142 258 191 262 q 97 308 110 258 q 149 351 97 351 m 127 63 l 174 41 q 195 -2 195 20 q 117 -81 195 -56 q 99 -61 99 -77 l 99 -59 q 127 -35 99 -43 q 154 -2 154 -17 l 154 2 l 148 10 q 123 2 136 2 q 97 35 104 2 q 127 63 97 63 z "},"<":{"ha":706,"x_min":42,"x_max":638,"o":"m 638 490 q 573 459 638 462 q 276 396 518 459 l 162 361 l 162 359 q 616 205 295 319 q 632 180 627 205 q 608 156 627 156 l 606 156 q 235 282 497 189 q 50 337 151 311 q 42 353 42 346 l 42 361 q 105 396 42 385 q 425 488 264 451 q 614 518 532 508 q 638 490 638 512 z "},"=":{"ha":600,"x_min":70,"x_max":536,"o":"m 94 528 q 406 515 275 515 l 408 515 l 517 517 q 536 495 536 508 l 536 489 q 483 465 536 465 l 408 463 q 84 479 99 469 q 70 503 74 479 q 94 528 70 518 m 94 381 q 298 373 196 373 l 377 373 q 509 379 450 373 q 534 355 534 372 l 534 351 q 479 324 534 324 q 351 320 432 320 l 322 320 q 82 332 82 323 q 70 357 75 332 q 94 381 70 372 z "},">":{"ha":681,"x_min":49,"x_max":645,"o":"m 49 173 q 114 203 49 201 q 411 267 169 203 l 525 301 l 525 303 q 71 458 392 344 q 55 482 60 458 q 79 507 60 507 l 81 507 q 452 380 190 474 q 637 326 536 352 q 645 309 645 317 l 645 301 q 582 267 645 277 q 262 175 422 212 q 73 144 155 155 q 49 173 49 151 z "},"?":{"ha":407,"x_min":90,"x_max":403,"o":"m 214 1135 q 348 1056 279 1135 q 403 893 403 983 l 403 875 q 334 633 403 760 q 214 562 283 562 q 157 574 195 562 l 163 260 q 140 238 156 238 l 132 238 q 110 260 116 238 q 102 627 110 458 q 124 647 110 647 l 130 647 l 183 621 l 214 614 l 218 614 q 350 854 312 614 l 352 885 q 230 1080 352 1024 l 212 1082 q 140 989 160 1082 q 112 966 140 969 q 90 989 90 972 l 90 993 q 161 1121 90 1065 q 214 1135 195 1135 m 138 61 q 163 31 163 51 l 163 22 q 134 0 163 3 q 108 33 115 0 q 138 61 108 61 z "},"@":{"ha":814,"x_min":68,"x_max":788,"o":"m 469 775 q 735 574 652 775 q 749 490 749 527 q 635 297 749 371 q 554 273 614 280 q 458 326 498 273 l 456 326 q 353 262 412 262 q 271 336 294 262 q 263 395 263 370 q 332 507 263 481 q 355 511 340 511 q 442 468 399 511 q 469 500 448 500 q 497 462 497 500 l 497 439 q 491 397 497 416 q 542 328 503 328 l 556 326 q 676 411 621 326 q 696 494 696 449 q 587 690 696 600 q 475 722 530 722 l 458 722 q 200 588 328 722 q 119 387 119 487 q 363 71 119 201 q 448 53 406 53 l 460 53 q 711 208 598 53 q 741 283 728 243 q 760 293 752 293 l 766 293 q 788 271 788 290 l 788 264 q 686 100 760 159 q 452 0 581 0 q 135 187 296 0 q 68 376 68 282 l 68 393 q 249 702 68 564 q 469 775 359 775 m 316 391 q 351 315 316 325 l 357 315 q 434 391 397 315 q 359 458 392 458 l 355 458 q 318 417 328 458 l 316 391 z "},"A":{"ha":595,"x_min":0,"x_max":527,"o":"m 342 1200 q 378 1125 366 1200 q 444 795 415 979 l 472 800 q 494 771 492 800 q 452 745 494 749 q 527 33 527 224 q 498 8 521 8 q 474 33 474 13 q 399 736 474 239 q 187 722 326 728 q 49 12 121 479 q 22 0 38 0 q 0 22 0 6 q 132 718 67 488 l 118 716 q 90 741 96 716 q 146 771 90 771 q 289 1137 207 966 q 332 1200 319 1200 l 342 1200 m 330 1101 q 203 777 264 966 l 203 775 l 205 775 q 391 789 335 781 q 332 1101 362 974 l 330 1101 z "},"B":{"ha":583,"x_min":0,"x_max":486,"o":"m 39 1198 l 41 1198 q 65 1174 65 1194 l 69 1174 q 142 1198 108 1198 l 157 1198 q 279 1113 233 1198 q 291 1050 291 1079 l 291 1034 q 210 824 291 939 l 244 824 q 464 588 396 824 q 486 417 486 489 q 376 81 486 226 q 220 0 301 0 l 208 0 q 69 55 142 0 q 41 12 69 12 q 16 35 16 18 l 18 102 q 4 124 4 112 l 4 130 q 20 151 7 151 l 22 191 l 22 199 q 0 889 22 352 l 0 983 q 24 1192 5 1192 q 39 1198 25 1196 m 51 948 l 55 771 l 57 771 q 201 907 147 810 q 240 1040 240 987 q 165 1145 240 1125 l 149 1147 q 61 1099 108 1147 q 51 948 54 1099 m 59 712 q 75 236 75 343 l 73 120 q 216 51 149 51 q 403 234 327 51 q 433 415 433 330 l 433 423 q 366 692 433 562 q 234 773 313 773 q 59 712 167 773 z "},"C":{"ha":542,"x_min":-7,"x_max":465,"o":"m 220 1204 l 232 1204 q 332 1123 296 1204 q 342 1056 342 1091 q 313 1029 342 1033 q 289 1054 289 1034 l 289 1062 q 244 1149 289 1128 l 226 1154 q 83 926 134 1154 q 51 608 51 770 q 219 84 52 185 q 292 60 257 60 q 431 133 352 60 l 441 133 q 465 109 465 128 q 349 17 465 73 q 296 9 319 9 l 288 9 q 83 157 172 9 q 0 584 -7 331 l 0 633 q 77 1084 0 888 q 220 1204 138 1204 z "},"D":{"ha":641,"x_min":0,"x_max":525,"o":"m 43 1198 q 69 1174 60 1198 l 65 1147 q 210 1198 121 1198 l 226 1198 q 462 991 375 1198 q 525 580 525 820 l 525 578 q 374 79 525 253 q 226 8 305 8 q 87 59 162 8 l 85 59 l 85 31 q 59 0 81 0 q 33 24 33 6 l 2 732 l 0 844 l 0 881 q 28 1194 4 1194 l 43 1198 m 53 932 l 53 865 l 81 287 l 83 149 q 102 114 83 122 q 228 61 167 61 q 450 350 366 61 q 472 562 472 441 l 472 602 q 350 1082 472 920 q 214 1147 291 1147 q 73 1066 109 1147 q 53 932 53 1007 z "},"E":{"ha":566,"x_min":40,"x_max":488,"o":"m 408 1202 q 429 1180 425 1202 l 429 1174 q 378 1147 429 1147 q 252 1135 314 1135 l 245 1135 q 119 1143 192 1135 q 97 901 97 1041 l 99 795 q 105 785 102 785 l 174 785 q 292 793 214 785 q 313 771 313 786 l 313 765 q 258 739 313 739 q 164 732 226 732 l 123 732 l 103 734 q 146 203 146 330 l 146 201 l 148 177 l 146 153 l 146 144 q 142 53 146 89 l 162 53 q 463 65 236 53 q 488 37 483 65 q 439 12 488 12 q 142 0 248 0 l 111 0 q 87 24 87 5 q 95 177 95 113 q 52 730 95 295 q 40 757 52 736 l 40 767 q 48 781 40 778 l 44 905 q 77 1188 44 1065 l 95 1198 q 235 1188 189 1188 l 260 1188 q 408 1202 298 1188 z "},"F":{"ha":416,"x_min":0,"x_max":376,"o":"m 43 1215 q 205 1202 171 1202 l 354 1211 q 376 1186 370 1211 q 330 1158 376 1158 q 201 1149 248 1149 l 69 1160 l 69 1158 q 63 1031 63 1088 l 63 983 q 73 787 63 896 l 116 785 q 256 798 171 787 q 277 771 277 789 q 191 739 277 739 q 130 734 191 734 l 79 734 l 151 183 l 161 22 q 136 0 154 0 l 134 0 q 108 22 108 3 q 33 680 108 155 l 24 739 q 0 763 0 744 l 0 769 q 20 791 0 783 q 10 1001 10 903 l 10 1009 q 35 1213 10 1213 l 43 1215 z "},"G":{"ha":560,"x_min":0,"x_max":476,"o":"m 240 1221 l 254 1221 q 350 1176 304 1221 q 395 1076 395 1124 l 395 1056 q 370 1031 395 1038 q 344 1066 344 1031 q 273 1166 344 1131 l 246 1170 q 63 671 93 1170 q 51 458 51 524 q 177 92 51 172 q 236 73 212 73 q 382 258 321 73 l 389 283 q 303 519 389 441 q 205 549 269 549 l 167 549 l 155 547 q 128 576 134 547 q 177 602 128 602 l 203 604 l 311 594 q 423 602 349 594 q 446 584 436 602 l 441 515 q 474 195 441 467 l 476 144 l 476 134 q 437 2 469 2 l 427 0 q 405 22 405 6 l 405 26 q 423 124 423 81 l 423 171 l 421 205 l 419 205 q 242 22 348 22 l 226 22 q 67 130 145 22 q 0 437 0 249 l 0 478 q 37 924 0 634 q 104 1127 60 1041 q 240 1221 164 1221 m 356 543 q 389 496 380 514 l 391 496 l 391 545 l 356 543 z "},"H":{"ha":473,"x_min":0,"x_max":397,"o":"m 100 1211 l 106 1211 q 128 1186 125 1211 q 79 773 79 950 l 77 765 l 224 757 l 307 761 l 309 763 l 307 867 q 350 1196 307 1078 l 370 1202 q 395 1176 391 1202 q 360 873 360 1044 l 360 869 q 395 283 360 753 l 397 181 q 374 8 397 8 l 364 6 l 360 6 q 336 31 336 11 q 344 167 344 92 l 344 195 q 313 710 344 296 l 311 710 q 240 706 285 706 l 216 706 q 77 712 155 706 l 77 635 q 120 20 77 394 q 98 0 120 4 l 92 0 q 67 41 67 0 q 24 661 24 371 l 24 716 q 0 739 4 716 l 0 745 q 26 769 0 764 q 79 1198 26 968 q 100 1211 89 1211 z "},"I":{"ha":309,"x_min":0,"x_max":267,"o":"m 171 1194 l 240 1194 q 267 1172 267 1191 l 267 1166 q 236 1141 267 1141 l 161 1143 q 173 820 173 985 l 157 53 l 187 53 l 226 55 q 248 31 248 48 l 248 26 q 228 2 248 11 l 173 0 l 26 2 q 4 28 7 2 l 4 31 q 35 55 4 55 l 104 53 q 120 816 120 669 l 120 834 q 108 1143 120 1005 l 106 1143 l 18 1145 q 0 1168 0 1155 l 0 1174 q 22 1196 3 1196 l 171 1194 z "},"J":{"ha":526,"x_min":-7,"x_max":527,"o":"m 429 1200 l 503 1200 q 527 1176 527 1196 l 527 1172 q 505 1147 527 1155 l 458 1149 l 346 1147 l 346 1145 q 396 484 396 713 l 396 446 q 280 39 396 114 q 168 4 213 4 l 160 4 q -1 175 39 4 q -7 240 -7 211 l -7 271 q 14 328 -7 328 l 24 330 q 48 305 41 330 l 44 254 q 130 61 44 109 l 162 55 q 268 96 210 55 q 345 466 345 179 q 293 1145 345 696 l 142 1139 q 124 1166 124 1148 q 179 1192 124 1192 q 429 1200 314 1200 z "},"K":{"ha":475,"x_min":0,"x_max":474,"o":"m 63 1210 l 71 1210 q 94 1187 87 1210 q 67 810 75 1000 q 277 1046 262 1007 q 319 1086 306 1086 l 326 1086 q 348 1064 342 1086 l 348 1058 q 222 893 348 1040 l 65 730 q 236 549 180 633 q 474 26 340 405 q 446 2 474 8 q 405 67 422 2 q 240 446 304 333 q 85 645 199 525 l 65 661 l 65 596 q 83 22 65 378 q 59 0 77 0 l 53 0 q 28 55 28 0 q 12 637 12 414 l 12 704 q 0 724 0 716 l 0 730 q 14 757 0 738 q 43 1196 14 933 q 63 1210 53 1210 z "},"L":{"ha":407,"x_min":0,"x_max":363,"o":"m 53 1208 l 61 1208 q 83 1184 78 1208 q 51 759 51 981 q 62 56 51 494 q 138 68 86 64 l 307 54 l 327 54 l 339 56 q 363 33 363 50 l 363 25 q 313 1 363 1 l 138 15 q 44 -12 90 15 l 36 -12 q 16 13 16 -3 q 0 724 0 450 l 0 795 q 35 1198 0 1020 q 53 1208 45 1208 z "},"M":{"ha":769,"x_min":0,"x_max":673,"o":"m 45 1217 l 51 1217 q 128 1131 71 1214 q 358 702 264 928 l 370 669 q 415 793 376 672 q 557 1160 490 1072 q 590 1184 573 1184 q 665 958 635 1184 q 673 775 671 881 l 669 521 l 671 189 q 653 12 671 12 l 635 8 q 612 28 620 8 q 618 181 618 109 l 616 557 l 621 789 q 584 1103 621 988 l 582 1103 q 444 710 527 1008 q 376 574 397 574 l 368 572 q 332 629 346 572 q 106 1072 245 848 l 71 1119 l 69 1117 l 69 1115 q 51 496 51 659 q 79 20 51 241 q 53 0 73 0 l 51 0 q 22 67 22 0 q 0 446 0 227 l 0 537 q 20 1192 0 725 q 45 1217 26 1217 z "},"N":{"ha":686,"x_min":33,"x_max":617,"o":"m 82 1202 l 88 1202 q 176 1099 115 1200 q 351 637 242 977 q 456 387 377 568 l 562 126 l 564 126 l 564 171 q 540 665 564 301 l 540 907 q 513 1135 540 1070 l 513 1137 q 538 1164 513 1155 q 581 1086 570 1164 q 593 881 593 1019 l 593 669 l 613 319 l 617 175 q 593 2 617 2 l 581 0 q 540 55 560 0 q 363 476 486 166 q 214 879 310 579 q 102 1115 151 1050 q 84 771 84 913 q 157 28 84 409 q 129 4 152 4 q 96 73 102 4 q 33 736 33 417 l 33 806 q 62 1190 33 1013 q 82 1202 71 1202 z "},"O":{"ha":639,"x_min":0,"x_max":555,"o":"m 285 1213 q 505 999 424 1213 q 555 606 555 829 l 555 588 q 393 41 555 186 q 271 0 336 0 q 10 291 66 0 q 0 417 0 361 l 0 460 q 132 1025 0 735 q 224 1158 168 1091 l 224 1160 q 205 1182 210 1160 l 205 1186 q 242 1213 210 1213 l 285 1213 m 303 1158 q 258 1117 303 1154 q 98 777 157 1005 q 51 439 51 599 q 199 67 57 131 q 267 53 233 53 l 275 53 q 494 429 446 53 q 503 572 503 503 l 503 623 q 425 1052 503 892 q 303 1158 359 1158 z "},"P":{"ha":394,"x_min":0,"x_max":360,"o":"m 222 1213 l 236 1213 q 348 1117 310 1213 q 360 1036 360 1077 q 246 802 360 887 q 157 775 201 775 l 144 775 q 71 789 109 775 l 71 773 q 90 37 71 551 l 92 24 q 67 0 85 0 l 61 0 q 37 53 37 0 q 18 814 18 559 q 0 836 0 824 l 0 844 q 20 867 0 858 q 45 1180 20 1042 q 65 1192 54 1192 l 71 1192 q 94 1166 90 1192 l 96 1166 q 222 1213 166 1213 m 71 844 q 151 826 123 826 q 303 989 262 826 l 307 1036 l 307 1042 q 238 1160 307 1142 l 226 1162 q 83 1090 168 1162 q 71 844 75 984 z "},"Q":{"ha":685,"x_min":-9,"x_max":614,"o":"m 301 1198 l 317 1197 q 536 1008 429 1184 q 592 785 568 942 q 595 404 614 580 l 593 396 q 522 119 576 239 q 565 -8 569 31 l 564 -12 q 538 -32 562 -29 q 509 22 512 -29 l 488 70 q 321 -7 418 -18 q 131 100 229 3 q 9 445 40 218 q 6 744 -9 610 l 11 783 q 125 1109 33 979 q 117 1129 119 1110 l 117 1131 q 171 1170 120 1154 q 301 1198 244 1205 m 59 757 q 118 224 27 475 q 193 111 138 171 q 331 45 265 52 q 461 126 410 36 q 404 256 401 227 q 435 277 406 275 q 463 233 453 275 l 490 182 l 492 182 q 539 384 528 283 l 544 426 q 499 961 575 703 q 437 1061 488 994 q 303 1147 368 1140 q 171 1082 240 1154 q 59 757 82 966 z "},"R":{"ha":448,"x_min":0,"x_max":405,"o":"m 218 1200 l 234 1200 q 358 1095 319 1200 q 370 1015 370 1058 l 370 989 q 269 702 370 848 q 118 592 186 608 q 248 413 210 498 q 405 45 314 288 l 405 39 q 382 16 401 16 l 376 16 q 334 87 353 16 q 122 513 208 416 q 75 557 84 553 l 75 555 l 102 124 l 104 47 q 77 0 104 0 q 51 24 51 4 l 51 59 q 20 580 51 140 q 0 602 0 587 l 0 608 q 20 631 4 631 l 18 633 l 18 635 l 14 873 l 14 909 q 37 1190 14 1190 l 51 1194 q 77 1166 72 1194 l 75 1149 q 218 1200 160 1200 m 71 1090 l 67 938 l 67 842 l 71 635 l 73 635 q 210 712 125 635 q 319 1003 319 850 q 240 1147 319 1128 l 224 1149 q 79 1090 172 1149 l 71 1090 z "},"S":{"ha":562,"x_min":27,"x_max":529,"o":"m 323 1204 l 342 1204 q 523 1080 452 1204 l 529 1062 q 500 1034 529 1034 q 458 1088 484 1034 q 334 1154 402 1154 q 189 1078 248 1154 q 173 1009 173 1042 l 173 1001 q 330 632 173 865 q 487 283 487 399 l 487 277 q 379 41 487 134 q 269 5 329 5 q 27 153 140 5 l 27 165 q 50 188 31 188 l 56 188 q 100 145 69 188 q 269 58 186 58 q 432 237 390 58 l 434 269 l 434 288 q 256 645 434 414 q 120 1005 120 869 q 275 1196 120 1150 q 323 1204 295 1204 z "},"T":{"ha":431,"x_min":0,"x_max":429,"o":"m 28 1184 l 110 1184 q 427 1147 427 1177 l 429 1133 q 405 1109 429 1116 q 226 1129 345 1121 l 228 1058 l 228 924 q 240 18 228 808 q 212 -6 240 0 q 185 53 185 -6 q 177 975 177 871 l 173 1131 l 75 1133 l 20 1131 q 0 1154 0 1140 l 0 1162 q 28 1184 0 1181 z "},"U":{"ha":572,"x_min":29,"x_max":572,"o":"m 104 1192 l 111 1192 q 133 1170 127 1192 q 80 566 80 734 q 247 65 80 203 q 283 51 268 51 q 408 273 349 51 q 444 588 444 450 l 434 1123 l 432 1133 q 460 1160 432 1154 q 487 1105 487 1160 q 497 590 491 732 l 487 409 q 572 43 487 183 l 572 37 q 544 12 566 12 q 460 179 509 12 l 450 226 l 448 226 q 397 87 448 200 q 290 0 345 0 l 275 0 q 80 218 182 0 q 29 541 29 353 l 29 590 q 82 1176 29 764 q 104 1192 91 1192 z "},"V":{"ha":433,"x_min":0,"x_max":462,"o":"m 22 1208 l 28 1208 q 53 1156 53 1208 q 183 212 53 958 l 191 151 l 193 151 q 334 871 248 368 q 415 1188 376 1072 q 435 1198 427 1198 l 437 1198 q 462 1176 462 1193 l 462 1170 q 311 444 391 935 q 201 8 254 146 q 181 0 191 0 q 151 75 151 0 l 31 826 q 0 1188 0 1064 q 22 1208 0 1204 z "},"W":{"ha":910,"x_min":0,"x_max":844,"o":"m 22 1211 l 28 1211 q 53 1158 53 1211 q 108 541 53 1018 q 183 96 149 268 q 433 507 397 378 q 454 519 443 519 l 460 519 q 523 435 477 519 q 714 104 602 310 q 767 474 741 214 q 791 1176 779 660 q 820 1198 799 1198 q 844 1178 836 1198 q 818 476 829 585 q 757 53 818 359 q 722 0 749 0 q 677 61 701 0 q 462 433 562 277 l 460 433 q 201 31 412 311 q 171 4 185 4 q 138 53 142 4 q 43 649 87 292 q 0 1192 0 1038 q 22 1211 7 1211 z "},"X":{"ha":678,"x_min":0,"x_max":700,"o":"m 104 1206 l 110 1206 q 230 966 148 1206 q 328 643 305 707 l 482 928 q 675 1190 627 1190 q 700 1166 700 1185 l 700 1162 q 671 1127 700 1149 q 466 785 576 1004 q 356 578 361 596 q 596 134 427 427 q 645 24 632 74 q 621 0 640 0 l 616 0 q 582 49 596 0 l 368 433 q 321 525 324 524 q 43 24 154 239 l 24 18 q 0 41 0 24 l 0 49 q 297 584 81 223 q 185 936 263 653 q 81 1174 127 1112 l 81 1184 q 104 1206 87 1206 z "},"Y":{"ha":407,"x_min":0,"x_max":423,"o":"m 395 1200 l 401 1200 q 423 1178 423 1197 l 423 1174 q 297 812 423 1094 q 254 657 254 716 q 236 311 240 468 q 258 24 236 132 q 236 1 252 1 l 232 1 q 199 52 205 1 q 183 315 183 173 q 208 710 187 498 l 210 710 q 26 1054 26 1023 q 0 1147 0 1123 l 0 1162 q 22 1182 0 1177 q 55 1135 49 1182 q 230 783 70 1042 l 334 1036 q 374 1186 358 1096 q 395 1200 383 1200 z "},"Z":{"ha":608,"x_min":0,"x_max":574,"o":"m 37 1202 q 140 1190 97 1190 l 169 1190 l 435 1198 q 562 1172 562 1198 l 562 1162 q 500 1068 562 1152 q 67 67 284 732 l 69 67 q 155 75 106 75 l 167 75 l 425 59 l 462 59 q 547 71 498 59 l 549 71 q 574 43 569 71 q 496 8 574 16 l 452 6 l 441 6 l 181 22 l 140 22 q 26 0 85 22 l 24 0 q 0 22 0 5 l 0 26 q 444 1076 216 709 l 488 1143 l 458 1145 l 429 1145 l 155 1137 l 153 1137 q 16 1166 16 1141 l 14 1180 q 37 1202 20 1202 z "},"[":{"ha":448,"x_min":5,"x_max":366,"o":"m 64 1237 q 71 1231 64 1237 q 88 1225 78 1225 q 56 800 56 1021 q 65 -54 56 535 q 140 -42 89 -46 l 309 -56 l 330 -56 l 342 -54 q 366 -77 366 -60 l 366 -85 q 315 -109 366 -109 l 140 -95 q 47 -121 92 -95 l 39 -121 q 18 -97 18 -113 q 5 765 5 491 l 5 836 q 39 1239 5 1061 q 64 1237 50 1249 m 39 -111 q 5 292 5 67 l 5 363 q 18 1225 5 637 q 39 1249 18 1241 l 47 1249 q 140 1223 92 1223 l 315 1237 q 366 1213 366 1237 l 366 1204 q 342 1182 366 1187 l 330 1184 l 309 1184 l 140 1170 q 65 1182 89 1174 q 56 328 56 593 q 88 -97 56 106 q 58 -121 94 -83 l 39 -111 z "},"\\":{"ha":410,"x_min":29,"x_max":382,"o":"m 382 11 l 362 1 q 331 39 339 -3 l 34 1177 q 49 1201 29 1196 l 66 1196 l 382 11 z "},"]":{"ha":490,"x_min":89,"x_max":450,"o":"m 391 -116 q 384 -110 391 -116 q 367 -104 377 -104 q 399 321 399 100 q 390 1175 399 586 q 315 1163 366 1167 l 146 1177 l 125 1177 l 113 1175 q 89 1198 89 1181 l 89 1206 q 140 1230 89 1230 l 315 1216 q 408 1242 363 1216 l 416 1242 q 437 1218 437 1234 q 450 356 450 630 l 450 285 q 416 -118 450 60 q 391 -116 405 -128 m 416 1232 q 450 829 450 1054 l 450 758 q 437 -104 450 484 q 416 -128 437 -120 l 408 -128 q 315 -102 363 -102 l 140 -116 q 89 -92 89 -116 l 89 -83 q 113 -61 89 -66 l 125 -63 l 146 -63 l 315 -49 q 390 -61 366 -53 q 399 793 399 528 q 367 1218 399 1015 q 397 1242 361 1204 l 416 1232 z "},"^":{"ha":289,"x_min":58,"x_max":265,"o":"m 237 930 q 193 977 209 930 l 159 1090 l 157 1090 l 106 948 q 82 932 106 937 q 58 956 58 937 l 58 958 q 134 1202 108 1101 q 151 1211 143 1211 l 159 1211 q 193 1147 182 1211 q 265 955 248 988 q 237 930 259 930 z "},"_":{"ha":890,"x_min":66,"x_max":844,"o":"m 732 30 q 838 9 838 26 q 844 -5 844 5 l 844 -7 q 821 -31 838 -31 q 715 -21 765 -23 l 145 -32 l 96 -32 q 66 -3 66 -28 q 90 21 73 21 l 137 21 l 687 30 l 732 30 z "},"`":{"ha":193,"x_min":27,"x_max":134,"o":"m 45 1184 q 54 1190 45 1184 q 71 1169 63 1196 q 106 1124 79 1141 q 134 1099 134 1116 l 134 1097 q 116 1077 134 1081 q 42 1128 57 1085 q 45 1184 27 1171 z "},"a":{"ha":606,"x_min":0,"x_max":527,"o":"m 330 1082 q 366 1006 353 1082 q 431 677 403 861 l 460 681 q 482 652 479 681 q 439 626 482 630 q 527 33 527 224 q 498 8 521 8 q 474 33 474 13 q 387 618 474 239 q 175 604 314 610 q 49 12 111 258 q 22 0 38 0 q 0 22 0 6 q 120 600 57 267 l 106 597 q 77 622 83 597 q 134 652 77 652 q 277 1019 195 848 q 319 1082 307 1082 l 330 1082 m 317 982 q 191 659 252 848 l 191 656 l 193 656 q 378 671 323 663 q 319 982 350 855 l 317 982 z "},"b":{"ha":575,"x_min":4,"x_max":513,"o":"m 43 1088 l 45 1088 q 69 1064 69 1084 l 73 1064 q 146 1088 112 1088 l 161 1088 q 283 1003 237 1088 q 295 940 295 969 l 295 924 q 214 714 295 829 l 248 714 q 457 490 400 714 q 376 81 513 267 q 220 0 301 0 l 208 0 q 69 55 142 0 q 41 12 69 12 q 16 35 16 18 l 18 102 q 4 124 4 112 l 4 130 q 20 151 7 151 l 22 191 l 22 199 q 4 779 22 352 l 4 873 q 28 1082 9 1082 q 43 1088 29 1086 m 55 838 l 59 661 l 61 661 q 205 798 151 700 q 244 930 244 877 q 169 1036 244 1015 l 153 1038 q 65 989 112 1038 q 55 838 58 989 m 63 602 q 75 236 75 343 l 73 120 q 216 51 149 51 q 403 234 327 51 q 370 582 456 403 q 238 663 317 663 q 63 602 171 663 z "},"c":{"ha":549,"x_min":-7,"x_max":465,"o":"m 227 1085 l 239 1085 q 338 1004 303 1085 q 349 937 349 972 q 320 910 349 913 q 296 935 296 915 l 296 943 q 251 1030 296 1009 l 233 1034 q 90 806 140 1034 q 58 489 58 651 q 219 84 52 185 q 292 60 257 60 q 431 133 352 60 l 441 133 q 465 109 465 128 q 349 17 465 73 q 296 9 319 9 l 288 9 q 83 157 172 9 q 7 465 -7 331 l 7 513 q 84 965 7 769 q 227 1085 145 1085 z "},"d":{"ha":599,"x_min":7,"x_max":532,"o":"m 50 1077 q 76 1053 67 1077 l 72 1026 q 216 1077 128 1077 l 233 1077 q 469 869 382 1077 q 525 580 532 699 l 525 578 q 374 79 525 253 q 226 8 305 8 q 87 59 162 8 l 85 59 l 85 31 q 59 0 81 0 q 33 24 33 6 l 9 611 l 7 723 l 7 760 q 35 1073 11 1073 l 50 1077 m 60 810 l 60 743 l 81 287 l 83 149 q 102 114 83 122 q 228 61 167 61 q 450 350 366 61 q 472 562 472 441 l 472 602 q 357 961 479 799 q 220 1026 298 1026 q 80 945 115 1026 q 60 810 60 886 z "},"e":{"ha":546,"x_min":25,"x_max":469,"o":"m 391 1076 q 412 1054 408 1076 l 412 1048 q 361 1021 412 1021 q 235 1009 297 1009 l 229 1009 q 102 1017 175 1009 q 82 825 80 915 l 84 719 q 90 709 87 709 l 159 709 q 277 717 199 709 q 298 694 298 709 l 298 688 q 243 662 298 662 q 149 656 211 656 l 109 656 l 88 658 q 127 203 127 330 l 127 201 l 130 177 l 127 153 l 127 144 q 123 53 127 89 l 144 53 q 445 65 218 53 q 469 37 465 65 q 420 12 469 12 q 123 0 230 0 l 93 0 q 68 24 68 5 q 77 177 77 113 q 37 654 77 295 q 25 680 37 660 l 25 690 q 33 705 25 701 l 29 829 q 60 1062 27 939 l 78 1072 q 218 1062 172 1062 l 243 1062 q 391 1076 281 1062 z "},"f":{"ha":414,"x_min":13,"x_max":387,"o":"m 54 1088 q 216 1076 182 1076 l 365 1084 q 387 1060 381 1084 q 340 1031 387 1031 q 212 1023 258 1023 l 80 1034 l 80 1031 q 74 905 74 962 l 74 857 q 86 698 76 806 l 129 696 q 269 708 184 698 q 290 682 290 700 q 204 649 290 649 q 143 645 204 645 l 92 645 l 151 183 l 161 22 q 136 0 154 0 l 134 0 q 108 22 108 3 q 45 590 108 155 l 37 649 q 13 673 13 654 l 13 680 q 33 702 13 694 q 21 875 23 813 l 21 883 q 45 1086 21 1086 l 54 1088 z "},"g":{"ha":568,"x_min":0,"x_max":476,"o":"m 225 1084 l 239 1084 q 335 1039 290 1084 q 380 939 380 987 l 380 919 q 355 895 380 901 q 329 929 329 895 q 258 1029 329 994 l 231 1033 q 72 760 93 996 q 51 458 51 524 q 177 92 51 172 q 236 73 212 73 q 382 258 321 73 l 389 283 q 305 480 391 402 q 208 511 271 511 l 169 511 l 157 509 q 130 537 136 509 q 179 564 130 564 l 205 566 l 313 555 q 425 564 351 555 q 448 545 438 564 l 444 476 q 474 195 444 429 l 476 144 l 476 134 q 437 2 469 2 l 427 0 q 405 22 405 6 l 405 26 q 423 124 423 81 l 423 171 l 421 205 l 419 205 q 242 22 348 22 l 226 22 q 67 130 145 22 q 0 437 0 249 l 0 478 q 22 787 0 634 q 89 990 45 904 q 225 1084 149 1084 m 358 505 q 391 458 382 475 l 393 458 l 393 507 l 358 505 z "},"h":{"ha":504,"x_min":2,"x_max":397,"o":"m 95 1084 l 101 1084 q 123 1059 121 1084 q 81 698 81 875 l 79 690 l 226 682 l 309 686 l 311 688 l 309 791 q 345 1069 302 951 l 366 1076 q 390 1049 387 1076 q 362 798 355 918 l 362 793 q 395 283 362 677 l 397 181 q 374 8 397 8 l 364 6 l 360 6 q 336 31 336 11 q 344 167 344 92 l 344 195 q 315 635 344 296 l 313 635 q 222 631 287 631 q 79 637 157 631 l 79 559 q 120 20 77 394 q 98 0 120 4 l 92 0 q 67 41 67 0 q 26 586 24 371 l 26 641 q 2 663 6 641 l 2 669 q 28 694 2 688 q 75 1072 28 892 q 95 1084 84 1084 z "},"i":{"ha":339,"x_min":0,"x_max":267,"o":"m 171 1061 l 240 1061 q 267 1038 267 1057 l 267 1032 q 236 1008 267 1008 l 161 1010 q 173 686 173 851 l 157 53 l 187 53 l 226 55 q 248 31 248 48 l 248 26 q 228 2 248 11 l 173 0 l 26 2 q 4 28 7 2 l 4 31 q 35 55 4 55 l 104 53 q 120 682 120 535 l 120 701 q 108 1010 120 871 l 106 1010 l 18 1012 q 0 1034 0 1021 l 0 1040 q 22 1063 3 1063 l 171 1061 z "},"j":{"ha":555,"x_min":-7,"x_max":536,"o":"m 439 1070 l 512 1070 q 536 1046 536 1065 l 536 1042 q 514 1017 536 1025 l 467 1019 l 355 1017 l 355 1015 q 396 484 396 713 l 396 446 q 280 39 396 114 q 168 4 213 4 l 160 4 q -1 175 39 4 q -7 240 -7 211 l -7 271 q 14 328 -7 328 l 24 330 q 48 305 41 330 l 44 254 q 130 61 44 109 l 162 55 q 268 96 210 55 q 345 466 345 179 q 302 1015 345 696 l 152 1009 q 134 1036 134 1018 q 189 1062 134 1062 q 439 1070 323 1070 z "},"k":{"ha":475,"x_min":11,"x_max":432,"o":"m 74 1111 l 82 1111 q 104 1088 98 1111 q 78 711 86 901 q 288 947 273 908 q 330 987 317 987 l 336 987 q 359 965 353 987 l 359 959 q 233 794 359 941 l 76 631 q 247 450 191 534 q 432 21 351 306 q 404 -3 432 3 q 363 62 380 -3 q 251 347 315 234 q 96 546 210 426 l 76 562 l 76 497 q 85 14 76 279 q 61 -9 79 -9 l 55 -9 q 31 46 31 -9 q 23 538 23 315 l 23 605 q 11 625 11 617 l 11 631 q 25 658 11 639 q 54 1097 25 834 q 74 1111 64 1111 z "},"l":{"ha":377,"x_min":0,"x_max":313,"o":"m 53 1090 l 61 1090 q 83 1065 78 1090 q 51 640 51 862 q 62 56 51 376 q 138 68 86 64 l 256 54 l 276 54 l 288 56 q 313 33 313 50 l 313 25 q 262 1 313 1 l 138 15 q 44 -12 90 15 l 36 -12 q 16 13 16 -3 q 0 606 0 332 l 0 677 q 35 1080 0 901 q 53 1090 45 1090 z "},"m":{"ha":785,"x_min":3,"x_max":679,"o":"m 50 1076 l 56 1076 q 134 990 76 1073 q 363 561 269 787 l 376 528 q 420 652 382 531 q 563 1019 496 931 q 595 1043 578 1043 q 671 817 641 1043 q 679 634 677 740 l 675 380 l 677 180 q 659 3 677 3 l 640 -1 q 618 19 625 -1 q 624 172 624 100 l 622 416 l 626 648 q 589 962 626 847 l 587 962 q 449 569 532 867 q 382 433 403 433 l 374 431 q 337 488 351 431 q 111 931 251 707 l 77 978 l 75 976 l 75 974 q 56 355 56 517 q 81 9 54 205 q 54 -12 74 -12 l 52 -12 q 24 56 24 -12 q 5 304 3 190 l 5 396 q 26 1051 5 584 q 50 1076 31 1076 z "},"n":{"ha":730,"x_min":54,"x_max":633,"o":"m 102 1095 l 109 1095 q 196 991 136 1093 q 575 126 262 869 l 577 126 l 577 171 q 560 557 585 193 l 560 800 q 534 1027 560 962 l 534 1029 q 558 1056 534 1047 q 601 979 590 1056 q 613 773 613 911 l 613 562 l 633 212 l 630 175 q 606 2 630 2 l 593 0 q 553 55 573 0 q 235 771 499 166 q 123 1007 172 943 q 104 663 104 806 q 170 28 104 301 q 142 4 165 4 q 109 73 115 4 q 54 629 54 309 l 54 698 q 82 1082 54 905 q 102 1095 92 1095 z "},"o":{"ha":644,"x_min":0,"x_max":555,"o":"m 285 1095 q 505 882 424 1095 q 544 439 555 711 q 459 80 532 166 q 271 0 386 -7 q 10 291 41 -2 q 17 541 0 361 q 132 908 35 720 q 224 1040 168 974 l 224 1042 q 205 1065 210 1042 l 205 1069 q 242 1095 210 1095 l 285 1095 m 303 1040 q 258 1000 303 1037 q 103 718 157 888 q 53 339 49 547 q 151 83 57 131 q 343 55 244 35 q 472 231 442 76 q 503 580 503 385 q 425 935 503 775 q 303 1040 359 1040 z "},"p":{"ha":431,"x_min":5,"x_max":366,"o":"m 227 1086 l 241 1086 q 353 991 315 1086 q 366 909 366 951 q 252 675 366 761 q 162 649 206 649 l 150 649 q 77 663 114 649 l 77 647 q 90 37 71 551 l 92 24 q 67 0 85 0 l 61 0 q 37 53 37 0 q 24 688 18 559 q 5 710 5 698 l 5 718 q 26 741 5 732 q 50 1054 26 916 q 71 1066 60 1066 l 77 1066 q 99 1040 96 1066 l 101 1040 q 227 1086 172 1086 m 77 718 q 156 700 129 700 q 309 863 268 700 l 313 909 l 313 916 q 243 1034 313 1016 l 231 1036 q 89 964 174 1036 q 77 718 81 858 z "},"q":{"ha":724,"x_min":-9,"x_max":614,"o":"m 301 1101 l 317 1100 q 536 911 429 1087 q 591 712 568 845 q 595 404 614 580 l 593 396 q 522 119 576 239 q 565 -8 569 31 l 564 -12 q 538 -32 562 -29 q 509 22 512 -29 l 488 70 q 321 -7 418 -18 q 131 100 229 3 q 9 445 40 218 q 12 746 -9 610 q 125 1013 33 882 q 117 1032 119 1013 l 117 1034 q 171 1073 120 1057 q 301 1101 244 1108 m 55 672 q 41 573 55 672 q 118 224 27 475 q 193 111 138 171 q 331 45 265 52 q 461 126 410 36 q 404 256 401 227 q 435 277 406 275 q 463 233 453 275 l 490 182 l 492 182 q 539 384 528 283 l 544 426 q 499 864 575 606 q 437 964 488 897 q 303 1050 368 1043 q 171 985 240 1057 q 55 672 82 869 z "},"r":{"ha":474,"x_min":9,"x_max":379,"o":"m 227 1090 l 243 1090 q 367 985 328 1090 q 379 905 379 948 l 379 879 q 277 592 379 739 q 127 482 195 498 q 257 303 219 389 q 364 31 323 178 l 364 24 q 342 2 361 2 l 336 2 q 293 73 313 2 q 131 403 216 307 q 84 448 93 444 l 84 446 l 90 120 l 92 43 q 66 -4 92 -4 q 39 20 39 0 l 39 55 q 29 470 39 136 q 9 492 9 477 l 9 498 q 29 521 13 521 l 27 523 l 27 525 l 23 763 l 23 800 q 45 1080 23 1080 l 60 1084 q 86 1056 81 1084 l 84 1040 q 227 1090 169 1090 m 80 981 l 76 828 l 76 732 l 80 525 l 82 525 q 218 602 134 525 q 328 893 328 741 q 249 1038 328 1018 l 233 1040 q 88 981 181 1040 l 80 981 z "},"s":{"ha":575,"x_min":13,"x_max":487,"o":"m 247 1071 q 329 1089 247 1071 q 475 882 411 1108 l 481 864 q 452 836 481 836 q 419 907 436 836 q 326 1011 402 979 q 191 986 250 1042 q 143 836 132 930 q 321 570 155 741 q 484 249 487 399 q 414 54 481 100 q 220 29 346 9 q 13 357 94 49 l 13 369 q 35 391 16 391 l 41 391 q 102 243 55 391 q 272 78 149 96 q 430 205 395 60 q 284 522 464 350 q 94 864 105 694 q 247 1071 83 1034 z "},"t":{"ha":469,"x_min":-5,"x_max":424,"o":"m 23 1060 l 104 1060 q 422 1023 422 1053 l 424 1009 q 399 985 424 992 q 220 1005 340 997 l 222 934 l 222 800 q 240 18 222 684 q 212 -6 240 0 q 185 53 185 -6 q 172 850 172 747 l 168 1007 l 70 1009 l 15 1007 q -5 1029 -5 1016 l -5 1038 q 23 1060 -5 1057 z "},"u":{"ha":637,"x_min":31,"x_max":574,"o":"m 103 1091 l 109 1091 q 132 1069 126 1091 q 82 566 82 734 q 249 65 82 203 q 286 51 270 51 q 410 273 351 51 q 446 588 446 450 l 433 1022 l 431 1032 q 459 1059 431 1053 q 486 1004 486 1059 q 499 590 493 732 l 489 409 q 574 43 489 183 l 574 37 q 546 12 568 12 q 463 179 511 12 l 452 226 l 450 226 q 399 87 450 200 q 292 0 347 0 l 277 0 q 82 218 184 0 q 31 541 31 353 l 31 590 q 81 1075 31 764 q 103 1091 90 1091 z "},"v":{"ha":481,"x_min":11,"x_max":429,"o":"m 33 1076 l 39 1076 q 64 1023 64 1076 q 183 212 64 826 l 191 151 l 193 151 q 301 741 248 368 q 382 1059 344 943 q 403 1069 394 1069 l 405 1069 q 429 1046 429 1063 l 429 1040 q 311 444 358 806 q 201 8 254 146 q 181 0 191 0 q 151 75 151 0 l 41 694 q 11 1056 11 932 q 33 1076 11 1072 z "},"w":{"ha":831,"x_min":12,"x_max":731,"o":"m 34 1075 l 40 1075 q 64 1022 64 1075 q 104 541 64 882 q 180 96 145 268 q 333 475 296 347 q 353 488 342 488 l 359 488 q 422 404 377 488 q 603 104 501 279 q 667 443 641 182 q 678 1022 679 629 q 707 1044 686 1044 q 731 1024 722 1044 q 718 445 729 554 q 646 53 718 328 q 611 0 637 0 q 566 61 589 0 q 361 402 462 245 l 359 402 q 198 31 312 279 q 168 4 182 4 q 135 53 139 4 q 39 649 84 292 q 12 1057 12 902 q 34 1075 18 1075 z "},"x":{"ha":718,"x_min":27,"x_max":644,"o":"m 68 1078 l 75 1078 q 195 838 113 1078 q 304 553 281 617 l 426 813 q 619 1076 571 1076 q 644 1051 644 1071 l 644 1047 q 615 1013 644 1035 q 460 757 520 889 q 332 488 337 507 q 507 147 403 338 q 555 37 543 87 q 531 13 551 13 l 527 13 q 492 62 507 13 l 345 344 q 298 435 300 435 q 70 20 130 150 l 52 14 q 27 36 27 19 l 27 44 q 273 494 57 134 q 150 808 239 564 q 46 1046 92 984 l 46 1056 q 68 1078 52 1078 z "},"y":{"ha":515,"x_min":0,"x_max":423,"o":"m 395 1101 l 401 1101 q 423 1079 423 1098 l 423 1075 q 297 713 423 995 q 254 558 254 617 q 236 311 240 369 q 258 24 236 132 q 236 1 252 1 l 232 1 q 199 52 205 1 q 183 315 183 173 q 208 611 187 399 l 210 611 q 26 955 26 924 q 0 1048 0 1024 l 0 1063 q 22 1083 0 1078 q 55 1036 49 1083 q 230 684 70 943 l 334 937 q 374 1087 358 997 q 395 1101 383 1101 z "},"z":{"ha":654,"x_min":0,"x_max":574,"o":"m 24 1063 q 127 1051 84 1051 l 156 1051 l 422 1059 q 549 1033 549 1059 l 549 1023 q 488 929 549 1013 q 67 67 271 593 l 69 67 q 155 75 106 75 l 167 75 l 425 59 l 462 59 q 547 71 498 59 l 549 71 q 574 43 569 71 q 496 8 574 16 l 452 6 l 441 6 l 181 22 l 140 22 q 26 0 85 22 l 24 0 q 0 22 0 5 l 0 26 q 431 937 203 570 l 475 1004 l 445 1006 l 416 1006 l 142 998 l 140 998 q 3 1027 3 1002 l 1 1041 q 24 1063 7 1063 z "},"{":{"ha":318,"x_min":0,"x_max":273,"o":"m 150 1291 l 166 1291 q 239 1262 239 1286 l 239 1258 q 213 1230 236 1230 q 158 1240 183 1238 q 87 1130 87 1240 l 87 1105 q 116 756 87 1060 l 116 748 q 67 597 116 640 q 106 422 106 549 l 116 158 q 203 -27 116 -27 l 254 -25 q 273 -47 273 -32 l 273 -54 q 212 -80 273 -80 l 210 -80 q 65 144 65 -80 l 65 166 l 53 414 l 53 439 q 10 579 53 551 q 0 602 0 586 q 39 642 0 617 q 65 746 65 682 q 34 1114 34 1053 l 34 1120 q 103 1278 34 1243 q 150 1291 125 1291 z "},"|":{"ha":410,"x_min":29,"x_max":382,"o":"m 382 11 l 362 1 q 331 39 339 -3 l 34 1177 q 49 1201 29 1196 l 66 1196 l 382 11 z "},"}":{"ha":329,"x_min":57,"x_max":323,"o":"m 110 1276 l 128 1276 q 260 1115 239 1276 q 264 1048 264 1090 l 264 1040 l 269 768 q 311 606 269 639 q 323 583 321 606 q 291 549 323 568 q 258 439 258 516 q 275 82 275 141 q 179 -89 275 -63 l 149 -91 q 69 -62 79 -91 l 69 -54 q 94 -30 74 -30 q 149 -38 130 -38 l 155 -38 q 222 82 222 -38 l 222 90 q 208 427 222 137 l 208 439 q 256 585 208 550 l 256 587 q 218 748 218 641 l 218 768 l 212 1027 l 212 1060 q 118 1225 212 1225 l 75 1221 q 57 1243 57 1230 l 57 1249 q 110 1276 57 1276 z "},"~":{"ha":688,"x_min":53,"x_max":621,"o":"m 197 543 q 429 500 239 543 l 466 498 l 484 498 q 584 536 537 498 l 592 538 l 596 538 q 621 512 616 538 q 515 447 621 477 l 480 445 l 470 445 q 244 486 417 445 l 203 490 l 187 490 q 98 418 125 490 l 77 412 q 53 437 53 417 l 53 441 q 197 543 87 543 z "},"¡":{"ha":271,"x_min":140,"x_max":224,"o":"m 167 0 q 140 24 140 7 q 169 299 169 151 l 169 334 l 159 759 q 179 950 159 950 q 193 956 184 956 l 195 956 q 220 934 220 951 q 212 781 212 837 l 212 734 l 222 313 q 189 12 222 128 q 167 0 179 2 m 199 1105 q 169 1141 174 1105 q 193 1166 174 1166 l 197 1166 q 224 1135 218 1166 l 224 1127 q 199 1105 224 1110 z "},"¢":{"ha":193,"x_min":27,"x_max":134,"o":"m 45 1184 q 54 1190 45 1184 q 71 1169 63 1196 q 106 1124 79 1141 q 134 1099 134 1116 l 134 1097 q 116 1077 134 1081 q 42 1128 57 1085 q 45 1184 27 1171 z "},"£":{"ha":601,"x_min":29,"x_max":561,"o":"m 218 3 l 190 54 l 177 52 l 177 54 q 127 715 127 487 l 127 754 q 243 1161 127 1086 q 355 1196 310 1196 l 363 1196 q 524 1025 484 1196 q 530 960 530 989 l 530 929 q 509 872 530 872 l 499 870 q 475 895 482 870 l 479 945 q 393 1139 479 1091 l 361 1145 q 255 1104 313 1145 q 178 734 178 1021 q 230 54 178 503 q 218 3 209 -1 m 324 624 q 430 604 430 620 q 436 589 436 599 l 436 587 q 414 563 431 563 q 308 573 357 571 l 109 551 l 60 551 q 29 579 29 554 q 54 604 36 604 l 100 604 l 279 624 l 324 624 m 449 75 q 555 55 555 71 q 561 41 561 50 l 561 39 q 538 14 555 14 q 433 24 482 22 l 233 2 l 184 2 q 154 31 154 5 q 178 55 161 55 l 225 55 l 404 75 l 449 75 z "},"¤":{"ha":688,"x_min":0,"x_max":0,"o":""},"¥":{"ha":856,"x_min":0,"x_max":0,"o":""},"¦":{"ha":332,"x_min":119,"x_max":220,"o":"m 119 144 l 142 378 l 142 417 q 166 438 142 432 q 195 412 191 438 l 195 371 l 170 119 q 180 30 172 78 q 156 12 180 16 l 154 12 q 140 16 144 12 q 119 106 123 16 l 119 144 m 144 635 l 167 869 l 167 909 q 191 930 167 924 q 220 903 216 930 l 220 863 l 195 611 q 205 522 197 570 q 181 503 205 507 l 179 503 q 165 508 170 503 q 144 597 149 508 l 144 635 z "},"§":{"ha":391,"x_min":12,"x_max":343,"o":"m 207 690 q 329 609 286 690 q 343 552 343 581 q 319 530 343 535 l 315 530 q 284 585 291 530 q 207 637 254 637 l 199 637 q 150 583 150 629 l 150 578 q 239 362 150 501 q 329 148 329 224 l 329 146 q 239 5 329 57 q 205 -3 220 -3 l 195 -3 q 20 189 95 -3 l 12 221 q 36 245 17 245 l 42 245 q 75 189 62 245 q 199 48 138 48 q 274 121 242 48 l 276 140 l 276 152 q 148 434 276 220 q 97 576 97 512 q 182 688 97 665 l 207 690 m 195 1120 q 317 1039 274 1120 q 332 982 332 1011 q 307 960 332 965 l 303 960 q 273 1015 279 960 q 195 1067 242 1067 l 187 1067 q 138 1013 138 1059 l 138 1008 q 237 781 138 931 q 336 555 336 631 l 336 553 q 246 413 336 465 q 212 405 227 405 l 201 405 q 135 470 125 485 q 205 456 144 456 q 281 529 249 456 l 283 547 l 283 559 q 184 785 283 627 q 85 1006 85 942 q 171 1118 85 1095 l 195 1120 z "},"¨":{"ha":337,"x_min":38,"x_max":283,"o":"m 87 1170 q 127 1123 127 1154 l 127 1111 q 81 1076 127 1080 q 38 1126 50 1076 q 87 1170 38 1170 m 244 1165 q 283 1118 283 1149 l 283 1106 q 237 1072 283 1076 q 195 1122 207 1072 q 244 1165 195 1165 z "},"©":{"ha":1135,"x_min":0,"x_max":0,"o":""},"ª":{"ha":439,"x_min":0,"x_max":0,"o":""},"«":{"ha":706,"x_min":54,"x_max":669,"o":"m 408 637 q 135 345 408 610 l 439 83 q 455 59 450 83 q 431 35 450 35 l 429 35 q 116 285 178 252 q 58 350 54 319 l 105 396 l 384 666 q 408 637 408 660 m 623 640 q 349 347 623 612 l 653 85 q 669 61 665 85 q 645 37 664 37 l 643 37 q 330 287 393 254 q 273 352 268 321 l 319 398 l 598 668 q 623 640 623 662 z "},"¬":{"ha":688,"x_min":0,"x_max":0,"o":""},"®":{"ha":1135,"x_min":0,"x_max":0,"o":""},"¯":{"ha":628,"x_min":36,"x_max":577,"o":"m 465 1134 q 571 1114 571 1130 q 577 1099 577 1109 l 577 1097 q 555 1073 572 1073 q 449 1083 498 1081 l 115 1063 l 66 1063 q 36 1092 36 1067 q 60 1116 43 1116 l 107 1116 l 420 1134 l 465 1134 z "},"°":{"ha":271,"x_min":75,"x_max":211,"o":"m 140 1139 l 152 1139 q 211 1088 211 1133 q 138 1008 211 1035 l 127 1008 q 75 1078 75 1017 l 75 1100 q 140 1139 75 1139 m 127 1086 l 127 1076 l 130 1061 q 158 1086 144 1061 l 127 1086 z "},"±":{"ha":614,"x_min":35,"x_max":556,"o":"m 267 775 q 292 753 292 770 l 292 739 q 302 521 292 610 l 526 521 q 556 492 556 517 q 528 468 550 468 l 473 468 l 306 470 q 351 183 324 317 q 326 157 345 157 l 324 157 q 294 205 294 157 q 253 470 275 290 l 229 468 l 214 468 q 54 460 142 468 q 35 482 35 469 l 35 488 q 94 515 35 515 q 237 521 136 521 l 249 521 q 239 718 241 606 q 263 775 239 775 l 267 775 m 442 126 q 548 106 548 122 q 554 92 554 101 l 554 90 q 532 65 549 65 q 426 75 475 73 l 129 51 l 80 51 q 50 79 50 54 q 74 104 56 104 l 121 104 l 397 126 l 442 126 z "},"²":{"ha":688,"x_min":0,"x_max":0,"o":""},"³":{"ha":688,"x_min":0,"x_max":0,"o":""},"´":{"ha":193,"x_min":35,"x_max":142,"o":"m 124 1184 q 133 1177 124 1184 q 127 1128 142 1171 q 54 1077 113 1085 q 35 1097 35 1081 l 35 1099 q 64 1124 35 1116 q 98 1169 90 1141 q 124 1184 106 1196 z "},"µ":{"ha":800,"x_min":0,"x_max":0,"o":""},"¶":{"ha":694,"x_min":0,"x_max":0,"o":""},"·":{"ha":271,"x_min":81,"x_max":170,"o":"m 130 619 q 170 572 170 604 l 170 560 q 123 526 170 530 q 81 576 93 526 q 130 619 81 619 z "},"¸":{"ha":339,"x_min":61,"x_max":269,"o":"m 178 -185 q 137 -186 178 -185 q 61 -87 96 -186 q 102 -90 101 -68 q 149 -127 104 -112 q 195 -97 193 -142 q 193 -19 196 -52 q 227 33 186 26 q 243 -13 269 40 q 252 -101 243 -19 q 178 -185 260 -183 z "},"¹":{"ha":688,"x_min":0,"x_max":0,"o":""},"º":{"ha":487,"x_min":0,"x_max":0,"o":""},"»":{"ha":706,"x_min":58,"x_max":674,"o":"m 319 637 q 344 666 319 660 l 623 396 l 669 350 q 612 285 674 319 q 299 35 549 252 l 297 35 q 273 59 278 35 q 289 83 277 83 l 593 345 q 319 637 319 610 m 105 640 q 130 668 105 662 l 408 398 l 455 352 q 397 287 460 321 q 85 37 335 254 l 83 37 q 58 61 64 37 q 75 85 63 85 l 378 347 q 105 640 105 612 z "},"¼":{"ha":1158,"x_min":0,"x_max":0,"o":""},"½":{"ha":1332,"x_min":0,"x_max":0,"o":""},"¾":{"ha":1158,"x_min":0,"x_max":0,"o":""},"¿":{"ha":407,"x_min":90,"x_max":403,"o":"m 279 0 q 144 79 213 0 q 90 242 90 153 l 90 260 q 159 503 90 375 q 279 574 210 574 q 336 562 298 574 l 330 875 q 352 897 336 897 l 360 897 q 382 875 376 897 q 391 509 382 677 q 368 488 382 488 l 362 488 l 309 515 l 279 521 l 275 521 q 142 281 180 521 l 140 250 q 262 55 140 111 l 281 53 q 352 146 332 53 q 380 169 352 166 q 403 146 403 163 l 403 142 q 332 14 403 70 q 279 0 297 0 m 354 1074 q 330 1105 330 1084 l 330 1113 q 358 1135 330 1133 q 385 1103 377 1135 q 354 1074 385 1074 z "},"À":{"ha":574,"x_min":0,"x_max":527,"o":"m 342 1200 q 378 1125 366 1200 q 444 795 415 979 l 472 800 q 494 771 492 800 q 452 745 494 749 q 527 33 527 224 q 498 8 521 8 q 474 33 474 13 q 399 736 474 239 q 187 722 326 728 q 49 12 121 479 q 22 0 38 0 q 0 22 0 6 q 132 718 67 488 l 118 716 q 90 741 96 716 q 146 771 90 771 q 289 1137 207 966 q 332 1200 319 1200 l 342 1200 m 330 1101 q 203 777 264 966 l 203 775 l 205 775 q 391 789 335 781 q 332 1101 362 974 l 330 1101 m 250 1343 q 259 1349 250 1343 q 276 1328 268 1356 q 311 1283 284 1301 q 339 1259 339 1275 l 339 1257 q 321 1236 339 1240 q 247 1288 262 1244 q 250 1343 232 1331 z "},"Á":{"ha":574,"x_min":0,"x_max":527,"o":"m 342 1200 q 378 1125 366 1200 q 444 795 415 979 l 472 800 q 494 771 492 800 q 452 745 494 749 q 527 33 527 224 q 498 8 521 8 q 474 33 474 13 q 399 736 474 239 q 187 722 326 728 q 49 12 121 479 q 22 0 38 0 q 0 22 0 6 q 132 718 67 488 l 118 716 q 90 741 96 716 q 146 771 90 771 q 289 1137 207 966 q 332 1200 319 1200 l 342 1200 m 330 1101 q 203 777 264 966 l 203 775 l 205 775 q 391 789 335 781 q 332 1101 362 974 l 330 1101 m 432 1352 q 441 1346 432 1352 q 435 1296 450 1339 q 361 1245 420 1253 q 342 1265 342 1249 l 342 1267 q 371 1292 342 1284 q 406 1337 397 1310 q 432 1352 414 1364 z "},"Â":{"ha":574,"x_min":0,"x_max":527,"o":"m 342 1200 q 378 1125 366 1200 q 444 795 415 979 l 472 800 q 494 771 492 800 q 452 745 494 749 q 527 33 527 224 q 498 8 521 8 q 474 33 474 13 q 399 736 474 239 q 187 722 326 728 q 49 12 121 479 q 22 0 38 0 q 0 22 0 6 q 132 718 67 488 l 118 716 q 90 741 96 716 q 146 771 90 771 q 289 1137 207 966 q 332 1200 319 1200 l 342 1200 m 330 1101 q 203 777 264 966 l 203 775 l 205 775 q 391 789 335 781 q 332 1101 362 974 l 330 1101 m 424 1172 l 336 1289 l 257 1196 q 233 1179 257 1184 q 208 1204 208 1185 l 208 1206 l 321 1339 q 337 1347 330 1347 l 345 1347 q 452 1196 374 1306 q 424 1172 446 1172 z "},"Ã":{"ha":574,"x_min":0,"x_max":527,"o":"m 342 1200 q 378 1125 366 1200 q 444 795 415 979 l 472 800 q 494 771 492 800 q 452 745 494 749 q 527 33 527 224 q 498 8 521 8 q 474 33 474 13 q 399 736 474 239 q 187 722 326 728 q 49 12 121 479 q 22 0 38 0 q 0 22 0 6 q 132 718 67 488 l 118 716 q 90 741 96 716 q 146 771 90 771 q 289 1137 207 966 q 332 1200 319 1200 l 342 1200 m 330 1101 q 203 777 264 966 l 203 775 l 205 775 q 391 789 335 781 q 332 1101 362 974 l 330 1101 m 264 1331 q 341 1289 298 1326 l 371 1282 l 386 1280 q 471 1299 429 1274 l 478 1300 l 481 1300 q 498 1276 498 1297 q 404 1235 494 1247 l 376 1238 l 368 1239 q 263 1288 325 1245 l 250 1290 q 168 1242 199 1297 l 151 1240 q 134 1263 132 1246 l 134 1266 q 264 1331 174 1345 z "},"Ä":{"ha":574,"x_min":0,"x_max":527,"o":"m 342 1200 q 378 1125 366 1200 q 444 795 415 979 l 472 800 q 494 771 492 800 q 452 745 494 749 q 527 33 527 224 q 498 8 521 8 q 474 33 474 13 q 399 736 474 239 q 187 722 326 728 q 49 12 121 479 q 22 0 38 0 q 0 22 0 6 q 132 718 67 488 l 118 716 q 90 741 96 716 q 146 771 90 771 q 289 1137 207 966 q 332 1200 319 1200 l 342 1200 m 330 1101 q 203 777 264 966 l 203 775 l 205 775 q 391 789 335 781 q 332 1101 362 974 l 330 1101 m 254 1327 q 293 1280 293 1312 l 293 1268 q 247 1234 293 1238 q 204 1284 216 1234 q 254 1327 204 1327 m 410 1322 q 450 1276 450 1307 l 450 1263 q 404 1229 450 1233 q 361 1279 373 1229 q 410 1322 361 1322 z "},"Å":{"ha":574,"x_min":0,"x_max":527,"o":"m 342 1200 q 378 1125 366 1200 q 444 795 415 979 l 472 800 q 494 771 492 800 q 452 745 494 749 q 527 33 527 224 q 498 8 521 8 q 474 33 474 13 q 399 736 474 239 q 187 722 326 728 q 49 12 121 479 q 22 0 38 0 q 0 22 0 6 q 132 718 67 488 l 118 716 q 90 741 96 716 q 146 771 90 771 q 289 1137 207 966 q 332 1200 319 1200 l 342 1200 m 330 1101 q 203 777 264 966 l 203 775 l 205 775 q 391 789 335 781 q 332 1101 362 974 l 330 1101 m 342 1342 l 354 1342 q 409 1295 409 1337 q 340 1220 409 1245 l 331 1220 q 281 1285 281 1228 l 281 1306 q 342 1342 281 1342 m 325 1298 l 325 1284 l 328 1265 q 366 1298 347 1265 l 325 1298 z "},"Æ":{"ha":885,"x_min":0,"x_max":873,"o":"m 342 1200 q 378 1125 366 1200 q 444 795 415 979 l 472 800 q 494 771 492 800 q 452 745 494 749 q 527 33 527 224 q 498 8 521 8 q 474 33 474 13 q 399 736 474 239 q 187 722 326 728 q 49 12 121 479 q 22 0 38 0 q 0 22 0 6 q 132 718 67 488 l 118 716 q 90 741 96 716 q 146 771 90 771 q 289 1137 207 966 q 332 1200 319 1200 l 342 1200 m 330 1101 q 203 777 264 966 l 203 775 l 205 775 q 391 789 335 781 q 332 1101 362 974 l 330 1101 m 794 1205 q 814 1183 810 1205 l 814 1177 q 764 1150 814 1150 q 637 1138 700 1138 l 631 1138 q 505 1146 578 1138 q 483 904 483 1044 l 485 798 q 491 788 488 788 l 560 788 q 678 796 600 788 q 699 774 699 789 l 699 768 q 644 741 699 741 q 550 735 612 735 l 509 735 l 489 737 q 532 206 532 332 l 532 204 l 534 180 l 532 155 l 532 147 q 528 56 532 92 l 548 56 q 849 68 622 56 q 873 39 869 68 q 825 15 873 15 q 528 3 634 3 l 497 3 q 473 27 473 7 q 481 180 481 116 q 438 733 481 298 q 426 760 438 739 l 426 770 q 434 784 426 781 l 430 908 q 463 1191 430 1068 l 481 1201 q 621 1191 574 1191 l 646 1191 q 794 1205 684 1191 z "},"Ç":{"ha":503,"x_min":-7,"x_max":465,"o":"m 220 1204 l 232 1204 q 332 1123 296 1204 q 342 1056 342 1091 q 313 1029 342 1033 q 289 1054 289 1034 l 289 1062 q 244 1149 289 1128 l 226 1154 q 83 926 134 1154 q 51 608 51 770 q 219 84 52 185 q 292 60 257 60 q 431 133 352 60 l 441 133 q 465 109 465 128 q 349 17 465 73 q 296 9 319 9 l 288 9 q 83 157 172 9 q 0 584 -7 331 l 0 633 q 77 1084 0 888 q 220 1204 138 1204 m 234 -146 q 199 -146 234 -146 q 134 -62 163 -147 q 169 -64 168 -45 q 209 -96 170 -83 q 249 -71 248 -109 q 239 -9 250 -32 q 269 36 233 31 q 283 -3 304 42 q 298 -74 290 -3 q 234 -146 305 -144 z "},"È":{"ha":475,"x_min":0,"x_max":448,"o":"m 368 1202 q 389 1180 385 1202 l 389 1174 q 338 1147 389 1147 q 212 1135 274 1135 l 205 1135 q 79 1143 152 1135 q 57 901 57 1041 l 59 795 q 65 785 62 785 l 134 785 q 252 793 174 785 q 273 771 273 786 l 273 765 q 218 739 273 739 q 124 732 186 732 l 83 732 l 63 734 q 106 203 106 330 l 106 201 l 108 177 l 106 153 l 106 144 q 102 53 106 89 l 122 53 q 423 65 196 53 q 448 37 443 65 q 399 12 448 12 q 102 0 208 0 l 71 0 q 47 24 47 5 q 55 177 55 113 q 12 730 55 295 q 0 757 12 736 l 0 767 q 8 781 0 778 l 4 905 q 37 1188 4 1065 l 55 1198 q 195 1188 149 1188 l 220 1188 q 368 1202 258 1188 m 129 1354 q 138 1360 129 1354 q 155 1339 147 1367 q 190 1294 163 1312 q 218 1270 218 1286 l 218 1267 q 200 1247 218 1251 q 126 1298 141 1255 q 129 1354 111 1341 z "},"É":{"ha":475,"x_min":0,"x_max":448,"o":"m 368 1202 q 389 1180 385 1202 l 389 1174 q 338 1147 389 1147 q 212 1135 274 1135 l 205 1135 q 79 1143 152 1135 q 57 901 57 1041 l 59 795 q 65 785 62 785 l 134 785 q 252 793 174 785 q 273 771 273 786 l 273 765 q 218 739 273 739 q 124 732 186 732 l 83 732 l 63 734 q 106 203 106 330 l 106 201 l 108 177 l 106 153 l 106 144 q 102 53 106 89 l 122 53 q 423 65 196 53 q 448 37 443 65 q 399 12 448 12 q 102 0 208 0 l 71 0 q 47 24 47 5 q 55 177 55 113 q 12 730 55 295 q 0 757 12 736 l 0 767 q 8 781 0 778 l 4 905 q 37 1188 4 1065 l 55 1198 q 195 1188 149 1188 l 220 1188 q 368 1202 258 1188 m 301 1347 q 310 1341 301 1347 q 304 1292 319 1335 q 231 1240 290 1249 q 212 1261 212 1244 l 212 1263 q 241 1287 212 1279 q 275 1332 267 1305 q 301 1347 283 1360 z "},"Ê":{"ha":475,"x_min":0,"x_max":448,"o":"m 368 1202 q 389 1180 385 1202 l 389 1174 q 338 1147 389 1147 q 212 1135 274 1135 l 205 1135 q 79 1143 152 1135 q 57 901 57 1041 l 59 795 q 65 785 62 785 l 134 785 q 252 793 174 785 q 273 771 273 786 l 273 765 q 218 739 273 739 q 124 732 186 732 l 83 732 l 63 734 q 106 203 106 330 l 106 201 l 108 177 l 106 153 l 106 144 q 102 53 106 89 l 122 53 q 423 65 196 53 q 448 37 443 65 q 399 12 448 12 q 102 0 208 0 l 71 0 q 47 24 47 5 q 55 177 55 113 q 12 730 55 295 q 0 757 12 736 l 0 767 q 8 781 0 778 l 4 905 q 37 1188 4 1065 l 55 1198 q 195 1188 149 1188 l 220 1188 q 368 1202 258 1188 m 267 1247 l 199 1316 l 151 1255 q 126 1238 151 1243 q 102 1263 102 1244 l 102 1265 l 184 1366 q 201 1374 193 1374 l 209 1374 q 295 1272 237 1333 q 267 1247 289 1247 z "},"Ë":{"ha":475,"x_min":0,"x_max":448,"o":"m 368 1202 q 389 1180 385 1202 l 389 1174 q 338 1147 389 1147 q 212 1135 274 1135 l 205 1135 q 79 1143 152 1135 q 57 901 57 1041 l 59 795 q 65 785 62 785 l 134 785 q 252 793 174 785 q 273 771 273 786 l 273 765 q 218 739 273 739 q 124 732 186 732 l 83 732 l 63 734 q 106 203 106 330 l 106 201 l 108 177 l 106 153 l 106 144 q 102 53 106 89 l 122 53 q 423 65 196 53 q 448 37 443 65 q 399 12 448 12 q 102 0 208 0 l 71 0 q 47 24 47 5 q 55 177 55 113 q 12 730 55 295 q 0 757 12 736 l 0 767 q 8 781 0 778 l 4 905 q 37 1188 4 1065 l 55 1198 q 195 1188 149 1188 l 220 1188 q 368 1202 258 1188 m 126 1326 q 165 1280 165 1311 l 165 1267 q 119 1233 165 1237 q 77 1283 89 1233 q 126 1326 77 1326 m 283 1322 q 322 1275 322 1306 l 322 1263 q 276 1228 322 1232 q 233 1278 245 1228 q 283 1322 233 1322 z "},"Ì":{"ha":309,"x_min":0,"x_max":267,"o":"m 126 1202 l 134 1202 q 171 1194 155 1194 l 240 1194 q 267 1172 267 1191 l 267 1166 q 236 1141 267 1141 l 161 1143 q 173 820 173 985 l 157 53 l 187 53 l 226 55 q 248 31 248 48 l 248 26 q 228 2 248 11 l 173 0 l 26 2 q 4 28 7 2 l 4 31 q 35 55 4 55 l 104 53 q 120 816 120 669 l 120 834 q 108 1143 120 1005 l 106 1143 l 18 1145 q 0 1168 0 1155 l 0 1174 q 22 1196 3 1196 l 112 1196 q 126 1202 119 1202 m 63 1361 q 72 1367 63 1361 q 90 1346 81 1373 q 124 1301 98 1318 q 153 1276 153 1293 l 153 1274 q 134 1254 153 1258 q 60 1305 75 1262 q 63 1361 45 1348 z "},"Í":{"ha":309,"x_min":0,"x_max":267,"o":"m 126 1202 l 134 1202 q 171 1194 155 1194 l 240 1194 q 267 1172 267 1191 l 267 1166 q 236 1141 267 1141 l 161 1143 q 173 820 173 985 l 157 53 l 187 53 l 226 55 q 248 31 248 48 l 248 26 q 228 2 248 11 l 173 0 l 26 2 q 4 28 7 2 l 4 31 q 35 55 4 55 l 104 53 q 120 816 120 669 l 120 834 q 108 1143 120 1005 l 106 1143 l 18 1145 q 0 1168 0 1155 l 0 1174 q 22 1196 3 1196 l 112 1196 q 126 1202 119 1202 m 209 1354 q 218 1348 209 1354 q 212 1298 227 1341 q 138 1247 197 1255 q 119 1267 119 1251 l 119 1270 q 148 1294 119 1286 q 182 1339 174 1312 q 209 1354 191 1367 z "},"Î":{"ha":309,"x_min":0,"x_max":267,"o":"m 126 1202 l 134 1202 q 171 1194 155 1194 l 240 1194 q 267 1172 267 1191 l 267 1166 q 236 1141 267 1141 l 161 1143 q 173 820 173 985 l 157 53 l 187 53 l 226 55 q 248 31 248 48 l 248 26 q 228 2 248 11 l 173 0 l 26 2 q 4 28 7 2 l 4 31 q 35 55 4 55 l 104 53 q 120 816 120 669 l 120 834 q 108 1143 120 1005 l 106 1143 l 18 1145 q 0 1168 0 1155 l 0 1174 q 22 1196 3 1196 l 112 1196 q 126 1202 119 1202 m 198 1247 l 131 1316 l 82 1255 q 58 1238 82 1243 q 33 1263 33 1244 l 33 1265 l 116 1366 q 132 1374 125 1374 l 140 1374 q 227 1272 169 1333 q 198 1247 220 1247 z "},"Ï":{"ha":309,"x_min":0,"x_max":267,"o":"m 126 1202 l 134 1202 q 171 1194 155 1194 l 240 1194 q 267 1172 267 1191 l 267 1166 q 236 1141 267 1141 l 161 1143 q 173 820 173 985 l 157 53 l 187 53 l 226 55 q 248 31 248 48 l 248 26 q 228 2 248 11 l 173 0 l 26 2 q 4 28 7 2 l 4 31 q 35 55 4 55 l 104 53 q 120 816 120 669 l 120 834 q 108 1143 120 1005 l 106 1143 l 18 1145 q 0 1168 0 1155 l 0 1174 q 22 1196 3 1196 l 112 1196 q 126 1202 119 1202 m 69 1340 q 109 1293 109 1324 l 109 1281 q 62 1246 109 1251 q 20 1297 32 1246 q 69 1340 20 1340 m 226 1335 q 265 1289 265 1320 l 265 1276 q 219 1242 265 1246 q 176 1292 189 1242 q 226 1335 176 1335 z "},"Ð":{"ha":676,"x_min":12,"x_max":595,"o":"m 113 1198 q 140 1174 131 1198 l 136 1147 q 280 1198 192 1198 l 296 1198 q 532 991 446 1198 q 595 580 595 820 l 595 578 q 445 79 595 253 q 296 8 376 8 q 158 59 233 8 l 156 59 l 156 31 q 130 0 152 0 q 103 24 103 6 l 73 732 l 71 844 l 71 881 q 99 1194 75 1194 l 113 1198 m 123 932 l 123 865 l 152 287 l 154 149 q 172 114 154 122 q 298 61 237 61 q 520 350 436 61 q 543 562 543 441 l 543 602 q 420 1082 543 920 q 284 1147 361 1147 q 144 1066 179 1147 q 123 932 123 1007 m 271 706 q 341 686 341 702 q 345 671 345 681 l 345 669 q 330 645 342 645 q 260 655 293 653 l 64 631 l 32 631 q 12 659 12 634 q 28 684 16 684 l 58 684 l 241 706 l 271 706 z "},"Ñ":{"ha":653,"x_min":0,"x_max":586,"o":"m 49 1202 l 55 1202 q 142 1099 82 1200 q 317 637 209 977 q 423 387 344 568 l 529 126 l 531 126 l 531 171 q 507 665 531 301 l 507 907 q 480 1135 507 1070 l 480 1137 q 505 1164 480 1155 q 547 1086 536 1164 q 559 881 559 1019 l 559 669 l 580 319 l 584 175 q 559 2 584 2 l 547 0 q 507 55 527 0 q 330 476 453 166 q 181 879 277 579 q 69 1115 118 1050 q 51 771 51 913 q 124 28 51 409 q 96 4 119 4 q 63 73 68 4 q 0 736 0 417 l 0 806 q 28 1190 0 1013 q 49 1202 38 1202 m 170 1381 q 395 1310 212 1375 l 431 1304 l 449 1302 q 553 1329 501 1295 l 561 1329 l 565 1329 q 586 1300 585 1326 q 473 1248 582 1265 l 439 1250 l 429 1251 q 209 1318 376 1257 l 170 1327 l 153 1329 q 56 1270 91 1337 l 35 1265 q 14 1293 11 1274 l 14 1297 q 170 1381 60 1394 z "},"Ò":{"ha":614,"x_min":0,"x_max":555,"o":"m 285 1213 q 505 999 424 1213 q 555 606 555 829 l 555 588 q 393 41 555 186 q 271 0 336 0 q 10 291 66 0 q 0 417 0 361 l 0 460 q 132 1025 0 735 q 224 1158 168 1091 l 224 1160 q 205 1182 210 1160 l 205 1186 q 242 1213 210 1213 l 285 1213 m 303 1158 q 258 1117 303 1154 q 98 777 157 1005 q 51 439 51 599 q 199 67 57 131 q 267 53 233 53 l 275 53 q 494 429 446 53 q 503 572 503 503 l 503 623 q 425 1052 503 892 q 303 1158 359 1158 m 129 1354 q 138 1360 129 1354 q 155 1339 147 1367 q 190 1294 163 1312 q 218 1270 218 1286 l 218 1267 q 200 1247 218 1251 q 126 1298 141 1255 q 129 1354 111 1341 z "},"Ó":{"ha":614,"x_min":0,"x_max":555,"o":"m 285 1213 q 505 999 424 1213 q 555 606 555 829 l 555 588 q 393 41 555 186 q 271 0 336 0 q 10 291 66 0 q 0 417 0 361 l 0 460 q 132 1025 0 735 q 224 1158 168 1091 l 224 1160 q 205 1182 210 1160 l 205 1186 q 242 1213 210 1213 l 285 1213 m 303 1158 q 258 1117 303 1154 q 98 777 157 1005 q 51 439 51 599 q 199 67 57 131 q 267 53 233 53 l 275 53 q 494 429 446 53 q 503 572 503 503 l 503 623 q 425 1052 503 892 q 303 1158 359 1158 m 407 1365 q 416 1359 407 1365 q 410 1309 425 1352 q 336 1258 395 1266 q 317 1278 317 1262 l 317 1280 q 346 1305 317 1297 q 380 1350 372 1322 q 407 1365 389 1377 z "},"Ô":{"ha":614,"x_min":0,"x_max":555,"o":"m 285 1213 q 505 999 424 1213 q 555 606 555 829 l 555 588 q 393 41 555 186 q 271 0 336 0 q 10 291 66 0 q 0 417 0 361 l 0 460 q 132 1025 0 735 q 224 1158 168 1091 l 224 1160 q 205 1182 210 1160 l 205 1186 q 242 1213 210 1213 l 285 1213 m 303 1158 q 258 1117 303 1154 q 98 777 157 1005 q 51 439 51 599 q 199 67 57 131 q 267 53 233 53 l 275 53 q 494 429 446 53 q 503 572 503 503 l 503 623 q 425 1052 503 892 q 303 1158 359 1158 m 382 1280 l 315 1349 l 267 1288 q 242 1272 267 1276 q 218 1296 218 1277 l 218 1298 l 300 1399 q 317 1407 309 1407 l 325 1407 q 411 1305 353 1367 q 382 1280 405 1280 z "},"Õ":{"ha":614,"x_min":0,"x_max":555,"o":"m 285 1213 q 505 999 424 1213 q 555 606 555 829 l 555 588 q 393 41 555 186 q 271 0 336 0 q 10 291 66 0 q 0 417 0 361 l 0 460 q 132 1025 0 735 q 224 1158 168 1091 l 224 1160 q 205 1182 210 1160 l 205 1186 q 242 1213 210 1213 l 285 1213 m 303 1158 q 258 1117 303 1154 q 98 777 157 1005 q 51 439 51 599 q 199 67 57 131 q 267 53 233 53 l 275 53 q 494 429 446 53 q 503 572 503 503 l 503 623 q 425 1052 503 892 q 303 1158 359 1158 m 264 1331 q 341 1289 298 1326 l 371 1282 l 386 1280 q 471 1299 429 1274 l 478 1300 l 481 1300 q 498 1276 498 1297 q 404 1235 494 1247 l 376 1238 l 368 1239 q 263 1288 325 1245 l 250 1290 q 168 1242 199 1297 l 151 1240 q 134 1263 132 1246 l 134 1266 q 264 1331 174 1345 z "},"Ö":{"ha":614,"x_min":0,"x_max":555,"o":"m 285 1213 q 505 999 424 1213 q 555 606 555 829 l 555 588 q 393 41 555 186 q 271 0 336 0 q 10 291 66 0 q 0 417 0 361 l 0 460 q 132 1025 0 735 q 224 1158 168 1091 l 224 1160 q 205 1182 210 1160 l 205 1186 q 242 1213 210 1213 l 285 1213 m 303 1158 q 258 1117 303 1154 q 98 777 157 1005 q 51 439 51 599 q 199 67 57 131 q 267 53 233 53 l 275 53 q 494 429 446 53 q 503 572 503 503 l 503 623 q 425 1052 503 892 q 303 1158 359 1158 m 222 1352 q 261 1305 261 1336 l 261 1293 q 215 1258 261 1262 q 172 1308 184 1258 q 222 1352 172 1352 m 378 1347 q 418 1300 418 1331 l 418 1288 q 372 1253 418 1257 q 329 1303 341 1253 q 378 1347 329 1347 z "},"×":{"ha":426,"x_min":0,"x_max":366,"o":"m 22 633 l 31 633 q 55 600 50 633 q 183 378 113 487 q 289 616 271 586 q 309 625 300 625 q 334 600 334 619 l 334 596 l 216 323 q 352 115 266 212 q 366 92 366 104 l 366 88 q 340 64 366 68 q 232 180 310 70 l 187 267 q 85 69 139 158 q 63 59 74 59 q 39 87 39 66 l 114 230 l 155 321 q 0 608 0 573 q 22 633 5 633 z "},"Ø":{"ha":614,"x_min":0,"x_max":555,"o":"m 285 1213 q 505 999 424 1213 q 555 606 555 829 l 555 588 q 393 41 555 186 q 271 0 336 0 q 10 291 66 0 q 0 417 0 361 l 0 460 q 132 1025 0 735 q 224 1158 168 1091 l 224 1160 q 205 1182 210 1160 l 205 1186 q 242 1213 210 1213 l 285 1213 m 303 1158 q 258 1117 303 1154 q 98 777 157 1005 q 51 439 51 599 q 199 67 57 131 q 267 53 233 53 l 275 53 q 494 429 446 53 q 503 572 503 503 l 503 623 q 425 1052 503 892 q 303 1158 359 1158 m 450 1178 l 467 1183 q 481 1158 486 1177 l 185 20 q 154 -18 176 -22 l 133 -7 l 450 1178 z "},"Ù":{"ha":543,"x_min":0,"x_max":543,"o":"m 75 1192 l 81 1192 q 104 1170 98 1192 q 51 566 51 734 q 218 65 51 203 q 254 51 239 51 q 378 273 320 51 q 415 588 415 450 l 405 1123 l 403 1133 q 431 1160 403 1154 q 458 1105 458 1160 q 468 590 462 732 l 458 409 q 543 43 458 183 l 543 37 q 515 12 537 12 q 431 179 479 12 l 421 226 l 419 226 q 368 87 419 200 q 260 0 316 0 l 246 0 q 51 218 153 0 q 0 541 0 353 l 0 590 q 53 1176 0 764 q 75 1192 62 1192 m 129 1354 q 138 1360 129 1354 q 155 1339 147 1367 q 190 1294 163 1312 q 218 1270 218 1286 l 218 1267 q 200 1247 218 1251 q 126 1298 141 1255 q 129 1354 111 1341 z "},"Ú":{"ha":543,"x_min":0,"x_max":543,"o":"m 75 1192 l 81 1192 q 104 1170 98 1192 q 51 566 51 734 q 218 65 51 203 q 254 51 239 51 q 378 273 320 51 q 415 588 415 450 l 405 1123 l 403 1133 q 431 1160 403 1154 q 458 1105 458 1160 q 468 590 462 732 l 458 409 q 543 43 458 183 l 543 37 q 515 12 537 12 q 431 179 479 12 l 421 226 l 419 226 q 368 87 419 200 q 260 0 316 0 l 246 0 q 51 218 153 0 q 0 541 0 353 l 0 590 q 53 1176 0 764 q 75 1192 62 1192 m 436 1372 q 445 1366 436 1372 q 439 1317 454 1360 q 366 1265 425 1274 q 347 1286 347 1270 l 347 1288 q 376 1312 347 1304 q 410 1357 402 1330 q 436 1372 418 1385 z "},"Û":{"ha":543,"x_min":0,"x_max":543,"o":"m 75 1192 l 81 1192 q 104 1170 98 1192 q 51 566 51 734 q 218 65 51 203 q 254 51 239 51 q 378 273 320 51 q 415 588 415 450 l 405 1123 l 403 1133 q 431 1160 403 1154 q 458 1105 458 1160 q 468 590 462 732 l 458 409 q 543 43 458 183 l 543 37 q 515 12 537 12 q 431 179 479 12 l 421 226 l 419 226 q 368 87 419 200 q 260 0 316 0 l 246 0 q 51 218 153 0 q 0 541 0 353 l 0 590 q 53 1176 0 764 q 75 1192 62 1192 m 323 1256 l 256 1324 l 207 1263 q 182 1247 207 1252 q 158 1272 158 1253 l 158 1274 l 241 1375 q 257 1383 250 1383 l 265 1383 q 351 1280 294 1342 q 323 1256 345 1256 z "},"Ü":{"ha":543,"x_min":0,"x_max":543,"o":"m 75 1192 l 81 1192 q 104 1170 98 1192 q 51 566 51 734 q 218 65 51 203 q 254 51 239 51 q 378 273 320 51 q 415 588 415 450 l 405 1123 l 403 1133 q 431 1160 403 1154 q 458 1105 458 1160 q 468 590 462 732 l 458 409 q 543 43 458 183 l 543 37 q 515 12 537 12 q 431 179 479 12 l 421 226 l 419 226 q 368 87 419 200 q 260 0 316 0 l 246 0 q 51 218 153 0 q 0 541 0 353 l 0 590 q 53 1176 0 764 q 75 1192 62 1192 m 213 1335 q 252 1289 252 1320 l 252 1276 q 206 1242 252 1246 q 163 1292 176 1242 q 213 1335 163 1335 m 370 1331 q 409 1284 409 1315 l 409 1272 q 363 1237 409 1241 q 320 1287 332 1237 q 370 1331 320 1331 z "},"Ý":{"ha":407,"x_min":0,"x_max":423,"o":"m 395 1200 l 401 1200 q 423 1178 423 1197 l 423 1174 q 297 812 423 1094 q 254 657 254 716 q 236 311 240 468 q 258 24 236 132 q 236 1 252 1 l 232 1 q 199 52 205 1 q 183 315 183 173 q 208 710 187 498 l 210 710 q 26 1054 26 1023 q 0 1147 0 1123 l 0 1162 q 22 1182 0 1177 q 55 1135 49 1182 q 230 783 70 1042 l 334 1036 q 374 1186 358 1096 q 395 1200 383 1200 m 371 1365 q 380 1359 371 1365 q 374 1310 389 1353 q 300 1259 359 1267 q 281 1279 281 1263 l 281 1281 q 310 1305 281 1297 q 345 1351 336 1323 q 371 1365 353 1378 z "},"Þ":{"ha":471,"x_min":109,"x_max":452,"o":"m 109 1197 l 140 1217 q 160 1197 160 1217 l 152 21 q 131 -24 154 -22 l 109 -19 l 109 1197 m 212 972 q 355 852 294 972 q 379 451 452 570 q 189 332 305 332 l 180 332 q 127 340 158 332 q 120 376 116 368 q 184 383 125 383 q 258 408 220 383 q 351 730 412 481 q 206 922 298 922 l 188 918 q 139 935 143 897 q 200 972 136 972 l 212 972 z "},"ß":{"ha":603,"x_min":36,"x_max":576,"o":"m 362 -18 q 232 -20 298 -29 q 162 26 166 -11 q 188 43 159 43 q 247 32 217 42 q 351 33 277 21 l 393 47 q 474 172 485 108 l 472 186 q 447 225 469 201 q 277 277 391 269 q 203 297 208 271 q 227 330 199 325 l 231 331 q 355 372 300 342 q 488 721 528 484 q 363 1009 460 885 q 183 1117 260 1131 l 169 1115 q 76 1083 92 1101 q 162 1167 36 1145 l 168 1168 q 332 1116 244 1181 q 539 736 500 964 q 456 386 576 522 q 363 318 402 334 l 363 316 q 525 191 509 283 l 526 181 q 500 77 534 134 q 362 -18 443 -5 m 64 1107 l 78 1128 q 100 1120 115 1151 l 85 -88 q 64 -133 87 -131 l 42 -128 l 64 1107 z "},"à":{"ha":574,"x_min":0,"x_max":527,"o":"m 330 1082 q 366 1006 353 1082 q 431 677 403 861 l 460 681 q 482 652 479 681 q 439 626 482 630 q 527 33 527 224 q 498 8 521 8 q 474 33 474 13 q 387 618 474 239 q 175 604 314 610 q 49 12 111 258 q 22 0 38 0 q 0 22 0 6 q 120 600 57 267 l 106 597 q 77 622 83 597 q 134 652 77 652 q 277 1019 195 848 q 319 1082 307 1082 l 330 1082 m 317 982 q 191 659 252 848 l 191 656 l 193 656 q 378 671 323 663 q 319 982 350 855 l 317 982 m 232 1237 q 241 1244 232 1237 q 258 1222 250 1250 q 292 1177 266 1195 q 321 1153 321 1169 l 321 1151 q 302 1131 321 1135 q 229 1182 243 1139 q 232 1237 214 1225 z "},"á":{"ha":574,"x_min":0,"x_max":527,"o":"m 330 1082 q 366 1006 353 1082 q 431 677 403 861 l 460 681 q 482 652 479 681 q 439 626 482 630 q 527 33 527 224 q 498 8 521 8 q 474 33 474 13 q 387 618 474 239 q 175 604 314 610 q 49 12 111 258 q 22 0 38 0 q 0 22 0 6 q 120 600 57 267 l 106 597 q 77 622 83 597 q 134 652 77 652 q 277 1019 195 848 q 319 1082 307 1082 l 330 1082 m 317 982 q 191 659 252 848 l 191 656 l 193 656 q 378 671 323 663 q 319 982 350 855 l 317 982 m 390 1250 q 399 1244 390 1250 q 393 1195 408 1238 q 319 1143 378 1152 q 300 1164 300 1147 l 300 1166 q 329 1190 300 1182 q 363 1235 355 1208 q 390 1250 372 1263 z "},"â":{"ha":574,"x_min":0,"x_max":527,"o":"m 330 1082 q 366 1006 353 1082 q 431 677 403 861 l 460 681 q 482 652 479 681 q 439 626 482 630 q 527 33 527 224 q 498 8 521 8 q 474 33 474 13 q 387 618 474 239 q 175 604 314 610 q 49 12 111 258 q 22 0 38 0 q 0 22 0 6 q 120 600 57 267 l 106 597 q 77 622 83 597 q 134 652 77 652 q 277 1019 195 848 q 319 1082 307 1082 l 330 1082 m 317 982 q 191 659 252 848 l 191 656 l 193 656 q 378 671 323 663 q 319 982 350 855 l 317 982 m 406 1091 l 317 1208 l 239 1115 q 214 1099 239 1103 q 190 1123 190 1104 l 190 1125 l 302 1258 q 319 1266 311 1266 l 327 1266 q 434 1116 355 1225 q 406 1091 428 1091 z "},"ã":{"ha":574,"x_min":0,"x_max":527,"o":"m 330 1082 q 366 1006 353 1082 q 431 677 403 861 l 460 681 q 482 652 479 681 q 439 626 482 630 q 527 33 527 224 q 498 8 521 8 q 474 33 474 13 q 387 618 474 239 q 175 604 314 610 q 49 12 111 258 q 22 0 38 0 q 0 22 0 6 q 120 600 57 267 l 106 597 q 77 622 83 597 q 134 652 77 652 q 277 1019 195 848 q 319 1082 307 1082 l 330 1082 m 317 982 q 191 659 252 848 l 191 656 l 193 656 q 378 671 323 663 q 319 982 350 855 l 317 982 m 252 1214 q 328 1171 286 1209 l 358 1165 l 373 1163 q 458 1182 416 1156 l 465 1183 l 469 1183 q 486 1158 486 1180 q 391 1118 481 1130 l 363 1120 l 355 1122 q 250 1171 312 1128 l 237 1173 q 155 1125 186 1180 l 138 1122 q 121 1145 119 1129 l 121 1149 q 252 1214 161 1227 z "},"ä":{"ha":574,"x_min":0,"x_max":527,"o":"m 330 1082 q 366 1006 353 1082 q 431 677 403 861 l 460 681 q 482 652 479 681 q 439 626 482 630 q 527 33 527 224 q 498 8 521 8 q 474 33 474 13 q 387 618 474 239 q 175 604 314 610 q 49 12 111 258 q 22 0 38 0 q 0 22 0 6 q 120 600 57 267 l 106 597 q 77 622 83 597 q 134 652 77 652 q 277 1019 195 848 q 319 1082 307 1082 l 330 1082 m 317 982 q 191 659 252 848 l 191 656 l 193 656 q 378 671 323 663 q 319 982 350 855 l 317 982 m 228 1226 q 267 1179 267 1211 l 267 1167 q 221 1133 267 1137 q 178 1183 191 1133 q 228 1226 178 1226 m 385 1221 q 424 1175 424 1206 l 424 1162 q 378 1128 424 1132 q 335 1178 347 1128 q 385 1221 335 1221 z "},"å":{"ha":574,"x_min":0,"x_max":527,"o":"m 330 1082 q 366 1006 353 1082 q 431 677 403 861 l 460 681 q 482 652 479 681 q 439 626 482 630 q 527 33 527 224 q 498 8 521 8 q 474 33 474 13 q 387 618 474 239 q 175 604 314 610 q 49 12 111 258 q 22 0 38 0 q 0 22 0 6 q 120 600 57 267 l 106 597 q 77 622 83 597 q 134 652 77 652 q 277 1019 195 848 q 319 1082 307 1082 l 330 1082 m 317 982 q 191 659 252 848 l 191 656 l 193 656 q 378 671 323 663 q 319 982 350 855 l 317 982 m 328 1245 l 340 1245 q 395 1198 395 1240 q 326 1123 395 1148 l 317 1123 q 267 1188 267 1131 l 267 1209 q 328 1245 267 1245 m 311 1201 l 311 1187 l 313 1168 q 352 1201 332 1168 l 311 1201 z "},"æ":{"ha":894,"x_min":0,"x_max":863,"o":"m 330 1082 q 366 1006 353 1082 q 431 677 403 861 l 460 681 q 482 652 479 681 q 439 626 482 630 q 527 33 527 224 q 498 8 521 8 q 474 33 474 13 q 387 618 474 239 q 175 604 314 610 q 49 12 111 258 q 22 0 38 0 q 0 22 0 6 q 120 600 57 267 l 106 597 q 77 622 83 597 q 134 652 77 652 q 277 1019 195 848 q 319 1082 307 1082 l 330 1082 m 317 982 q 191 659 252 848 l 191 656 l 193 656 q 378 671 323 663 q 319 982 350 855 l 317 982 m 785 1053 q 806 1030 802 1053 l 806 1024 q 755 998 806 998 q 629 985 691 985 l 623 985 q 496 994 569 985 q 476 801 474 891 l 478 695 q 484 685 481 685 l 553 685 q 671 693 593 685 q 692 671 692 686 l 692 665 q 637 638 692 638 q 543 632 605 632 l 503 632 l 482 634 q 522 180 522 306 l 522 178 l 524 153 l 522 129 l 522 121 q 517 29 522 65 l 538 29 q 839 41 612 29 q 863 13 859 41 q 814 -12 863 -12 q 517 -24 624 -24 l 487 -24 q 463 1 463 -19 q 471 153 471 90 q 431 630 471 271 q 419 656 431 636 l 419 667 q 427 681 419 677 l 423 805 q 454 1038 421 916 l 472 1048 q 612 1038 566 1038 l 637 1038 q 785 1053 675 1038 z "},"ç":{"ha":503,"x_min":-7,"x_max":465,"o":"m 227 1085 l 239 1085 q 338 1004 303 1085 q 349 937 349 972 q 320 910 349 913 q 296 935 296 915 l 296 943 q 251 1030 296 1009 l 233 1034 q 90 806 140 1034 q 58 489 58 651 q 219 84 52 185 q 292 60 257 60 q 431 133 352 60 l 441 133 q 465 109 465 128 q 349 17 465 73 q 296 9 319 9 l 288 9 q 83 157 172 9 q 7 465 -7 331 l 7 513 q 84 965 7 769 q 227 1085 145 1085 m 234 -146 q 199 -146 234 -146 q 134 -62 163 -147 q 169 -64 168 -45 q 209 -96 170 -83 q 249 -71 248 -109 q 239 -9 250 -32 q 269 36 233 31 q 283 -3 304 42 q 298 -74 290 -3 q 234 -146 305 -144 z "},"è":{"ha":496,"x_min":25,"x_max":469,"o":"m 391 1076 q 412 1054 408 1076 l 412 1048 q 361 1021 412 1021 q 235 1009 297 1009 l 229 1009 q 102 1017 175 1009 q 82 825 80 915 l 84 719 q 90 709 87 709 l 159 709 q 277 717 199 709 q 298 694 298 709 l 298 688 q 243 662 298 662 q 149 656 211 656 l 109 656 l 88 658 q 127 203 127 330 l 127 201 l 130 177 l 127 153 l 127 144 q 123 53 127 89 l 144 53 q 445 65 218 53 q 469 37 465 65 q 420 12 469 12 q 123 0 230 0 l 93 0 q 68 24 68 5 q 77 177 77 113 q 37 654 77 295 q 25 680 37 660 l 25 690 q 33 705 25 701 l 29 829 q 60 1062 27 939 l 78 1072 q 218 1062 172 1062 l 243 1062 q 391 1076 281 1062 m 149 1217 q 158 1223 149 1217 q 175 1202 167 1230 q 210 1157 183 1175 q 238 1133 238 1149 l 238 1131 q 220 1110 238 1114 q 146 1161 161 1118 q 149 1217 131 1204 z "},"é":{"ha":496,"x_min":25,"x_max":469,"o":"m 391 1076 q 412 1054 408 1076 l 412 1048 q 361 1021 412 1021 q 235 1009 297 1009 l 229 1009 q 102 1017 175 1009 q 82 825 80 915 l 84 719 q 90 709 87 709 l 159 709 q 277 717 199 709 q 298 694 298 709 l 298 688 q 243 662 298 662 q 149 656 211 656 l 109 656 l 88 658 q 127 203 127 330 l 127 201 l 130 177 l 127 153 l 127 144 q 123 53 127 89 l 144 53 q 445 65 218 53 q 469 37 465 65 q 420 12 469 12 q 123 0 230 0 l 93 0 q 68 24 68 5 q 77 177 77 113 q 37 654 77 295 q 25 680 37 660 l 25 690 q 33 705 25 701 l 29 829 q 60 1062 27 939 l 78 1072 q 218 1062 172 1062 l 243 1062 q 391 1076 281 1062 m 314 1210 q 323 1203 314 1210 q 317 1154 332 1197 q 243 1103 302 1111 q 225 1123 225 1107 l 225 1125 q 254 1149 225 1141 q 288 1195 280 1167 q 314 1210 296 1222 z "},"ê":{"ha":496,"x_min":25,"x_max":469,"o":"m 391 1076 q 412 1054 408 1076 l 412 1048 q 361 1021 412 1021 q 235 1009 297 1009 l 229 1009 q 102 1017 175 1009 q 82 825 80 915 l 84 719 q 90 709 87 709 l 159 709 q 277 717 199 709 q 298 694 298 709 l 298 688 q 243 662 298 662 q 149 656 211 656 l 109 656 l 88 658 q 127 203 127 330 l 127 201 l 130 177 l 127 153 l 127 144 q 123 53 127 89 l 144 53 q 445 65 218 53 q 469 37 465 65 q 420 12 469 12 q 123 0 230 0 l 93 0 q 68 24 68 5 q 77 177 77 113 q 37 654 77 295 q 25 680 37 660 l 25 690 q 33 705 25 701 l 29 829 q 60 1062 27 939 l 78 1072 q 218 1062 172 1062 l 243 1062 q 391 1076 281 1062 m 273 1103 l 216 1169 l 180 1116 q 155 1100 180 1105 q 131 1124 131 1105 l 131 1126 l 201 1219 q 217 1227 210 1227 l 225 1227 q 301 1128 254 1187 q 273 1103 295 1103 z "},"ë":{"ha":496,"x_min":25,"x_max":469,"o":"m 391 1076 q 412 1054 408 1076 l 412 1048 q 361 1021 412 1021 q 235 1009 297 1009 l 229 1009 q 102 1017 175 1009 q 82 825 80 915 l 84 719 q 90 709 87 709 l 159 709 q 277 717 199 709 q 298 694 298 709 l 298 688 q 243 662 298 662 q 149 656 211 656 l 109 656 l 88 658 q 127 203 127 330 l 127 201 l 130 177 l 127 153 l 127 144 q 123 53 127 89 l 144 53 q 445 65 218 53 q 469 37 465 65 q 420 12 469 12 q 123 0 230 0 l 93 0 q 68 24 68 5 q 77 177 77 113 q 37 654 77 295 q 25 680 37 660 l 25 690 q 33 705 25 701 l 29 829 q 60 1062 27 939 l 78 1072 q 218 1062 172 1062 l 243 1062 q 391 1076 281 1062 m 163 1230 q 203 1183 203 1214 l 203 1171 q 157 1136 203 1140 q 114 1186 126 1136 q 163 1230 114 1230 m 320 1225 q 359 1178 359 1209 l 359 1166 q 313 1131 359 1135 q 271 1181 283 1131 q 320 1225 271 1225 z "},"ì":{"ha":309,"x_min":0,"x_max":267,"o":"m 171 1061 l 240 1061 q 267 1038 267 1057 l 267 1032 q 236 1008 267 1008 l 161 1010 q 173 686 173 851 l 157 53 l 187 53 l 226 55 q 248 31 248 48 l 248 26 q 228 2 248 11 l 173 0 l 26 2 q 4 28 7 2 l 4 31 q 35 55 4 55 l 104 53 q 120 682 120 535 l 120 701 q 108 1010 120 871 l 106 1010 l 18 1012 q 0 1034 0 1021 l 0 1040 q 22 1063 3 1063 l 171 1061 m 56 1220 q 65 1227 56 1220 q 82 1205 74 1233 q 117 1160 90 1178 q 145 1136 145 1152 l 145 1134 q 127 1114 145 1118 q 53 1165 68 1122 q 56 1220 38 1208 z "},"í":{"ha":309,"x_min":0,"x_max":267,"o":"m 171 1061 l 240 1061 q 267 1038 267 1057 l 267 1032 q 236 1008 267 1008 l 161 1010 q 173 686 173 851 l 157 53 l 187 53 l 226 55 q 248 31 248 48 l 248 26 q 228 2 248 11 l 173 0 l 26 2 q 4 28 7 2 l 4 31 q 35 55 4 55 l 104 53 q 120 682 120 535 l 120 701 q 108 1010 120 871 l 106 1010 l 18 1012 q 0 1034 0 1021 l 0 1040 q 22 1063 3 1063 l 171 1061 m 203 1202 q 212 1196 203 1202 q 206 1146 221 1190 q 132 1095 191 1103 q 114 1116 114 1099 l 114 1118 q 142 1142 114 1134 q 177 1187 169 1160 q 203 1202 185 1215 z "},"î":{"ha":309,"x_min":0,"x_max":267,"o":"m 171 1061 l 240 1061 q 267 1038 267 1057 l 267 1032 q 236 1008 267 1008 l 161 1010 q 173 686 173 851 l 157 53 l 187 53 l 226 55 q 248 31 248 48 l 248 26 q 228 2 248 11 l 173 0 l 26 2 q 4 28 7 2 l 4 31 q 35 55 4 55 l 104 53 q 120 682 120 535 l 120 701 q 108 1010 120 871 l 106 1010 l 18 1012 q 0 1034 0 1021 l 0 1040 q 22 1063 3 1063 l 171 1061 m 183 1105 l 126 1171 l 90 1118 q 66 1102 90 1107 q 41 1126 41 1107 l 41 1128 l 111 1221 q 127 1230 120 1230 l 136 1230 q 212 1130 164 1189 q 183 1105 205 1105 z "},"ï":{"ha":309,"x_min":0,"x_max":267,"o":"m 171 1061 l 240 1061 q 267 1038 267 1057 l 267 1032 q 236 1008 267 1008 l 161 1010 q 173 686 173 851 l 157 53 l 187 53 l 226 55 q 248 31 248 48 l 248 26 q 228 2 248 11 l 173 0 l 26 2 q 4 28 7 2 l 4 31 q 35 55 4 55 l 104 53 q 120 682 120 535 l 120 701 q 108 1010 120 871 l 106 1010 l 18 1012 q 0 1034 0 1021 l 0 1040 q 22 1063 3 1063 l 171 1061 m 62 1216 q 101 1169 101 1200 l 101 1157 q 55 1122 101 1126 q 12 1173 24 1122 q 62 1216 12 1216 m 218 1211 q 258 1164 258 1196 l 258 1152 q 212 1118 258 1122 q 169 1168 181 1118 q 218 1211 169 1211 z "},"ð":{"ha":614,"x_min":0,"x_max":555,"o":"m 285 1095 q 505 882 424 1095 q 544 439 555 711 q 451 85 532 166 q 271 0 369 4 q 10 291 66 0 q 17 541 0 361 q 132 908 35 720 q 224 1040 168 974 l 224 1042 q 205 1065 210 1042 l 205 1069 q 242 1095 210 1095 l 285 1095 m 303 1040 q 258 1000 303 1037 q 103 718 157 888 q 53 339 49 547 q 199 67 57 131 q 267 53 233 53 l 275 53 q 465 216 428 47 q 503 580 503 385 q 425 935 503 775 q 303 1040 359 1040 m 429 977 q 412 1184 457 1134 q 316 1229 367 1235 q 241 1173 265 1222 l 229 1173 q 207 1196 212 1173 l 207 1202 q 234 1246 207 1217 q 343 1278 261 1275 q 466 1194 426 1282 q 481 967 505 1107 l 481 963 l 479 928 q 492 902 492 918 q 463 878 486 878 l 457 878 l 429 977 m 466 1162 q 547 1160 547 1177 q 553 1146 553 1156 l 553 1144 q 530 1120 547 1120 q 450 1112 499 1109 l 385 1103 l 336 1103 q 306 1131 306 1106 q 330 1156 313 1156 l 377 1156 l 421 1162 l 466 1162 z "},"ñ":{"ha":699,"x_min":54,"x_max":633,"o":"m 102 1095 l 109 1095 q 196 991 136 1093 q 575 126 262 869 l 577 126 l 577 171 q 560 557 585 193 l 560 800 q 534 1027 560 962 l 534 1029 q 558 1056 534 1047 q 601 979 590 1056 q 613 773 613 911 l 613 562 l 633 212 l 630 175 q 606 2 630 2 l 593 0 q 553 55 573 0 q 235 771 499 166 q 123 1007 172 943 q 104 663 104 806 q 170 28 104 301 q 142 4 165 4 q 109 73 115 4 q 54 629 54 309 l 54 698 q 82 1082 54 905 q 102 1095 92 1095 m 292 1243 q 369 1200 326 1238 l 399 1194 l 414 1192 q 499 1211 456 1185 l 506 1212 l 509 1212 q 526 1187 526 1209 q 432 1147 522 1159 l 404 1149 l 395 1151 q 291 1200 353 1157 l 277 1202 q 196 1154 227 1209 l 178 1152 q 162 1175 159 1158 l 162 1178 q 292 1243 202 1257 z "},"ò":{"ha":614,"x_min":0,"x_max":555,"o":"m 285 1095 q 505 882 424 1095 q 544 439 555 711 q 451 85 532 166 q 271 0 369 4 q 10 291 66 0 q 17 541 0 361 q 132 908 35 720 q 224 1040 168 974 l 224 1042 q 205 1065 210 1042 l 205 1069 q 242 1095 210 1095 l 285 1095 m 303 1040 q 258 1000 303 1037 q 103 718 157 888 q 53 339 49 547 q 199 67 57 131 q 267 53 233 53 l 275 53 q 465 216 428 47 q 503 580 503 385 q 425 935 503 775 q 303 1040 359 1040 m 217 1242 q 226 1248 217 1242 q 243 1227 235 1255 q 277 1182 251 1200 q 306 1158 306 1174 l 306 1156 q 288 1135 306 1139 q 214 1186 229 1143 q 217 1242 199 1230 z "},"ó":{"ha":614,"x_min":0,"x_max":555,"o":"m 285 1095 q 505 882 424 1095 q 544 439 555 711 q 451 85 532 166 q 271 0 369 4 q 10 291 66 0 q 17 541 0 361 q 132 908 35 720 q 224 1040 168 974 l 224 1042 q 205 1065 210 1042 l 205 1069 q 242 1095 210 1095 l 285 1095 m 303 1040 q 258 1000 303 1037 q 103 718 157 888 q 53 339 49 547 q 199 67 57 131 q 267 53 233 53 l 275 53 q 465 216 428 47 q 503 580 503 385 q 425 935 503 775 q 303 1040 359 1040 m 384 1261 q 393 1255 384 1261 q 387 1205 402 1249 q 313 1154 372 1162 q 295 1175 295 1158 l 295 1177 q 323 1201 295 1193 q 358 1246 350 1219 q 384 1261 366 1274 z "},"ô":{"ha":614,"x_min":0,"x_max":555,"o":"m 285 1095 q 505 882 424 1095 q 544 439 555 711 q 451 85 532 166 q 271 0 369 4 q 10 291 66 0 q 17 541 0 361 q 132 908 35 720 q 224 1040 168 974 l 224 1042 q 205 1065 210 1042 l 205 1069 q 242 1095 210 1095 l 285 1095 m 303 1040 q 258 1000 303 1037 q 103 718 157 888 q 53 339 49 547 q 199 67 57 131 q 267 53 233 53 l 275 53 q 465 216 428 47 q 503 580 503 385 q 425 935 503 775 q 303 1040 359 1040 m 364 1142 l 307 1208 l 271 1155 q 247 1139 271 1143 q 222 1163 222 1144 l 222 1165 l 292 1258 q 309 1266 301 1266 l 317 1266 q 393 1166 345 1225 q 364 1142 387 1142 z "},"õ":{"ha":614,"x_min":0,"x_max":555,"o":"m 285 1095 q 505 882 424 1095 q 544 439 555 711 q 451 85 532 166 q 271 0 369 4 q 10 291 66 0 q 17 541 0 361 q 132 908 35 720 q 224 1040 168 974 l 224 1042 q 205 1065 210 1042 l 205 1069 q 242 1095 210 1095 l 285 1095 m 303 1040 q 258 1000 303 1037 q 103 718 157 888 q 53 339 49 547 q 199 67 57 131 q 267 53 233 53 l 275 53 q 465 216 428 47 q 503 580 503 385 q 425 935 503 775 q 303 1040 359 1040 m 242 1249 q 319 1206 276 1244 l 349 1200 l 363 1198 q 449 1217 406 1192 l 456 1218 l 459 1218 q 476 1194 476 1215 q 382 1153 472 1165 l 353 1156 l 345 1157 q 241 1206 302 1163 l 227 1208 q 146 1160 176 1215 l 128 1158 q 112 1181 109 1164 l 112 1184 q 242 1249 152 1263 z "},"ö":{"ha":614,"x_min":0,"x_max":555,"o":"m 285 1095 q 505 882 424 1095 q 544 439 555 711 q 451 85 532 166 q 271 0 369 4 q 10 291 66 0 q 17 541 0 361 q 132 908 35 720 q 224 1040 168 974 l 224 1042 q 205 1065 210 1042 l 205 1069 q 242 1095 210 1095 l 285 1095 m 303 1040 q 258 1000 303 1037 q 103 718 157 888 q 53 339 49 547 q 199 67 57 131 q 267 53 233 53 l 275 53 q 465 216 428 47 q 503 580 503 385 q 425 935 503 775 q 303 1040 359 1040 m 197 1227 q 236 1180 236 1211 l 236 1168 q 190 1133 236 1137 q 147 1183 159 1133 q 197 1227 147 1227 m 353 1222 q 393 1175 393 1206 l 393 1163 q 347 1128 393 1133 q 304 1179 316 1128 q 353 1222 304 1222 z "},"÷":{"ha":589,"x_min":47,"x_max":552,"o":"m 440 442 q 546 422 546 438 q 552 408 552 417 l 552 406 q 530 381 547 381 q 424 391 473 389 l 127 367 l 78 367 q 47 395 47 370 q 72 420 54 420 l 119 420 l 395 442 l 440 442 m 317 267 q 356 220 356 252 l 356 208 q 310 174 356 178 q 267 224 279 174 q 317 267 267 267 m 293 623 q 332 576 332 607 l 332 564 q 286 529 332 533 q 243 579 256 529 q 293 623 243 623 z "},"ø":{"ha":614,"x_min":0,"x_max":555,"o":"m 285 1095 q 505 882 424 1095 q 544 439 555 711 q 451 85 532 166 q 271 0 369 4 q 10 291 66 0 q 17 541 0 361 q 132 908 35 720 q 224 1040 168 974 l 224 1042 q 205 1065 210 1042 l 205 1069 q 242 1095 210 1095 l 285 1095 m 303 1040 q 258 1000 303 1037 q 103 718 157 888 q 53 339 49 547 q 199 67 57 131 q 267 53 233 53 l 275 53 q 465 216 428 47 q 503 580 503 385 q 425 935 503 775 q 303 1040 359 1040 m 418 1154 l 435 1159 q 450 1135 454 1154 l 153 -3 q 122 -41 144 -45 l 101 -31 l 418 1154 z "},"ù":{"ha":574,"x_min":31,"x_max":574,"o":"m 103 1091 l 109 1091 q 132 1069 126 1091 q 82 566 82 734 q 249 65 82 203 q 286 51 270 51 q 410 273 351 51 q 446 588 446 450 l 433 1022 l 431 1032 q 459 1059 431 1053 q 486 1004 486 1059 q 499 590 493 732 l 489 409 q 574 43 489 183 l 574 37 q 546 12 568 12 q 463 179 511 12 l 452 226 l 450 226 q 399 87 450 200 q 292 0 347 0 l 277 0 q 82 218 184 0 q 31 541 31 353 l 31 590 q 81 1075 31 764 q 103 1091 90 1091 m 171 1235 q 180 1242 171 1235 q 197 1220 189 1248 q 232 1175 205 1193 q 260 1151 260 1167 l 260 1149 q 242 1128 260 1133 q 168 1180 183 1137 q 171 1235 153 1223 z "},"ú":{"ha":574,"x_min":31,"x_max":574,"o":"m 103 1091 l 109 1091 q 132 1069 126 1091 q 82 566 82 734 q 249 65 82 203 q 286 51 270 51 q 410 273 351 51 q 446 588 446 450 l 433 1022 l 431 1032 q 459 1059 431 1053 q 486 1004 486 1059 q 499 590 493 732 l 489 409 q 574 43 489 183 l 574 37 q 546 12 568 12 q 463 179 511 12 l 452 226 l 450 226 q 399 87 450 200 q 292 0 347 0 l 277 0 q 82 218 184 0 q 31 541 31 353 l 31 590 q 81 1075 31 764 q 103 1091 90 1091 m 436 1224 q 445 1217 436 1224 q 439 1168 454 1211 q 365 1117 424 1125 q 347 1137 347 1121 l 347 1139 q 375 1164 347 1156 q 410 1209 401 1181 q 436 1224 418 1236 z "},"û":{"ha":574,"x_min":31,"x_max":574,"o":"m 103 1091 l 109 1091 q 132 1069 126 1091 q 82 566 82 734 q 249 65 82 203 q 286 51 270 51 q 410 273 351 51 q 446 588 446 450 l 433 1022 l 431 1032 q 459 1059 431 1053 q 486 1004 486 1059 q 499 590 493 732 l 489 409 q 574 43 489 183 l 574 37 q 546 12 568 12 q 463 179 511 12 l 452 226 l 450 226 q 399 87 450 200 q 292 0 347 0 l 277 0 q 82 218 184 0 q 31 541 31 353 l 31 590 q 81 1075 31 764 q 103 1091 90 1091 m 338 1129 l 281 1195 l 245 1142 q 221 1126 245 1131 q 197 1150 197 1131 l 197 1152 l 267 1245 q 283 1253 275 1253 l 291 1253 q 367 1154 319 1213 q 338 1129 361 1129 z "},"ü":{"ha":574,"x_min":31,"x_max":574,"o":"m 103 1091 l 109 1091 q 132 1069 126 1091 q 82 566 82 734 q 249 65 82 203 q 286 51 270 51 q 410 273 351 51 q 446 588 446 450 l 433 1022 l 431 1032 q 459 1059 431 1053 q 486 1004 486 1059 q 499 590 493 732 l 489 409 q 574 43 489 183 l 574 37 q 546 12 568 12 q 463 179 511 12 l 452 226 l 450 226 q 399 87 450 200 q 292 0 347 0 l 277 0 q 82 218 184 0 q 31 541 31 353 l 31 590 q 81 1075 31 764 q 103 1091 90 1091 m 210 1242 q 250 1196 250 1227 l 250 1183 q 203 1149 250 1153 q 161 1199 173 1149 q 210 1242 161 1242 m 367 1238 q 406 1191 406 1222 l 406 1179 q 360 1144 406 1148 q 317 1194 330 1144 q 367 1238 317 1238 z "},"ý":{"ha":407,"x_min":0,"x_max":423,"o":"m 395 1101 l 401 1101 q 423 1079 423 1098 l 423 1075 q 297 713 423 995 q 254 558 254 617 q 236 311 240 369 q 258 24 236 132 q 236 1 252 1 l 232 1 q 199 52 205 1 q 183 315 183 173 q 208 611 187 399 l 210 611 q 26 955 26 924 q 0 1048 0 1024 l 0 1063 q 22 1083 0 1078 q 55 1036 49 1083 q 230 684 70 943 l 334 937 q 374 1087 358 997 q 395 1101 383 1101 m 320 1228 q 329 1222 320 1228 q 323 1172 338 1215 q 250 1121 309 1129 q 231 1141 231 1125 l 231 1143 q 260 1168 231 1160 q 294 1213 286 1185 q 320 1228 302 1240 z "},"þ":{"ha":411,"x_min":51,"x_max":393,"o":"m 51 1074 l 81 1094 q 102 1074 102 1094 l 97 71 q 77 26 100 28 l 54 31 l 51 1074 m 155 850 q 297 730 236 850 q 319 451 393 570 q 129 332 245 332 l 121 332 q 68 340 98 332 q 61 376 56 368 q 125 383 65 383 q 198 408 160 383 q 294 607 352 481 q 149 799 241 799 l 130 795 q 82 812 85 774 q 142 850 78 850 l 155 850 z "},"ÿ":{"ha":407,"x_min":0,"x_max":423,"o":"m 395 1101 l 401 1101 q 423 1079 423 1098 l 423 1075 q 297 713 423 995 q 254 558 254 617 q 236 311 240 369 q 258 24 236 132 q 236 1 252 1 l 232 1 q 199 52 205 1 q 183 315 183 173 q 208 611 187 399 l 210 611 q 26 955 26 924 q 0 1048 0 1024 l 0 1063 q 22 1083 0 1078 q 55 1036 49 1083 q 230 684 70 943 l 334 937 q 374 1087 358 997 q 395 1101 383 1101 m 125 1234 q 165 1187 165 1218 l 165 1175 q 119 1140 165 1144 q 76 1190 88 1140 q 125 1234 76 1234 m 282 1229 q 321 1182 321 1213 l 321 1170 q 275 1135 321 1139 q 233 1185 245 1135 q 282 1229 233 1229 z "},"ı":{"ha":309,"x_min":0,"x_max":267,"o":"m 171 1061 l 240 1061 q 267 1038 267 1057 l 267 1032 q 236 1008 267 1008 l 161 1010 q 173 686 173 851 l 157 53 l 187 53 l 226 55 q 248 31 248 48 l 248 26 q 228 2 248 11 l 173 0 l 26 2 q 4 28 7 2 l 4 31 q 35 55 4 55 l 104 53 q 120 682 120 535 l 120 701 q 108 1010 120 871 l 106 1010 l 18 1012 q 0 1034 0 1021 l 0 1040 q 22 1063 3 1063 l 171 1061 z "},"ˆ":{"ha":289,"x_min":22,"x_max":266,"o":"m 237 1036 l 149 1152 l 71 1059 q 46 1043 71 1048 q 22 1067 22 1048 l 22 1069 l 134 1202 q 151 1211 143 1211 l 159 1211 q 266 1060 187 1170 q 237 1036 260 1036 z "},"ˇ":{"ha":349,"x_min":22,"x_max":266,"o":"m 237 1211 q 266 1186 260 1211 q 159 1036 187 1076 l 151 1036 q 134 1044 143 1036 l 22 1177 l 22 1179 q 46 1203 22 1198 q 71 1187 71 1198 l 149 1094 l 237 1211 z "},"ˉ":{"ha":694,"x_min":0,"x_max":0,"o":""},"˘":{"ha":339,"x_min":22,"x_max":279,"o":"m 251 1188 q 279 1164 273 1188 q 153 1074 237 1078 q 22 1177 68 1070 l 22 1179 q 46 1203 22 1198 q 251 1188 155 1041 z "},"˙":{"ha":271,"x_min":96,"x_max":185,"o":"m 146 1195 q 185 1148 185 1179 l 185 1136 q 139 1101 185 1105 q 96 1152 109 1101 q 146 1195 96 1195 z "},"˚":{"ha":271,"x_min":75,"x_max":211,"o":"m 140 1139 l 152 1139 q 211 1088 211 1133 q 138 1008 211 1035 l 127 1008 q 75 1078 75 1017 l 75 1100 q 140 1139 75 1139 m 127 1086 l 127 1076 l 130 1061 q 158 1086 144 1061 l 127 1086 z "},"˛":{"ha":339,"x_min":62,"x_max":261,"o":"m 144 -240 q 103 -239 144 -240 q 71 -156 62 -238 q 87 -13 79 -74 q 104 33 62 40 q 138 -19 145 26 q 127 -152 126 -107 q 174 -182 129 -197 q 220 -145 218 -167 q 261 -142 221 -123 q 144 -240 227 -241 z "},"˜":{"ha":553,"x_min":39,"x_max":485,"o":"m 201 1197 q 294 1145 242 1191 l 330 1137 l 348 1135 q 452 1158 400 1127 l 460 1159 l 465 1158 q 485 1128 484 1156 q 370 1080 479 1095 l 336 1083 l 326 1084 q 239 1134 273 1092 l 199 1143 l 183 1146 q 84 1088 121 1155 l 63 1086 q 42 1114 39 1094 l 43 1118 q 201 1197 92 1213 z "},"˝":{"ha":285,"x_min":35,"x_max":243,"o":"m 124 1184 q 133 1177 124 1184 q 127 1128 142 1171 q 54 1077 113 1085 q 35 1097 35 1081 l 35 1099 q 64 1124 35 1116 q 98 1169 90 1141 q 124 1184 106 1196 m 225 1184 q 234 1177 225 1184 q 228 1128 243 1171 q 154 1077 213 1085 q 136 1097 136 1081 l 136 1099 q 164 1124 136 1116 q 199 1169 191 1141 q 225 1184 207 1196 z "},"–":{"ha":589,"x_min":43,"x_max":547,"o":"m 435 544 q 541 524 541 540 q 547 509 547 519 l 547 507 q 525 483 542 483 q 419 493 469 491 l 122 469 l 73 469 q 43 497 43 472 q 67 522 50 522 l 114 522 l 391 544 l 435 544 z "},"—":{"ha":890,"x_min":63,"x_max":841,"o":"m 729 564 q 835 544 835 560 q 841 530 841 539 l 841 528 q 819 503 836 503 q 713 513 762 511 l 142 503 l 94 503 q 63 531 63 506 q 87 555 70 555 l 134 555 l 684 564 l 729 564 z "},"‘":{"ha":193,"x_min":23,"x_max":121,"o":"m 90 952 l 43 975 q 23 1017 23 996 q 100 1097 23 1071 q 119 1076 119 1093 l 119 1074 q 90 1050 119 1058 q 64 1017 64 1032 l 64 1013 l 70 1005 q 94 1013 81 1013 q 121 981 113 1013 q 90 952 121 952 z "},"’":{"ha":214,"x_min":89,"x_max":186,"o":"m 119 1094 l 166 1072 q 186 1029 186 1050 q 109 949 186 975 q 91 970 91 954 l 91 972 q 119 996 91 988 q 146 1029 146 1014 l 146 1033 l 140 1041 q 115 1033 128 1033 q 89 1065 96 1033 q 119 1094 89 1094 z "},"‚":{"ha":193,"x_min":66,"x_max":163,"o":"m 96 63 l 143 41 q 163 -2 163 20 q 86 -81 163 -56 q 68 -61 68 -77 l 68 -59 q 96 -35 68 -43 q 123 -2 123 -17 l 123 2 l 117 10 q 92 2 105 2 q 66 35 73 2 q 96 63 66 63 z "},"“":{"ha":334,"x_min":38,"x_max":271,"o":"m 241 1023 l 194 1045 q 174 1088 174 1066 q 251 1167 174 1141 q 269 1147 269 1163 l 269 1145 q 241 1120 269 1128 q 214 1088 214 1103 l 214 1084 l 220 1076 q 245 1084 232 1084 q 271 1051 264 1084 q 241 1023 271 1023 m 105 1023 l 58 1045 q 38 1088 38 1066 q 115 1167 38 1141 q 134 1147 134 1163 l 134 1145 q 105 1120 134 1128 q 79 1088 79 1103 l 79 1084 l 85 1076 q 109 1084 96 1084 q 136 1051 128 1084 q 105 1023 136 1023 z "},"”":{"ha":367,"x_min":92,"x_max":325,"o":"m 122 1165 l 169 1143 q 189 1100 189 1122 q 112 1021 189 1046 q 94 1041 94 1025 l 94 1043 q 122 1067 94 1059 q 149 1100 149 1085 l 149 1104 l 142 1112 q 118 1104 131 1104 q 92 1137 99 1104 q 122 1165 92 1165 m 258 1165 l 304 1143 q 325 1100 325 1122 q 248 1021 325 1046 q 229 1041 229 1025 l 229 1043 q 258 1067 229 1059 q 284 1100 284 1085 l 284 1104 l 278 1112 q 254 1104 267 1104 q 227 1137 235 1104 q 258 1165 227 1165 z "},"„":{"ha":334,"x_min":61,"x_max":294,"o":"m 92 70 l 138 47 q 159 5 159 26 q 81 -75 159 -49 q 63 -54 63 -71 l 63 -52 q 92 -28 63 -36 q 118 5 118 -10 l 118 9 l 112 17 q 87 9 100 9 q 61 41 68 9 q 92 70 61 70 m 227 70 l 274 47 q 294 5 294 26 q 217 -75 294 -49 q 199 -54 199 -71 l 199 -52 q 227 -28 199 -36 q 254 5 254 -10 l 254 9 l 248 17 q 223 9 236 9 q 197 41 204 9 q 227 70 197 70 z "},"†":{"ha":688,"x_min":0,"x_max":0,"o":""},"‡":{"ha":688,"x_min":0,"x_max":0,"o":""},"•":{"ha":271,"x_min":36,"x_max":210,"o":"m 133 631 q 210 540 210 601 l 210 516 q 119 448 210 456 q 36 547 60 448 q 133 631 36 631 z "},"…":{"ha":583,"x_min":136,"x_max":536,"o":"m 185 94 q 224 47 224 78 l 224 35 q 178 0 224 4 q 136 50 148 0 q 185 94 136 94 m 338 98 q 377 52 377 83 l 377 39 q 331 5 377 9 q 288 55 300 5 q 338 98 288 98 m 497 87 q 536 40 536 71 l 536 28 q 490 -7 536 -3 q 448 43 460 -7 q 497 87 448 87 z "},"‹":{"ha":507,"x_min":54,"x_max":455,"o":"m 408 637 q 135 345 408 610 l 439 83 q 455 59 450 83 q 431 35 450 35 l 429 35 q 116 285 178 252 q 58 350 54 319 l 105 396 l 384 666 q 408 637 408 660 z "},"›":{"ha":492,"x_min":58,"x_max":460,"o":"m 105 640 q 130 668 105 662 l 408 398 l 455 352 q 397 287 460 321 q 85 37 335 254 l 83 37 q 58 61 64 37 q 75 85 63 85 l 378 347 q 105 640 105 612 z "},"⁄":{"ha":410,"x_min":33,"x_max":387,"o":"m 351 1196 l 367 1201 q 382 1177 387 1196 l 85 39 q 54 1 77 -3 l 33 11 l 351 1196 z "},"₣":{"ha":688,"x_min":0,"x_max":0,"o":""},"₤":{"ha":688,"x_min":0,"x_max":0,"o":""},"₧":{"ha":1375,"x_min":0,"x_max":0,"o":""},"€":{"ha":583,"x_min":18,"x_max":545,"o":"m 299 1204 l 311 1204 q 411 1123 376 1204 q 421 1056 421 1091 q 393 1029 421 1033 q 368 1054 368 1034 l 368 1062 q 323 1149 368 1128 l 305 1154 q 163 926 213 1154 q 130 608 130 770 q 298 84 131 185 q 372 60 336 60 q 510 133 431 60 l 520 133 q 545 109 545 128 q 429 17 545 73 q 376 9 398 9 l 368 9 q 162 157 251 9 q 79 584 73 331 l 79 633 q 157 1084 79 888 q 299 1204 218 1204 m 42 685 q 353 673 222 673 l 355 673 l 465 675 q 484 652 484 665 l 484 646 q 431 622 484 622 l 355 620 q 32 636 47 627 q 18 661 22 636 q 42 685 18 675 m 42 538 q 245 530 144 530 l 325 530 q 457 536 398 530 q 481 512 481 530 l 481 508 q 427 481 481 481 q 298 477 380 477 l 270 477 q 30 490 30 481 q 18 514 23 490 q 42 538 18 530 z "},"№":{"ha":1540,"x_min":0,"x_max":0,"o":""},"™":{"ha":1015,"x_min":0,"x_max":0,"o":""},"∂":{"ha":688,"x_min":0,"x_max":0,"o":""},"∆":{"ha":828,"x_min":96,"x_max":117,"o":"m 107 -340 q 108 -341 107 -340 q 113 -345 109 -341 q 114 -350 117 -349 l 113 -350 q 104 -342 106 -349 q 107 -340 105 -339 m 104 1301 q 102 1305 104 1301 q 98 1301 100 1308 q 99 1294 96 1294 l 100 1294 q 110 1294 107 1294 q 104 1301 109 1294 z "},"∏":{"ha":1027,"x_min":0,"x_max":0,"o":""},"∑":{"ha":818,"x_min":0,"x_max":0,"o":""},"−":{"ha":589,"x_min":47,"x_max":552,"o":"m 440 442 q 546 422 546 438 q 552 408 552 417 l 552 406 q 530 381 547 381 q 424 391 473 389 l 127 367 l 78 367 q 47 395 47 370 q 72 420 54 420 l 119 420 l 395 442 l 440 442 z "},"√":{"ha":688,"x_min":0,"x_max":0,"o":""},"∞":{"ha":688,"x_min":0,"x_max":0,"o":""},"∫":{"ha":451,"x_min":0,"x_max":0,"o":""},"≈":{"ha":532,"x_min":17,"x_max":465,"o":"m 180 581 q 273 528 222 574 l 309 521 l 328 518 q 431 542 380 511 l 440 543 l 444 542 q 465 512 464 539 q 350 463 459 478 l 315 467 l 305 468 q 178 527 253 475 l 163 530 q 64 472 101 538 l 43 469 q 22 497 19 477 l 22 501 q 180 581 71 597 m 178 444 q 271 392 220 438 l 307 385 l 326 382 q 429 406 378 374 l 438 406 l 442 406 q 463 376 462 403 q 348 327 457 342 l 313 330 l 303 332 q 176 391 251 339 l 161 393 q 62 336 99 402 l 41 333 q 20 361 17 341 l 20 365 q 178 444 69 460 z "},"≤":{"ha":574,"x_min":45,"x_max":527,"o":"m 509 440 q 444 410 509 412 q 279 378 389 410 l 165 344 l 165 342 q 491 239 298 301 q 507 215 503 239 q 483 191 502 191 l 481 191 q 238 264 372 223 q 53 319 154 293 q 45 336 45 328 l 45 344 q 108 378 45 368 q 295 438 267 433 q 484 469 403 458 q 509 440 509 463 m 85 122 q 397 110 266 110 l 399 110 l 509 112 q 527 90 527 102 l 527 83 q 474 59 527 59 l 399 57 q 75 73 90 64 q 61 98 65 73 q 85 122 61 113 z "},"≥":{"ha":574,"x_min":45,"x_max":527,"o":"m 63 440 q 87 469 63 463 q 277 438 169 458 q 464 378 304 433 q 527 344 527 368 l 527 336 q 519 319 527 328 q 334 264 418 293 q 91 191 199 223 l 89 191 q 64 215 70 191 q 81 239 69 239 q 407 342 274 301 l 407 344 l 293 378 q 128 410 183 410 q 63 440 63 412 m 486 122 q 511 98 511 113 q 496 73 507 73 q 173 57 481 64 l 98 59 q 45 83 45 59 l 45 90 q 63 112 45 102 l 173 110 l 175 110 q 486 122 306 110 z "},"":{"ha":728,"x_min":0,"x_max":0,"o":""},"":{"ha":733,"x_min":0,"x_max":0,"o":""},"Ā":{"ha":574,"x_min":0,"x_max":527,"o":"m 342 1200 q 378 1125 366 1200 q 444 795 415 979 l 472 800 q 494 771 492 800 q 452 745 494 749 q 527 33 527 224 q 498 8 521 8 q 474 33 474 13 q 399 736 474 239 q 187 722 326 728 q 49 12 121 479 q 22 0 38 0 q 0 22 0 6 q 132 718 67 488 l 118 716 q 90 741 96 716 q 146 771 90 771 q 289 1137 207 966 q 332 1200 319 1200 l 342 1200 m 330 1101 q 203 777 264 966 l 203 775 l 205 775 q 391 789 335 781 q 332 1101 362 974 l 330 1101 m 404 1305 q 509 1284 509 1301 q 515 1270 515 1280 l 515 1268 q 493 1244 510 1244 q 387 1254 437 1252 l 256 1241 l 208 1241 q 177 1270 177 1244 q 201 1294 184 1294 l 248 1294 l 359 1305 l 404 1305 z "},"ā":{"ha":568,"x_min":0,"x_max":527,"o":"m 372 1190 q 477 1169 477 1185 q 484 1155 484 1164 l 484 1153 q 461 1128 478 1128 q 355 1139 405 1137 l 224 1126 l 176 1126 q 145 1154 145 1129 q 170 1179 152 1179 l 216 1179 l 327 1190 l 372 1190 m 330 1082 q 366 1006 353 1082 q 431 677 403 861 l 460 681 q 482 652 479 681 q 439 626 482 630 q 527 33 527 224 q 498 8 521 8 q 474 33 474 13 q 387 618 474 239 q 175 604 314 610 q 49 12 111 258 q 22 0 38 0 q 0 22 0 6 q 120 600 57 267 l 106 597 q 77 622 83 597 q 134 652 77 652 q 277 1019 195 848 q 319 1082 307 1082 l 330 1082 m 317 982 q 191 659 252 848 l 191 656 l 193 656 q 378 671 323 663 q 319 982 350 855 l 317 982 z "},"Ă":{"ha":574,"x_min":0,"x_max":527,"o":"m 342 1200 q 378 1125 366 1200 q 444 795 415 979 l 472 800 q 494 771 492 800 q 452 745 494 749 q 527 33 527 224 q 498 8 521 8 q 474 33 474 13 q 399 736 474 239 q 187 722 326 728 q 49 12 121 479 q 22 0 38 0 q 0 22 0 6 q 132 718 67 488 l 118 716 q 90 741 96 716 q 146 771 90 771 q 289 1137 207 966 q 332 1200 319 1200 l 342 1200 m 330 1101 q 203 777 264 966 l 203 775 l 205 775 q 391 789 335 781 q 332 1101 362 974 l 330 1101 m 442 1323 q 471 1299 465 1323 q 354 1234 438 1238 q 250 1306 269 1230 l 250 1308 q 275 1333 250 1327 q 442 1323 345 1221 z "},"ă":{"ha":571,"x_min":0,"x_max":527,"o":"m 407 1208 q 435 1184 429 1208 q 318 1119 403 1123 q 215 1192 234 1115 l 215 1194 q 239 1218 215 1213 q 407 1208 309 1106 m 330 1082 q 366 1006 353 1082 q 431 677 403 861 l 460 681 q 482 652 479 681 q 439 626 482 630 q 527 33 527 224 q 498 8 521 8 q 474 33 474 13 q 387 618 474 239 q 175 604 314 610 q 49 12 111 258 q 22 0 38 0 q 0 22 0 6 q 120 600 57 267 l 106 597 q 77 622 83 597 q 134 652 77 652 q 277 1019 195 848 q 319 1082 307 1082 l 330 1082 m 317 982 q 191 659 252 848 l 191 656 l 193 656 q 378 671 323 663 q 319 982 350 855 l 317 982 z "},"Ą":{"ha":574,"x_min":0,"x_max":635,"o":"m 342 1200 q 378 1125 366 1200 q 444 795 415 979 l 472 800 q 494 771 492 800 q 452 745 494 749 q 527 33 527 224 q 498 8 521 8 q 474 33 474 13 q 399 736 474 239 q 187 722 326 728 q 49 12 121 479 q 22 0 38 0 q 0 22 0 6 q 132 718 67 488 l 118 716 q 90 741 96 716 q 146 771 90 771 q 289 1137 207 966 q 332 1200 319 1200 l 342 1200 m 330 1101 q 203 777 264 966 l 203 775 l 205 775 q 391 789 335 781 q 332 1101 362 974 l 330 1101 m 535 -114 q 499 -113 535 -114 q 471 -42 464 -113 q 486 28 479 28 q 500 68 465 74 q 530 23 536 62 q 520 -39 519 0 q 560 -64 522 -77 q 600 -33 599 -52 q 635 -31 601 -14 q 535 -114 606 -115 z "},"ą":{"ha":577,"x_min":0,"x_max":632,"o":"m 531 -104 q 496 -104 531 -104 q 468 -33 460 -103 q 483 38 475 38 q 497 78 461 83 q 526 33 532 72 q 517 -29 516 9 q 557 -55 518 -68 q 596 -23 595 -42 q 632 -21 597 -4 q 531 -104 602 -106 m 330 1082 q 366 1006 353 1082 q 431 677 403 861 l 460 681 q 482 652 479 681 q 439 626 482 630 q 527 33 527 224 q 498 8 521 8 q 474 33 474 13 q 387 618 474 239 q 175 604 314 610 q 49 12 111 258 q 22 0 38 0 q 0 22 0 6 q 120 600 57 267 l 106 597 q 77 622 83 597 q 134 652 77 652 q 277 1019 195 848 q 319 1082 307 1082 l 330 1082 m 317 982 q 191 659 252 848 l 191 656 l 193 656 q 378 671 323 663 q 319 982 350 855 l 317 982 z "},"Ć":{"ha":503,"x_min":-7,"x_max":465,"o":"m 220 1204 l 232 1204 q 332 1123 296 1204 q 342 1056 342 1091 q 313 1029 342 1033 q 289 1054 289 1034 l 289 1062 q 244 1149 289 1128 l 226 1154 q 83 926 134 1154 q 51 608 51 770 q 219 84 52 185 q 292 60 257 60 q 431 133 352 60 l 441 133 q 465 109 465 128 q 349 17 465 73 q 296 9 319 9 l 288 9 q 83 157 172 9 q 0 584 -7 331 l 0 633 q 77 1084 0 888 q 220 1204 138 1204 m 319 1359 q 328 1352 319 1359 q 322 1303 337 1346 q 248 1252 307 1260 q 230 1272 230 1256 l 230 1274 q 258 1299 230 1291 q 293 1344 285 1316 q 319 1359 301 1371 z "},"ć":{"ha":505,"x_min":-7,"x_max":465,"o":"m 306 1240 q 315 1234 306 1240 q 309 1184 324 1227 q 235 1133 294 1141 q 217 1154 217 1137 l 217 1156 q 245 1180 217 1172 q 280 1225 272 1198 q 306 1240 288 1253 m 227 1085 l 239 1085 q 338 1004 303 1085 q 349 937 349 972 q 320 910 349 913 q 296 935 296 915 l 296 943 q 251 1030 296 1009 l 233 1034 q 90 806 140 1034 q 58 489 58 651 q 219 84 52 185 q 292 60 257 60 q 431 133 352 60 l 441 133 q 465 109 465 128 q 349 17 465 73 q 296 9 319 9 l 288 9 q 83 157 172 9 q 7 465 -7 331 l 7 513 q 84 965 7 769 q 227 1085 145 1085 z "},"Ĉ":{"ha":503,"x_min":-7,"x_max":465,"o":"m 220 1204 l 232 1204 q 332 1123 296 1204 q 342 1056 342 1091 q 313 1029 342 1033 q 289 1054 289 1034 l 289 1062 q 244 1149 289 1128 l 226 1154 q 83 926 134 1154 q 51 608 51 770 q 219 84 52 185 q 292 60 257 60 q 431 133 352 60 l 441 133 q 465 109 465 128 q 349 17 465 73 q 296 9 319 9 l 288 9 q 83 157 172 9 q 0 584 -7 331 l 0 633 q 77 1084 0 888 q 220 1204 138 1204 m 267 1247 l 199 1316 l 151 1255 q 126 1238 151 1243 q 102 1263 102 1244 l 102 1265 l 184 1366 q 201 1374 193 1374 l 209 1374 q 295 1272 237 1333 q 267 1247 289 1247 z "},"ĉ":{"ha":494,"x_min":-7,"x_max":465,"o":"m 288 1116 l 221 1184 l 172 1123 q 148 1107 172 1112 q 123 1131 123 1112 l 123 1133 l 206 1234 q 222 1242 215 1242 l 231 1242 q 317 1140 259 1202 q 288 1116 311 1116 m 227 1085 l 239 1085 q 338 1004 303 1085 q 349 937 349 972 q 320 910 349 913 q 296 935 296 915 l 296 943 q 251 1030 296 1009 l 233 1034 q 90 806 140 1034 q 58 489 58 651 q 219 84 52 185 q 292 60 257 60 q 431 133 352 60 l 441 133 q 465 109 465 128 q 349 17 465 73 q 296 9 319 9 l 288 9 q 83 157 172 9 q 7 465 -7 331 l 7 513 q 84 965 7 769 q 227 1085 145 1085 z "},"Ċ":{"ha":503,"x_min":-7,"x_max":465,"o":"m 220 1204 l 232 1204 q 332 1123 296 1204 q 342 1056 342 1091 q 313 1029 342 1033 q 289 1054 289 1034 l 289 1062 q 244 1149 289 1128 l 226 1154 q 83 926 134 1154 q 51 608 51 770 q 219 84 52 185 q 292 60 257 60 q 431 133 352 60 l 441 133 q 465 109 465 128 q 349 17 465 73 q 296 9 319 9 l 288 9 q 83 157 172 9 q 0 584 -7 331 l 0 633 q 77 1084 0 888 q 220 1204 138 1204 m 227 1340 q 266 1293 266 1324 l 266 1281 q 220 1246 266 1251 q 177 1297 189 1246 q 227 1340 177 1340 z "},"ċ":{"ha":504,"x_min":-7,"x_max":465,"o":"m 233 1230 q 272 1183 272 1214 l 272 1171 q 226 1136 272 1140 q 183 1186 195 1136 q 233 1230 183 1230 m 227 1085 l 239 1085 q 338 1004 303 1085 q 349 937 349 972 q 320 910 349 913 q 296 935 296 915 l 296 943 q 251 1030 296 1009 l 233 1034 q 90 806 140 1034 q 58 489 58 651 q 219 84 52 185 q 292 60 257 60 q 431 133 352 60 l 441 133 q 465 109 465 128 q 349 17 465 73 q 296 9 319 9 l 288 9 q 83 157 172 9 q 7 465 -7 331 l 7 513 q 84 965 7 769 q 227 1085 145 1085 z "},"Č":{"ha":503,"x_min":-7,"x_max":465,"o":"m 220 1204 l 232 1204 q 332 1123 296 1204 q 342 1056 342 1091 q 313 1029 342 1033 q 289 1054 289 1034 l 289 1062 q 244 1149 289 1128 l 226 1154 q 83 926 134 1154 q 51 608 51 770 q 219 84 52 185 q 292 60 257 60 q 431 133 352 60 l 441 133 q 465 109 465 128 q 349 17 465 73 q 296 9 319 9 l 288 9 q 83 157 172 9 q 0 584 -7 331 l 0 633 q 77 1084 0 888 q 220 1204 138 1204 m 267 1365 q 295 1341 289 1365 q 209 1238 237 1279 l 201 1238 q 184 1246 193 1238 l 102 1348 l 102 1350 q 126 1374 102 1369 q 151 1358 151 1369 l 199 1297 l 267 1365 z "},"č":{"ha":505,"x_min":-7,"x_max":465,"o":"m 304 1243 q 332 1219 326 1243 q 246 1116 275 1157 l 238 1116 q 222 1124 231 1116 l 139 1225 l 139 1227 q 163 1252 139 1246 q 188 1236 188 1247 l 237 1175 l 304 1243 m 227 1085 l 239 1085 q 338 1004 303 1085 q 349 937 349 972 q 320 910 349 913 q 296 935 296 915 l 296 943 q 251 1030 296 1009 l 233 1034 q 90 806 140 1034 q 58 489 58 651 q 219 84 52 185 q 292 60 257 60 q 431 133 352 60 l 441 133 q 465 109 465 128 q 349 17 465 73 q 296 9 319 9 l 288 9 q 83 157 172 9 q 7 465 -7 331 l 7 513 q 84 965 7 769 q 227 1085 145 1085 z "},"Ď":{"ha":606,"x_min":0,"x_max":525,"o":"m 43 1198 q 69 1174 60 1198 l 65 1147 q 210 1198 121 1198 l 226 1198 q 462 991 375 1198 q 525 580 525 820 l 525 578 q 374 79 525 253 q 226 8 305 8 q 87 59 162 8 l 85 59 l 85 31 q 59 0 81 0 q 33 24 33 6 l 2 732 l 0 844 l 0 881 q 28 1194 4 1194 l 43 1198 m 53 932 l 53 865 l 81 287 l 83 149 q 102 114 83 122 q 228 61 167 61 q 450 350 366 61 q 472 562 472 441 l 472 602 q 350 1082 472 920 q 214 1147 291 1147 q 73 1066 109 1147 q 53 932 53 1007 m 267 1365 q 295 1341 289 1365 q 209 1238 237 1279 l 201 1238 q 184 1246 193 1238 l 102 1348 l 102 1350 q 126 1374 102 1369 q 151 1358 151 1369 l 199 1297 l 267 1365 z "},"ď":{"ha":591,"x_min":7,"x_max":532,"o":"m 458 1166 q 469 1166 458 1166 q 490 1121 480 1165 q 453 1038 499 1076 q 427 1046 435 1032 l 426 1048 q 437 1084 418 1062 q 444 1140 451 1112 q 458 1166 436 1168 m 50 1077 q 76 1053 67 1077 l 72 1026 q 216 1077 128 1077 l 233 1077 q 469 869 382 1077 q 525 580 532 699 l 525 578 q 374 79 525 253 q 226 8 305 8 q 87 59 162 8 l 85 59 l 85 31 q 59 0 81 0 q 33 24 33 6 l 9 611 l 7 723 l 7 760 q 35 1073 11 1073 l 50 1077 m 60 810 l 60 743 l 81 287 l 83 149 q 102 114 83 122 q 228 61 167 61 q 450 350 366 61 q 472 562 472 441 l 472 602 q 357 961 479 799 q 220 1026 298 1026 q 80 945 115 1026 q 60 810 60 886 z "},"Đ":{"ha":669,"x_min":5,"x_max":589,"o":"m 106 1198 q 133 1174 124 1198 l 129 1147 q 273 1198 185 1198 l 290 1198 q 526 991 439 1198 q 589 580 589 820 l 589 578 q 438 79 589 253 q 290 8 369 8 q 151 59 226 8 l 149 59 l 149 31 q 123 0 145 0 q 96 24 96 6 l 66 732 l 64 844 l 64 881 q 92 1194 68 1194 l 106 1198 m 117 932 l 117 865 l 145 287 l 147 149 q 165 114 147 122 q 292 61 231 61 q 513 350 429 61 q 536 562 536 441 l 536 602 q 414 1082 536 920 q 277 1147 355 1147 q 137 1066 172 1147 q 117 932 117 1007 m 264 706 q 334 686 334 702 q 338 671 338 681 l 338 669 q 323 645 335 645 q 254 655 286 653 l 57 631 l 25 631 q 5 659 5 634 q 21 684 9 684 l 52 684 l 235 706 l 264 706 z "},"đ":{"ha":698,"x_min":33,"x_max":644,"o":"m 292 605 q 362 585 362 601 q 366 570 366 580 l 366 568 q 351 544 363 544 q 281 554 314 552 l 85 530 l 53 530 q 33 558 33 533 q 49 583 37 583 l 79 583 l 262 605 l 292 605 m 161 1077 q 188 1053 179 1077 l 184 1026 q 328 1077 240 1077 l 345 1077 q 581 869 494 1077 q 637 580 644 699 l 637 578 q 486 79 637 253 q 338 8 417 8 q 199 59 274 8 l 197 59 l 197 31 q 171 0 193 0 q 144 24 144 6 l 121 611 l 119 723 l 119 760 q 147 1073 123 1073 l 161 1077 m 172 810 l 172 743 l 193 287 l 195 149 q 214 114 195 122 q 340 61 279 61 q 562 350 477 61 q 584 562 584 441 l 584 602 q 469 961 591 799 q 332 1026 410 1026 q 192 945 227 1026 q 172 810 172 886 z "},"Ē":{"ha":475,"x_min":0,"x_max":448,"o":"m 368 1202 q 389 1180 385 1202 l 389 1174 q 338 1147 389 1147 q 212 1135 274 1135 l 205 1135 q 79 1143 152 1135 q 57 901 57 1041 l 59 795 q 65 785 62 785 l 134 785 q 252 793 174 785 q 273 771 273 786 l 273 765 q 218 739 273 739 q 124 732 186 732 l 83 732 l 63 734 q 106 203 106 330 l 106 201 l 108 177 l 106 153 l 106 144 q 102 53 106 89 l 122 53 q 423 65 196 53 q 448 37 443 65 q 399 12 448 12 q 102 0 208 0 l 71 0 q 47 24 47 5 q 55 177 55 113 q 12 730 55 295 q 0 757 12 736 l 0 767 q 8 781 0 778 l 4 905 q 37 1188 4 1065 l 55 1198 q 195 1188 149 1188 l 220 1188 q 368 1202 258 1188 m 272 1318 q 378 1298 378 1314 q 384 1284 384 1293 l 384 1282 q 361 1257 378 1257 q 256 1267 305 1265 l 125 1255 l 76 1255 q 45 1283 45 1258 q 70 1308 52 1308 l 117 1308 l 227 1318 l 272 1318 z "},"ē":{"ha":507,"x_min":24,"x_max":468,"o":"m 277 1215 q 377 1195 377 1211 q 383 1181 383 1191 l 383 1180 q 362 1156 378 1156 q 261 1166 309 1164 l 136 1154 l 90 1154 q 61 1181 61 1157 q 84 1204 68 1204 l 129 1204 l 234 1215 l 277 1215 m 390 1076 q 410 1054 406 1076 l 410 1048 q 359 1021 410 1021 q 233 1009 296 1009 l 227 1009 q 101 1017 174 1009 q 81 825 79 915 l 83 719 q 89 709 85 709 l 158 709 q 276 717 197 709 q 296 694 296 709 l 296 688 q 241 662 296 662 q 148 656 210 656 l 107 656 l 87 658 q 126 203 126 330 l 126 201 l 128 177 l 126 153 l 126 144 q 122 53 126 89 l 142 53 q 444 65 216 53 q 468 37 463 65 q 419 12 468 12 q 122 0 229 0 l 92 0 q 67 24 67 5 q 75 177 75 113 q 36 654 75 295 q 24 680 36 660 l 24 690 q 32 705 24 701 l 28 829 q 58 1062 26 939 l 77 1072 q 217 1062 170 1062 l 241 1062 q 390 1076 279 1062 z "},"Ĕ":{"ha":475,"x_min":0,"x_max":448,"o":"m 368 1202 q 389 1180 385 1202 l 389 1174 q 338 1147 389 1147 q 212 1135 274 1135 l 205 1135 q 79 1143 152 1135 q 57 901 57 1041 l 59 795 q 65 785 62 785 l 134 785 q 252 793 174 785 q 273 771 273 786 l 273 765 q 218 739 273 739 q 124 732 186 732 l 83 732 l 63 734 q 106 203 106 330 l 106 201 l 108 177 l 106 153 l 106 144 q 102 53 106 89 l 122 53 q 423 65 196 53 q 448 37 443 65 q 399 12 448 12 q 102 0 208 0 l 71 0 q 47 24 47 5 q 55 177 55 113 q 12 730 55 295 q 0 757 12 736 l 0 767 q 8 781 0 778 l 4 905 q 37 1188 4 1065 l 55 1198 q 195 1188 149 1188 l 220 1188 q 368 1202 258 1188 m 287 1332 q 315 1308 309 1332 q 198 1242 283 1246 q 95 1315 114 1238 l 95 1317 q 119 1341 95 1336 q 287 1332 189 1230 z "},"ĕ":{"ha":491,"x_min":3,"x_max":448,"o":"m 297 1219 q 326 1194 319 1219 q 209 1129 293 1133 q 105 1202 124 1125 l 105 1204 q 130 1228 105 1223 q 297 1219 199 1116 m 370 1076 q 390 1054 386 1076 l 390 1048 q 339 1021 390 1021 q 213 1009 275 1009 l 207 1009 q 81 1017 153 1009 q 60 825 58 915 l 62 719 q 68 709 65 709 l 138 709 q 256 717 177 709 q 276 694 276 709 l 276 688 q 221 662 276 662 q 127 656 189 656 l 87 656 l 66 658 q 106 203 106 330 l 106 201 l 108 177 l 106 153 l 106 144 q 102 53 106 89 l 122 53 q 423 65 196 53 q 448 37 443 65 q 399 12 448 12 q 102 0 208 0 l 71 0 q 47 24 47 5 q 55 177 55 113 q 16 654 55 295 q 3 680 16 660 l 3 690 q 12 705 3 701 l 7 829 q 38 1062 5 939 l 56 1072 q 197 1062 150 1062 l 221 1062 q 370 1076 259 1062 z "},"Ė":{"ha":475,"x_min":0,"x_max":448,"o":"m 368 1202 q 389 1180 385 1202 l 389 1174 q 338 1147 389 1147 q 212 1135 274 1135 l 205 1135 q 79 1143 152 1135 q 57 901 57 1041 l 59 795 q 65 785 62 785 l 134 785 q 252 793 174 785 q 273 771 273 786 l 273 765 q 218 739 273 739 q 124 732 186 732 l 83 732 l 63 734 q 106 203 106 330 l 106 201 l 108 177 l 106 153 l 106 144 q 102 53 106 89 l 122 53 q 423 65 196 53 q 448 37 443 65 q 399 12 448 12 q 102 0 208 0 l 71 0 q 47 24 47 5 q 55 177 55 113 q 12 730 55 295 q 0 757 12 736 l 0 767 q 8 781 0 778 l 4 905 q 37 1188 4 1065 l 55 1198 q 195 1188 149 1188 l 220 1188 q 368 1202 258 1188 m 227 1340 q 266 1293 266 1324 l 266 1281 q 220 1246 266 1251 q 177 1297 189 1246 q 227 1340 177 1340 z "},"ė":{"ha":492,"x_min":3,"x_max":448,"o":"m 203 1235 q 242 1188 242 1219 l 242 1176 q 196 1141 242 1145 q 153 1192 165 1141 q 203 1235 153 1235 m 370 1076 q 390 1054 386 1076 l 390 1048 q 339 1021 390 1021 q 213 1009 275 1009 l 207 1009 q 81 1017 153 1009 q 60 825 58 915 l 62 719 q 68 709 65 709 l 138 709 q 256 717 177 709 q 276 694 276 709 l 276 688 q 221 662 276 662 q 127 656 189 656 l 87 656 l 66 658 q 106 203 106 330 l 106 201 l 108 177 l 106 153 l 106 144 q 102 53 106 89 l 122 53 q 423 65 196 53 q 448 37 443 65 q 399 12 448 12 q 102 0 208 0 l 71 0 q 47 24 47 5 q 55 177 55 113 q 16 654 55 295 q 3 680 16 660 l 3 690 q 12 705 3 701 l 7 829 q 38 1062 5 939 l 56 1072 q 197 1062 150 1062 l 221 1062 q 370 1076 259 1062 z "},"Ę":{"ha":475,"x_min":0,"x_max":448,"o":"m 368 1202 q 389 1180 385 1202 l 389 1174 q 338 1147 389 1147 q 212 1135 274 1135 l 205 1135 q 79 1143 152 1135 q 57 901 57 1041 l 59 795 q 65 785 62 785 l 134 785 q 252 793 174 785 q 273 771 273 786 l 273 765 q 218 739 273 739 q 124 732 186 732 l 83 732 l 63 734 q 106 203 106 330 l 106 201 l 108 177 l 106 153 l 106 144 q 102 53 106 89 l 122 53 q 423 65 196 53 q 448 37 443 65 q 399 12 448 12 q 102 0 208 0 l 71 0 q 47 24 47 5 q 55 177 55 113 q 12 730 55 295 q 0 757 12 736 l 0 767 q 8 781 0 778 l 4 905 q 37 1188 4 1065 l 55 1198 q 195 1188 149 1188 l 220 1188 q 368 1202 258 1188 m 198 -146 q 162 -145 198 -146 q 134 -74 127 -144 q 149 -3 142 -3 q 163 36 127 42 q 193 -9 199 31 q 183 -71 182 -32 q 223 -96 184 -109 q 263 -64 262 -83 q 298 -62 264 -45 q 198 -146 269 -147 z "},"ę":{"ha":486,"x_min":3,"x_max":448,"o":"m 175 -157 q 139 -157 175 -157 q 111 -85 104 -156 q 126 -15 119 -15 q 140 25 104 31 q 170 -20 176 19 q 160 -82 159 -43 q 200 -108 161 -121 q 240 -76 239 -95 q 275 -74 241 -57 q 175 -157 245 -159 m 370 1076 q 390 1054 386 1076 l 390 1048 q 339 1021 390 1021 q 213 1009 275 1009 l 207 1009 q 81 1017 153 1009 q 60 825 58 915 l 62 719 q 68 709 65 709 l 138 709 q 256 717 177 709 q 276 694 276 709 l 276 688 q 221 662 276 662 q 127 656 189 656 l 87 656 l 66 658 q 106 203 106 330 l 106 201 l 108 177 l 106 153 l 106 144 q 102 53 106 89 l 122 53 q 423 65 196 53 q 448 37 443 65 q 399 12 448 12 q 102 0 208 0 l 71 0 q 47 24 47 5 q 55 177 55 113 q 16 654 55 295 q 3 680 16 660 l 3 690 q 12 705 3 701 l 7 829 q 38 1062 5 939 l 56 1072 q 197 1062 150 1062 l 221 1062 q 370 1076 259 1062 z "},"Ě":{"ha":475,"x_min":0,"x_max":448,"o":"m 368 1202 q 389 1180 385 1202 l 389 1174 q 338 1147 389 1147 q 212 1135 274 1135 l 205 1135 q 79 1143 152 1135 q 57 901 57 1041 l 59 795 q 65 785 62 785 l 134 785 q 252 793 174 785 q 273 771 273 786 l 273 765 q 218 739 273 739 q 124 732 186 732 l 83 732 l 63 734 q 106 203 106 330 l 106 201 l 108 177 l 106 153 l 106 144 q 102 53 106 89 l 122 53 q 423 65 196 53 q 448 37 443 65 q 399 12 448 12 q 102 0 208 0 l 71 0 q 47 24 47 5 q 55 177 55 113 q 12 730 55 295 q 0 757 12 736 l 0 767 q 8 781 0 778 l 4 905 q 37 1188 4 1065 l 55 1198 q 195 1188 149 1188 l 220 1188 q 368 1202 258 1188 m 267 1365 q 295 1341 289 1365 q 209 1238 237 1279 l 201 1238 q 184 1246 193 1238 l 102 1348 l 102 1350 q 126 1374 102 1369 q 151 1358 151 1369 l 199 1297 l 267 1365 z "},"ě":{"ha":491,"x_min":3,"x_max":448,"o":"m 252 1249 q 280 1224 274 1249 q 194 1122 222 1162 l 186 1122 q 170 1130 178 1122 l 87 1231 l 87 1233 q 111 1257 87 1252 q 136 1241 136 1253 l 184 1180 l 252 1249 m 370 1076 q 390 1054 386 1076 l 390 1048 q 339 1021 390 1021 q 213 1009 275 1009 l 207 1009 q 81 1017 153 1009 q 60 825 58 915 l 62 719 q 68 709 65 709 l 138 709 q 256 717 177 709 q 276 694 276 709 l 276 688 q 221 662 276 662 q 127 656 189 656 l 87 656 l 66 658 q 106 203 106 330 l 106 201 l 108 177 l 106 153 l 106 144 q 102 53 106 89 l 122 53 q 423 65 196 53 q 448 37 443 65 q 399 12 448 12 q 102 0 208 0 l 71 0 q 47 24 47 5 q 55 177 55 113 q 16 654 55 295 q 3 680 16 660 l 3 690 q 12 705 3 701 l 7 829 q 38 1062 5 939 l 56 1072 q 197 1062 150 1062 l 221 1062 q 370 1076 259 1062 z "},"Ĝ":{"ha":524,"x_min":0,"x_max":476,"o":"m 240 1221 l 254 1221 q 350 1176 304 1221 q 395 1076 395 1124 l 395 1056 q 370 1031 395 1038 q 344 1066 344 1031 q 273 1166 344 1131 l 246 1170 q 63 671 93 1170 q 51 458 51 524 q 177 92 51 172 q 236 73 212 73 q 382 258 321 73 l 389 283 q 303 519 389 441 q 205 549 269 549 l 167 549 l 155 547 q 128 576 134 547 q 177 602 128 602 l 203 604 l 311 594 q 423 602 349 594 q 446 584 436 602 l 441 515 q 474 195 441 467 l 476 144 l 476 134 q 437 2 469 2 l 427 0 q 405 22 405 6 l 405 26 q 423 124 423 81 l 423 171 l 421 205 l 419 205 q 242 22 348 22 l 226 22 q 67 130 145 22 q 0 437 0 249 l 0 478 q 37 924 0 634 q 104 1127 60 1041 q 240 1221 164 1221 m 356 543 q 389 496 380 514 l 391 496 l 391 545 l 356 543 m 267 1247 l 199 1316 l 151 1255 q 126 1238 151 1243 q 102 1263 102 1244 l 102 1265 l 184 1366 q 201 1374 193 1374 l 209 1374 q 295 1272 237 1333 q 267 1247 289 1247 z "},"ĝ":{"ha":542,"x_min":15,"x_max":491,"o":"m 314 1124 l 247 1193 l 198 1132 q 174 1116 198 1120 q 149 1140 149 1121 l 149 1142 l 232 1243 q 248 1251 241 1251 l 256 1251 q 342 1149 285 1211 q 314 1124 336 1124 m 240 1067 l 254 1067 q 350 1022 304 1067 q 395 922 395 970 l 395 902 q 370 878 395 884 q 344 912 344 878 q 273 1012 344 977 l 246 1016 q 87 743 108 979 q 66 441 66 507 q 192 75 66 155 q 251 56 227 56 q 397 241 336 56 l 404 266 q 320 463 406 385 q 222 494 286 494 l 184 494 l 172 492 q 145 520 151 492 q 194 547 145 547 l 220 549 l 328 538 q 440 547 366 538 q 463 528 453 547 l 458 459 q 489 178 458 412 l 491 127 l 491 117 q 452 -15 484 -15 l 442 -17 q 420 5 420 -11 l 420 9 q 438 107 438 64 l 438 154 l 436 189 l 434 189 q 257 5 363 5 l 241 5 q 82 113 160 5 q 15 420 15 232 l 15 461 q 37 770 15 617 q 104 973 60 887 q 240 1067 164 1067 m 373 488 q 406 441 397 458 l 408 441 l 408 490 l 373 488 z "},"Ğ":{"ha":524,"x_min":0,"x_max":476,"o":"m 240 1221 l 254 1221 q 350 1176 304 1221 q 395 1076 395 1124 l 395 1056 q 370 1031 395 1038 q 344 1066 344 1031 q 273 1166 344 1131 l 246 1170 q 63 671 93 1170 q 51 458 51 524 q 177 92 51 172 q 236 73 212 73 q 382 258 321 73 l 389 283 q 303 519 389 441 q 205 549 269 549 l 167 549 l 155 547 q 128 576 134 547 q 177 602 128 602 l 203 604 l 311 594 q 423 602 349 594 q 446 584 436 602 l 441 515 q 474 195 441 467 l 476 144 l 476 134 q 437 2 469 2 l 427 0 q 405 22 405 6 l 405 26 q 423 124 423 81 l 423 171 l 421 205 l 419 205 q 242 22 348 22 l 226 22 q 67 130 145 22 q 0 437 0 249 l 0 478 q 37 924 0 634 q 104 1127 60 1041 q 240 1221 164 1221 m 356 543 q 389 496 380 514 l 391 496 l 391 545 l 356 543 m 321 1359 q 350 1335 344 1359 q 233 1270 317 1274 q 130 1342 149 1265 l 130 1344 q 154 1369 130 1363 q 321 1359 224 1257 z "},"ğ":{"ha":542,"x_min":0,"x_max":476,"o":"m 344 1208 q 372 1184 366 1208 q 255 1119 340 1123 q 152 1192 171 1115 l 152 1194 q 176 1218 152 1213 q 344 1208 246 1106 m 225 1084 l 239 1084 q 335 1039 290 1084 q 380 939 380 987 l 380 919 q 355 895 380 901 q 329 929 329 895 q 258 1029 329 994 l 231 1033 q 72 760 93 996 q 51 458 51 524 q 177 92 51 172 q 236 73 212 73 q 382 258 321 73 l 389 283 q 305 480 391 402 q 208 511 271 511 l 169 511 l 157 509 q 130 537 136 509 q 179 564 130 564 l 205 566 l 313 555 q 425 564 351 555 q 448 545 438 564 l 444 476 q 474 195 444 429 l 476 144 l 476 134 q 437 2 469 2 l 427 0 q 405 22 405 6 l 405 26 q 423 124 423 81 l 423 171 l 421 205 l 419 205 q 242 22 348 22 l 226 22 q 67 130 145 22 q 0 437 0 249 l 0 478 q 22 787 0 634 q 89 990 45 904 q 225 1084 149 1084 m 358 505 q 391 458 382 475 l 393 458 l 393 507 l 358 505 z "},"Ġ":{"ha":524,"x_min":0,"x_max":476,"o":"m 240 1221 l 254 1221 q 350 1176 304 1221 q 395 1076 395 1124 l 395 1056 q 370 1031 395 1038 q 344 1066 344 1031 q 273 1166 344 1131 l 246 1170 q 63 671 93 1170 q 51 458 51 524 q 177 92 51 172 q 236 73 212 73 q 382 258 321 73 l 389 283 q 303 519 389 441 q 205 549 269 549 l 167 549 l 155 547 q 128 576 134 547 q 177 602 128 602 l 203 604 l 311 594 q 423 602 349 594 q 446 584 436 602 l 441 515 q 474 195 441 467 l 476 144 l 476 134 q 437 2 469 2 l 427 0 q 405 22 405 6 l 405 26 q 423 124 423 81 l 423 171 l 421 205 l 419 205 q 242 22 348 22 l 226 22 q 67 130 145 22 q 0 437 0 249 l 0 478 q 37 924 0 634 q 104 1127 60 1041 q 240 1221 164 1221 m 356 543 q 389 496 380 514 l 391 496 l 391 545 l 356 543 m 240 1354 q 279 1307 279 1338 l 279 1295 q 233 1260 279 1264 q 191 1310 203 1260 q 240 1354 191 1354 z "},"ġ":{"ha":542,"x_min":0,"x_max":476,"o":"m 251 1251 q 290 1204 290 1235 l 290 1192 q 244 1157 290 1161 q 201 1207 214 1157 q 251 1251 201 1251 m 225 1084 l 239 1084 q 335 1039 290 1084 q 380 939 380 987 l 380 919 q 355 895 380 901 q 329 929 329 895 q 258 1029 329 994 l 231 1033 q 72 760 93 996 q 51 458 51 524 q 177 92 51 172 q 236 73 212 73 q 382 258 321 73 l 389 283 q 305 480 391 402 q 208 511 271 511 l 169 511 l 157 509 q 130 537 136 509 q 179 564 130 564 l 205 566 l 313 555 q 425 564 351 555 q 448 545 438 564 l 444 476 q 474 195 444 429 l 476 144 l 476 134 q 437 2 469 2 l 427 0 q 405 22 405 6 l 405 26 q 423 124 423 81 l 423 171 l 421 205 l 419 205 q 242 22 348 22 l 226 22 q 67 130 145 22 q 0 437 0 249 l 0 478 q 22 787 0 634 q 89 990 45 904 q 225 1084 149 1084 m 358 505 q 391 458 382 475 l 393 458 l 393 507 l 358 505 z "},"Ģ":{"ha":524,"x_min":0,"x_max":476,"o":"m 240 1221 l 254 1221 q 350 1176 304 1221 q 395 1076 395 1124 l 395 1056 q 370 1031 395 1038 q 344 1066 344 1031 q 273 1166 344 1131 l 246 1170 q 63 671 93 1170 q 51 458 51 524 q 177 92 51 172 q 236 73 212 73 q 382 258 321 73 l 389 283 q 303 519 389 441 q 205 549 269 549 l 167 549 l 155 547 q 128 576 134 547 q 177 602 128 602 l 203 604 l 311 594 q 423 602 349 594 q 446 584 436 602 l 441 515 q 474 195 441 467 l 476 144 l 476 134 q 437 2 469 2 l 427 0 q 405 22 405 6 l 405 26 q 423 124 423 81 l 423 171 l 421 205 l 419 205 q 242 22 348 22 l 226 22 q 67 130 145 22 q 0 437 0 249 l 0 478 q 37 924 0 634 q 104 1127 60 1041 q 240 1221 164 1221 m 356 543 q 389 496 380 514 l 391 496 l 391 545 l 356 543 m 269 -44 q 278 -50 269 -44 q 272 -99 287 -56 q 198 -151 257 -142 q 180 -130 180 -146 l 180 -128 q 208 -104 180 -112 q 243 -59 235 -86 q 269 -44 251 -31 z "},"ģ":{"ha":542,"x_min":0,"x_max":476,"o":"m 390 1221 q 399 1215 390 1221 q 393 1165 408 1208 q 319 1114 378 1122 q 300 1135 300 1118 l 300 1137 q 329 1161 300 1153 q 363 1206 355 1179 q 390 1221 372 1234 m 225 1084 l 239 1084 q 335 1039 290 1084 q 380 939 380 987 l 380 919 q 355 895 380 901 q 329 929 329 895 q 258 1029 329 994 l 231 1033 q 72 760 93 996 q 51 458 51 524 q 177 92 51 172 q 236 73 212 73 q 382 258 321 73 l 389 283 q 305 480 391 402 q 208 511 271 511 l 169 511 l 157 509 q 130 537 136 509 q 179 564 130 564 l 205 566 l 313 555 q 425 564 351 555 q 448 545 438 564 l 444 476 q 474 195 444 429 l 476 144 l 476 134 q 437 2 469 2 l 427 0 q 405 22 405 6 l 405 26 q 423 124 423 81 l 423 171 l 421 205 l 419 205 q 242 22 348 22 l 226 22 q 67 130 145 22 q 0 437 0 249 l 0 478 q 22 787 0 634 q 89 990 45 904 q 225 1084 149 1084 m 358 505 q 391 458 382 475 l 393 458 l 393 507 l 358 505 z "},"Ĥ":{"ha":473,"x_min":0,"x_max":397,"o":"m 100 1211 l 106 1211 q 128 1186 125 1211 q 79 773 79 950 l 77 765 l 224 757 l 307 761 l 309 763 l 307 867 q 350 1196 307 1078 l 370 1202 q 395 1176 391 1202 q 360 873 360 1044 l 360 869 q 395 283 360 753 l 397 181 q 374 8 397 8 l 364 6 l 360 6 q 336 31 336 11 q 344 167 344 92 l 344 195 q 313 710 344 296 l 311 710 q 240 706 285 706 l 216 706 q 77 712 155 706 l 77 635 q 120 20 77 394 q 98 0 120 4 l 92 0 q 67 41 67 0 q 24 661 24 371 l 24 716 q 0 739 4 716 l 0 745 q 26 769 0 764 q 79 1198 26 968 q 100 1211 89 1211 m 267 1247 l 199 1316 l 151 1255 q 126 1238 151 1243 q 102 1263 102 1244 l 102 1265 l 184 1366 q 201 1374 193 1374 l 209 1374 q 295 1272 237 1333 q 267 1247 289 1247 z "},"ĥ":{"ha":439,"x_min":2,"x_max":397,"o":"m 304 1189 l 237 1257 l 189 1196 q 164 1180 189 1185 q 140 1204 140 1185 l 140 1206 l 222 1308 q 239 1316 231 1316 l 247 1316 q 333 1213 275 1275 q 304 1189 327 1189 m 95 1084 l 101 1084 q 123 1059 121 1084 q 81 698 81 875 l 79 690 l 226 682 l 309 686 l 311 688 l 309 791 q 345 1069 302 951 l 366 1076 q 390 1049 387 1076 q 362 798 355 918 l 362 793 q 395 283 362 677 l 397 181 q 374 8 397 8 l 364 6 l 360 6 q 336 31 336 11 q 344 167 344 92 l 344 195 q 315 635 344 296 l 313 635 q 222 631 287 631 q 79 637 157 631 l 79 559 q 120 20 77 394 q 98 0 120 4 l 92 0 q 67 41 67 0 q 26 586 24 371 l 26 641 q 2 663 6 641 l 2 669 q 28 694 2 688 q 75 1072 28 892 q 95 1084 84 1084 z "},"Ħ":{"ha":473,"x_min":-16,"x_max":421,"o":"m 100 1211 l 106 1211 q 128 1186 125 1211 q 79 773 79 950 l 77 765 l 224 757 l 307 761 l 309 763 l 307 867 q 350 1196 307 1078 l 370 1202 q 395 1176 391 1202 q 360 873 360 1044 l 360 869 q 395 283 360 753 l 397 181 q 374 8 397 8 l 364 6 l 360 6 q 336 31 336 11 q 344 167 344 92 l 344 195 q 313 710 344 296 l 311 710 q 240 706 285 706 l 216 706 q 77 712 155 706 l 77 635 q 120 20 77 394 q 98 0 120 4 l 92 0 q 67 41 67 0 q 24 661 24 371 l 24 716 q 0 739 4 716 l 0 745 q 26 769 0 764 q 79 1198 26 968 q 100 1211 89 1211 m 324 1029 q 416 1009 416 1025 q 421 995 421 1004 l 421 993 q 401 968 416 968 q 310 979 353 977 l 53 954 l 11 954 q -16 983 -16 958 q 5 1007 -9 1007 l 46 1007 l 286 1029 l 324 1029 z "},"ħ":{"ha":482,"x_min":9,"x_max":458,"o":"m 358 943 q 452 923 452 939 q 458 909 458 918 l 458 907 q 438 882 453 882 q 344 892 388 890 l 80 868 l 37 868 q 9 897 9 871 q 31 921 16 921 l 73 921 l 319 943 l 358 943 m 116 1084 l 122 1084 q 144 1059 142 1084 q 102 698 102 875 l 100 690 l 247 682 l 330 686 l 332 688 l 330 791 q 366 1069 323 951 l 387 1076 q 411 1049 408 1076 q 383 798 376 918 l 383 793 q 416 283 383 677 l 418 181 q 395 8 418 8 l 385 6 l 381 6 q 357 31 357 11 q 365 167 365 92 l 365 195 q 336 635 365 296 l 334 635 q 243 631 308 631 q 100 637 178 631 l 100 559 q 141 20 98 394 q 119 0 141 4 l 113 0 q 88 41 88 0 q 47 586 45 371 l 47 641 q 23 663 27 641 l 23 669 q 50 694 23 688 q 96 1072 50 892 q 116 1084 105 1084 z "},"Ĩ":{"ha":309,"x_min":-43,"x_max":323,"o":"m 126 1202 l 134 1202 q 171 1194 155 1194 l 240 1194 q 267 1172 267 1191 l 267 1166 q 236 1141 267 1141 l 161 1143 q 173 820 173 985 l 157 53 l 187 53 l 226 55 q 248 31 248 48 l 248 26 q 228 2 248 11 l 173 0 l 26 2 q 4 28 7 2 l 4 31 q 35 55 4 55 l 104 53 q 120 816 120 669 l 120 834 q 108 1143 120 1005 l 106 1143 l 18 1145 q 0 1168 0 1155 l 0 1174 q 22 1196 3 1196 l 112 1196 q 126 1202 119 1202 m 90 1350 q 166 1307 123 1345 l 196 1301 l 211 1299 q 296 1318 254 1292 l 303 1318 l 307 1318 q 323 1294 323 1316 q 229 1253 319 1265 l 201 1256 l 193 1257 q 88 1306 150 1263 l 75 1308 q -7 1261 24 1316 l -24 1258 q -41 1281 -43 1265 l -41 1284 q 90 1350 -1 1363 z "},"ĩ":{"ha":306,"x_min":-1,"x_max":267,"o":"m 90 1191 q 142 1148 113 1186 l 163 1142 l 173 1140 q 231 1159 202 1133 l 236 1160 l 238 1160 q 250 1135 250 1157 q 185 1095 247 1107 l 166 1097 l 160 1099 q 89 1147 131 1105 l 80 1149 q 24 1102 45 1157 l 12 1099 q 1 1122 -1 1106 l 1 1126 q 90 1191 28 1204 m 171 1061 l 240 1061 q 267 1038 267 1057 l 267 1032 q 236 1008 267 1008 l 161 1010 q 173 686 173 851 l 157 53 l 187 53 l 226 55 q 248 31 248 48 l 248 26 q 228 2 248 11 l 173 0 l 26 2 q 4 28 7 2 l 4 31 q 35 55 4 55 l 104 53 q 120 682 120 535 l 120 701 q 108 1010 120 871 l 106 1010 l 18 1012 q 0 1034 0 1021 l 0 1040 q 22 1063 3 1063 l 171 1061 z "},"Ī":{"ha":309,"x_min":-27,"x_max":295,"o":"m 126 1202 l 134 1202 q 171 1194 155 1194 l 240 1194 q 267 1172 267 1191 l 267 1166 q 236 1141 267 1141 l 161 1143 q 173 820 173 985 l 157 53 l 187 53 l 226 55 q 248 31 248 48 l 248 26 q 228 2 248 11 l 173 0 l 26 2 q 4 28 7 2 l 4 31 q 35 55 4 55 l 104 53 q 120 816 120 669 l 120 834 q 108 1143 120 1005 l 106 1143 l 18 1145 q 0 1168 0 1155 l 0 1174 q 22 1196 3 1196 l 112 1196 q 126 1202 119 1202 m 189 1346 q 289 1326 289 1342 q 295 1313 295 1322 l 295 1312 q 274 1288 290 1288 q 173 1298 220 1296 l 48 1286 l 2 1286 q -27 1313 -27 1289 q -4 1336 -20 1336 l 41 1336 l 146 1346 l 189 1346 z "},"ī":{"ha":313,"x_min":0,"x_max":278,"o":"m 192 1201 q 273 1181 273 1197 q 278 1168 278 1177 l 278 1166 q 261 1143 274 1143 q 180 1153 218 1151 l 79 1141 l 42 1141 q 18 1168 18 1143 q 37 1191 24 1191 l 73 1191 l 158 1201 l 192 1201 m 171 1061 l 240 1061 q 267 1038 267 1057 l 267 1032 q 236 1008 267 1008 l 161 1010 q 173 686 173 851 l 157 53 l 187 53 l 226 55 q 248 31 248 48 l 248 26 q 228 2 248 11 l 173 0 l 26 2 q 4 28 7 2 l 4 31 q 35 55 4 55 l 104 53 q 120 682 120 535 l 120 701 q 108 1010 120 871 l 106 1010 l 18 1012 q 0 1034 0 1021 l 0 1040 q 22 1063 3 1063 l 171 1061 z "},"Ĭ":{"ha":309,"x_min":0,"x_max":267,"o":"m 126 1202 l 134 1202 q 171 1194 155 1194 l 240 1194 q 267 1172 267 1191 l 267 1166 q 236 1141 267 1141 l 161 1143 q 173 820 173 985 l 157 53 l 187 53 l 226 55 q 248 31 248 48 l 248 26 q 228 2 248 11 l 173 0 l 26 2 q 4 28 7 2 l 4 31 q 35 55 4 55 l 104 53 q 120 816 120 669 l 120 834 q 108 1143 120 1005 l 106 1143 l 18 1145 q 0 1168 0 1155 l 0 1174 q 22 1196 3 1196 l 112 1196 q 126 1202 119 1202 m 222 1335 q 250 1310 244 1335 q 133 1245 218 1249 q 30 1318 49 1241 l 30 1320 q 54 1344 30 1339 q 222 1335 124 1232 z "},"ĭ":{"ha":302,"x_min":0,"x_max":267,"o":"m 224 1212 q 253 1187 247 1212 q 136 1122 220 1126 q 33 1195 52 1118 l 33 1197 q 57 1221 33 1216 q 224 1212 127 1109 m 171 1061 l 240 1061 q 267 1038 267 1057 l 267 1032 q 236 1008 267 1008 l 161 1010 q 173 686 173 851 l 157 53 l 187 53 l 226 55 q 248 31 248 48 l 248 26 q 228 2 248 11 l 173 0 l 26 2 q 4 28 7 2 l 4 31 q 35 55 4 55 l 104 53 q 120 682 120 535 l 120 701 q 108 1010 120 871 l 106 1010 l 18 1012 q 0 1034 0 1021 l 0 1040 q 22 1063 3 1063 l 171 1061 z "},"Į":{"ha":309,"x_min":0,"x_max":267,"o":"m 126 1202 l 134 1202 q 171 1194 155 1194 l 240 1194 q 267 1172 267 1191 l 267 1166 q 236 1141 267 1141 l 161 1143 q 173 820 173 985 l 157 53 l 187 53 l 226 55 q 248 31 248 48 l 248 26 q 228 2 248 11 l 173 0 l 26 2 q 4 28 7 2 l 4 31 q 35 55 4 55 l 104 53 q 120 816 120 669 l 120 834 q 108 1143 120 1005 l 106 1143 l 18 1145 q 0 1168 0 1155 l 0 1174 q 22 1196 3 1196 l 112 1196 q 126 1202 119 1202 m 161 -151 q 126 -150 161 -151 q 98 -79 90 -149 q 113 -8 105 -8 q 126 32 91 37 q 156 -14 162 26 q 147 -75 146 -37 q 186 -101 148 -114 q 226 -69 225 -88 q 262 -67 227 -50 q 161 -151 232 -152 z "},"į":{"ha":308,"x_min":0,"x_max":267,"o":"m 163 -138 q 128 -137 163 -138 q 100 -66 92 -136 q 115 5 107 5 q 129 44 93 50 q 158 -1 164 39 q 149 -62 148 -24 q 189 -88 150 -101 q 229 -56 227 -75 q 264 -54 230 -37 q 163 -138 234 -139 m 171 1061 l 240 1061 q 267 1038 267 1057 l 267 1032 q 236 1008 267 1008 l 161 1010 q 173 686 173 851 l 157 53 l 187 53 l 226 55 q 248 31 248 48 l 248 26 q 228 2 248 11 l 173 0 l 26 2 q 4 28 7 2 l 4 31 q 35 55 4 55 l 104 53 q 120 682 120 535 l 120 701 q 108 1010 120 871 l 106 1010 l 18 1012 q 0 1034 0 1021 l 0 1040 q 22 1063 3 1063 l 171 1061 z "},"İ":{"ha":309,"x_min":0,"x_max":267,"o":"m 133 1222 q 172 1175 172 1206 l 172 1163 q 126 1128 172 1133 q 83 1179 96 1128 q 133 1222 83 1222 m 171 1061 l 240 1061 q 267 1038 267 1057 l 267 1032 q 236 1008 267 1008 l 161 1010 q 173 686 173 851 l 157 53 l 187 53 l 226 55 q 248 31 248 48 l 248 26 q 228 2 248 11 l 173 0 l 26 2 q 4 28 7 2 l 4 31 q 35 55 4 55 l 104 53 q 120 682 120 535 l 120 701 q 108 1010 120 871 l 106 1010 l 18 1012 q 0 1034 0 1021 l 0 1040 q 22 1063 3 1063 l 171 1061 z "},"Ĳ":{"ha":0,"x_min":0,"x_max":0,"o":""},"ĳ":{"ha":0,"x_min":0,"x_max":0,"o":""},"Ĵ":{"ha":526,"x_min":-7,"x_max":527,"o":"m 429 1200 l 503 1200 q 527 1176 527 1196 l 527 1172 q 505 1147 527 1155 l 458 1149 l 346 1147 l 346 1145 q 396 484 396 713 l 396 446 q 280 39 396 114 q 168 4 213 4 l 160 4 q -1 175 39 4 q -7 240 -7 211 l -7 271 q 14 328 -7 328 l 24 330 q 48 305 41 330 l 44 254 q 130 61 44 109 l 162 55 q 268 96 210 55 q 345 466 345 179 q 293 1145 345 696 l 142 1139 q 124 1166 124 1148 q 179 1192 124 1192 q 429 1200 314 1200 m 396 1270 l 329 1338 l 280 1277 q 256 1261 280 1265 q 231 1285 231 1266 l 231 1287 l 314 1388 q 330 1396 323 1396 l 338 1396 q 425 1294 367 1356 q 396 1270 418 1270 z "},"ĵ":{"ha":553,"x_min":-7,"x_max":536,"o":"m 384 1128 l 317 1196 l 268 1135 q 243 1119 268 1124 q 219 1143 219 1124 l 219 1145 l 302 1246 q 318 1255 311 1255 l 326 1255 q 412 1152 355 1214 q 384 1128 406 1128 m 439 1070 l 512 1070 q 536 1046 536 1065 l 536 1042 q 514 1017 536 1025 l 467 1019 l 355 1017 l 355 1015 q 396 484 396 713 l 396 446 q 280 39 396 114 q 168 4 213 4 l 160 4 q -1 175 39 4 q -7 240 -7 211 l -7 271 q 14 328 -7 328 l 24 330 q 48 305 41 330 l 44 254 q 130 61 44 109 l 162 55 q 268 96 210 55 q 345 466 345 179 q 302 1015 345 696 l 152 1009 q 134 1036 134 1018 q 189 1062 134 1062 q 439 1070 323 1070 z "},"Ķ":{"ha":475,"x_min":0,"x_max":474,"o":"m 63 1210 l 71 1210 q 94 1187 87 1210 q 67 810 75 1000 q 277 1046 262 1007 q 319 1086 306 1086 l 326 1086 q 348 1064 342 1086 l 348 1058 q 222 893 348 1040 l 65 730 q 236 549 180 633 q 474 26 340 405 q 446 2 474 8 q 405 67 422 2 q 240 446 304 333 q 85 645 199 525 l 65 661 l 65 596 q 83 22 65 378 q 59 0 77 0 l 53 0 q 28 55 28 0 q 12 637 12 414 l 12 704 q 0 724 0 716 l 0 730 q 14 757 0 738 q 43 1196 14 933 q 63 1210 53 1210 m 255 23 q 264 16 255 23 q 258 -33 273 10 q 184 -84 243 -76 q 166 -64 166 -80 l 166 -62 q 195 -37 166 -45 q 229 8 221 -20 q 255 23 237 35 z "},"ķ":{"ha":458,"x_min":11,"x_max":432,"o":"m 190 2 q 199 -4 190 2 q 193 -53 208 -10 q 119 -104 178 -96 q 100 -84 100 -100 l 100 -82 q 129 -58 100 -66 q 163 -13 155 -40 q 190 2 172 15 m 67 1071 l 75 1071 q 98 1048 92 1071 q 78 711 86 901 q 288 947 273 908 q 330 987 317 987 l 336 987 q 359 965 353 987 l 359 959 q 233 794 359 941 l 76 631 q 247 450 191 534 q 432 21 351 306 q 404 -3 432 3 q 363 62 380 -3 q 251 347 315 234 q 96 546 210 426 l 76 562 l 76 497 q 85 14 76 279 q 61 -9 79 -9 l 55 -9 q 31 46 31 -9 q 23 538 23 315 l 23 605 q 11 625 11 617 l 11 631 q 25 658 11 639 q 47 1057 25 834 q 67 1071 57 1071 z "},"ĸ":{"ha":473,"x_min":11,"x_max":432,"o":"m 68 1038 l 77 1038 q 99 1015 93 1038 q 78 711 81 828 q 288 947 273 908 q 330 987 317 987 l 336 987 q 359 965 353 987 l 359 959 q 233 794 359 941 l 76 631 q 247 450 191 534 q 432 21 351 306 q 404 -3 432 3 q 363 62 380 -3 q 251 347 315 234 q 96 546 210 426 l 76 562 l 76 497 q 85 14 76 279 q 61 -9 79 -9 l 55 -9 q 31 46 31 -9 q 23 538 23 315 l 23 605 q 11 625 11 617 l 11 631 q 25 658 11 639 q 48 1023 25 834 q 68 1038 58 1038 z "},"Ĺ":{"ha":407,"x_min":0,"x_max":363,"o":"m 53 1208 l 61 1208 q 83 1184 78 1208 q 51 759 51 981 q 62 56 51 494 q 138 68 86 64 l 307 54 l 327 54 l 339 56 q 363 33 363 50 l 363 25 q 313 1 363 1 l 138 15 q 44 -12 90 15 l 36 -12 q 16 13 16 -3 q 0 724 0 450 l 0 795 q 35 1198 0 1020 q 53 1208 45 1208 m 137 1352 q 146 1346 137 1352 q 140 1296 155 1339 q 66 1245 125 1253 q 48 1265 48 1249 l 48 1267 q 77 1292 48 1284 q 111 1337 103 1310 q 137 1352 119 1364 z "},"ĺ":{"ha":374,"x_min":30,"x_max":342,"o":"m 230 1109 q 239 1103 230 1109 q 233 1054 248 1097 q 159 1002 218 1010 q 140 1023 140 1006 l 140 1025 q 169 1049 140 1041 q 203 1094 195 1067 q 230 1109 212 1122 m 83 1090 l 91 1090 q 113 1065 108 1090 q 81 640 81 862 q 92 56 81 376 q 168 68 116 64 l 286 54 l 306 54 l 318 56 q 342 33 342 50 l 342 25 q 292 1 342 1 l 168 15 q 74 -12 119 15 l 66 -12 q 45 13 45 -3 q 30 606 30 332 l 30 677 q 64 1080 30 901 q 83 1090 75 1090 z "},"Ļ":{"ha":407,"x_min":0,"x_max":363,"o":"m 53 1208 l 61 1208 q 83 1184 78 1208 q 51 759 51 981 q 62 56 51 494 q 138 68 86 64 l 307 54 l 327 54 l 339 56 q 363 33 363 50 l 363 25 q 313 1 363 1 l 138 15 q 44 -12 90 15 l 36 -12 q 16 13 16 -3 q 0 724 0 450 l 0 795 q 35 1198 0 1020 q 53 1208 45 1208 m 210 -57 q 219 -64 210 -57 q 213 -113 228 -70 q 139 -164 198 -156 q 121 -144 121 -160 l 121 -142 q 149 -117 121 -125 q 184 -72 176 -100 q 210 -57 192 -45 z "},"ļ":{"ha":376,"x_min":24,"x_max":337,"o":"m 131 -36 q 140 -43 131 -36 q 134 -92 149 -49 q 60 -143 119 -135 q 41 -123 41 -139 l 41 -121 q 70 -96 41 -104 q 104 -51 96 -79 q 131 -36 113 -24 m 77 1090 l 85 1090 q 108 1065 102 1090 q 75 640 75 862 q 87 56 75 376 q 162 68 111 64 l 280 54 l 300 54 l 313 56 q 337 33 337 50 l 337 25 q 286 1 337 1 l 162 15 q 68 -12 114 15 l 60 -12 q 40 13 40 -3 q 24 606 24 332 l 24 677 q 59 1080 24 901 q 77 1090 70 1090 z "},"Ľ":{"ha":407,"x_min":0,"x_max":363,"o":"m 53 1208 l 61 1208 q 83 1184 78 1208 q 51 759 51 981 q 62 56 51 494 q 138 68 86 64 l 307 54 l 327 54 l 339 56 q 363 33 363 50 l 363 25 q 313 1 363 1 l 138 15 q 44 -12 90 15 l 36 -12 q 16 13 16 -3 q 0 724 0 450 l 0 795 q 35 1198 0 1020 q 53 1208 45 1208 m 224 1322 q 252 1298 246 1322 q 166 1196 195 1236 l 158 1196 q 142 1204 151 1196 l 59 1305 l 59 1307 q 83 1331 59 1326 q 108 1315 108 1326 l 157 1254 l 224 1322 z "},"ľ":{"ha":370,"x_min":33,"x_max":346,"o":"m 190 1058 q 201 1059 190 1058 q 227 1016 212 1059 q 200 930 241 973 q 173 935 183 922 l 172 937 q 179 974 162 949 q 179 1030 189 1004 q 190 1058 168 1057 m 86 1090 l 94 1090 q 117 1065 111 1090 q 84 640 84 862 q 96 56 84 376 q 171 68 119 64 l 289 54 l 309 54 l 321 56 q 346 33 346 50 l 346 25 q 295 1 346 1 l 171 15 q 77 -12 123 15 l 69 -12 q 49 13 49 -3 q 33 606 33 332 l 33 677 q 68 1080 33 901 q 86 1090 79 1090 z "},"Ŀ":{"ha":407,"x_min":0,"x_max":363,"o":"m 53 1208 l 61 1208 q 83 1184 78 1208 q 51 759 51 981 q 62 56 51 494 q 138 68 86 64 l 307 54 l 327 54 l 339 56 q 363 33 363 50 l 363 25 q 313 1 363 1 l 138 15 q 44 -12 90 15 l 36 -12 q 16 13 16 -3 q 0 724 0 450 l 0 795 q 35 1198 0 1020 q 53 1208 45 1208 m 168 1021 q 207 975 207 1006 l 207 962 q 161 928 207 932 q 118 978 130 928 q 168 1021 118 1021 z "},"ŀ":{"ha":374,"x_min":30,"x_max":342,"o":"m 243 1002 q 282 956 282 987 l 282 943 q 236 909 282 913 q 193 959 205 909 q 243 1002 193 1002 m 83 1093 l 91 1093 q 113 1069 108 1093 q 81 644 81 865 q 92 59 81 379 q 168 71 116 67 l 286 57 l 306 57 l 318 59 q 342 37 342 54 l 342 28 q 292 4 342 4 l 168 18 q 74 -8 119 18 l 66 -8 q 45 16 45 0 q 30 609 30 335 l 30 680 q 64 1083 30 905 q 83 1093 75 1093 z "},"Ł":{"ha":454,"x_min":-31,"x_max":411,"o":"m 100 1208 l 109 1208 q 131 1184 125 1208 q 98 759 98 981 q 110 56 98 494 q 185 68 134 64 l 354 54 l 374 54 l 387 56 q 411 33 411 50 l 411 25 q 360 1 411 1 l 185 15 q 92 -12 137 15 l 83 -12 q 63 13 63 -3 q 47 724 47 450 l 47 795 q 82 1198 47 1020 q 100 1208 93 1208 m 94 930 q 174 996 162 1005 q 188 991 181 997 l 189 990 q 193 959 204 971 q 122 888 153 922 l 52 784 l 22 748 q -18 743 1 728 q -20 776 -31 763 l 8 810 l 67 897 l 94 930 z "},"ł":{"ha":390,"x_min":-24,"x_max":361,"o":"m 112 830 q 195 890 184 901 q 209 885 202 891 l 210 884 q 213 852 224 864 q 136 785 170 819 l 60 686 l 28 652 q -12 650 6 633 q -12 682 -24 670 l 18 715 l 83 799 l 112 830 m 101 1092 l 109 1092 q 132 1067 126 1092 q 99 642 99 864 q 111 58 99 378 q 186 70 134 66 l 304 56 l 324 56 l 336 58 q 361 35 361 52 l 361 27 q 310 3 361 3 l 186 17 q 92 -9 138 17 l 84 -9 q 64 15 64 -1 q 48 608 48 334 l 48 679 q 83 1082 48 903 q 101 1092 94 1092 z "},"Ń":{"ha":653,"x_min":0,"x_max":584,"o":"m 49 1202 l 55 1202 q 142 1099 82 1200 q 317 637 209 977 q 423 387 344 568 l 529 126 l 531 126 l 531 171 q 507 665 531 301 l 507 907 q 480 1135 507 1070 l 480 1137 q 505 1164 480 1155 q 547 1086 536 1164 q 559 881 559 1019 l 559 669 l 580 319 l 584 175 q 559 2 584 2 l 547 0 q 507 55 527 0 q 330 476 453 166 q 181 879 277 579 q 69 1115 118 1050 q 51 771 51 913 q 124 28 51 409 q 96 4 119 4 q 63 73 68 4 q 0 736 0 417 l 0 806 q 28 1190 0 1013 q 49 1202 38 1202 m 455 1338 q 464 1332 455 1338 q 458 1283 473 1326 q 385 1232 444 1240 q 366 1252 366 1236 l 366 1254 q 395 1278 366 1270 q 429 1323 421 1296 q 455 1338 437 1351 z "},"ń":{"ha":635,"x_min":7,"x_max":587,"o":"m 499 1226 q 508 1220 499 1226 q 503 1171 517 1214 q 429 1120 488 1128 q 410 1140 410 1124 l 410 1142 q 439 1166 410 1158 q 473 1212 465 1184 q 499 1226 481 1239 m 56 1095 l 62 1095 q 150 991 90 1093 q 529 126 216 869 l 531 126 l 531 171 q 514 557 538 193 l 514 800 q 488 1027 514 962 l 488 1029 q 512 1056 488 1047 q 555 979 544 1056 q 567 773 567 911 l 567 562 l 587 212 l 584 175 q 559 2 584 2 l 547 0 q 507 55 527 0 q 189 771 453 166 q 77 1007 125 943 q 58 663 58 806 q 124 28 58 301 q 96 4 119 4 q 63 73 68 4 q 7 629 7 309 l 7 698 q 36 1082 7 905 q 56 1095 45 1095 z "},"Ņ":{"ha":653,"x_min":0,"x_max":584,"o":"m 49 1202 l 55 1202 q 142 1099 82 1200 q 317 637 209 977 q 423 387 344 568 l 529 126 l 531 126 l 531 171 q 507 665 531 301 l 507 907 q 480 1135 507 1070 l 480 1137 q 505 1164 480 1155 q 547 1086 536 1164 q 559 881 559 1019 l 559 669 l 580 319 l 584 175 q 559 2 584 2 l 547 0 q 507 55 527 0 q 330 476 453 166 q 181 879 277 579 q 69 1115 118 1050 q 51 771 51 913 q 124 28 51 409 q 96 4 119 4 q 63 73 68 4 q 0 736 0 417 l 0 806 q 28 1190 0 1013 q 49 1202 38 1202 m 322 -21 q 331 -27 322 -21 q 325 -76 340 -33 q 251 -127 310 -119 q 233 -107 233 -123 l 233 -105 q 261 -81 233 -89 q 296 -36 288 -63 q 322 -21 304 -8 z "},"ņ":{"ha":630,"x_min":7,"x_max":587,"o":"m 249 4 q 258 -2 249 4 q 252 -51 267 -8 q 178 -102 237 -94 q 159 -82 159 -98 l 159 -80 q 188 -56 159 -64 q 222 -11 214 -38 q 249 4 231 17 m 56 1095 l 62 1095 q 150 991 90 1093 q 529 126 216 869 l 531 126 l 531 171 q 514 557 538 193 l 514 800 q 488 1027 514 962 l 488 1029 q 512 1056 488 1047 q 555 979 544 1056 q 567 773 567 911 l 567 562 l 587 212 l 584 175 q 559 2 584 2 l 547 0 q 507 55 527 0 q 189 771 453 166 q 77 1007 125 943 q 58 663 58 806 q 124 28 58 301 q 96 4 119 4 q 63 73 68 4 q 7 629 7 309 l 7 698 q 36 1082 7 905 q 56 1095 45 1095 z "},"Ň":{"ha":653,"x_min":0,"x_max":584,"o":"m 49 1202 l 55 1202 q 142 1099 82 1200 q 317 637 209 977 q 423 387 344 568 l 529 126 l 531 126 l 531 171 q 507 665 531 301 l 507 907 q 480 1135 507 1070 l 480 1137 q 505 1164 480 1155 q 547 1086 536 1164 q 559 881 559 1019 l 559 669 l 580 319 l 584 175 q 559 2 584 2 l 547 0 q 507 55 527 0 q 330 476 453 166 q 181 879 277 579 q 69 1115 118 1050 q 51 771 51 913 q 124 28 51 409 q 96 4 119 4 q 63 73 68 4 q 0 736 0 417 l 0 806 q 28 1190 0 1013 q 49 1202 38 1202 m 267 1365 q 295 1341 289 1365 q 209 1238 237 1279 l 201 1238 q 184 1246 193 1238 l 102 1348 l 102 1350 q 126 1374 102 1369 q 151 1358 151 1369 l 199 1297 l 267 1365 z "},"ň":{"ha":632,"x_min":7,"x_max":587,"o":"m 374 1246 q 403 1221 397 1246 q 317 1119 345 1160 l 309 1119 q 292 1127 301 1119 l 210 1228 l 210 1230 q 234 1255 210 1249 q 258 1238 258 1250 l 307 1177 l 374 1246 m 56 1095 l 62 1095 q 150 991 90 1093 q 529 126 216 869 l 531 126 l 531 171 q 514 557 538 193 l 514 800 q 488 1027 514 962 l 488 1029 q 512 1056 488 1047 q 555 979 544 1056 q 567 773 567 911 l 567 562 l 587 212 l 584 175 q 559 2 584 2 l 547 0 q 507 55 527 0 q 189 771 453 166 q 77 1007 125 943 q 58 663 58 806 q 124 28 58 301 q 96 4 119 4 q 63 73 68 4 q 7 629 7 309 l 7 698 q 36 1082 7 905 q 56 1095 45 1095 z "},"ŉ":{"ha":680,"x_min":-4,"x_max":635,"o":"m 51 1161 q 61 1159 51 1161 q 75 1112 72 1157 q 28 1035 79 1066 q 3 1046 9 1031 l 3 1048 q 19 1082 -4 1063 q 33 1137 36 1109 q 51 1161 29 1166 m 104 1095 l 110 1095 q 197 991 137 1093 q 576 126 264 869 l 578 126 l 578 171 q 562 557 586 193 l 562 800 q 535 1027 562 962 l 535 1029 q 559 1056 535 1047 q 602 979 591 1056 q 614 773 614 911 l 614 562 l 635 212 l 631 175 q 607 2 631 2 l 595 0 q 554 55 574 0 q 236 771 500 166 q 124 1007 173 943 q 106 663 106 806 q 172 28 106 301 q 143 4 166 4 q 111 73 116 4 q 55 629 55 309 l 55 698 q 83 1082 55 905 q 104 1095 93 1095 z "},"Ŋ":{"ha":652,"x_min":7,"x_max":590,"o":"m 519 -119 q 484 -119 519 -119 q 418 -35 448 -120 q 454 -37 453 -18 q 494 -69 455 -56 q 533 -43 532 -82 q 524 18 534 -5 q 554 63 518 58 q 568 24 589 69 q 583 -47 575 24 q 519 -119 590 -117 m 64 1217 l 70 1217 q 157 1114 97 1215 q 529 126 224 992 l 531 126 l 531 171 q 522 680 538 193 l 522 922 q 495 1150 522 1085 l 495 1152 q 519 1179 495 1170 q 562 1101 551 1179 q 574 896 574 1034 l 574 684 l 587 212 l 584 175 q 559 2 584 2 l 547 0 q 507 55 527 0 q 196 894 453 166 q 84 1130 133 1065 q 66 786 66 928 q 124 28 58 301 q 96 4 119 4 q 63 73 68 4 q 15 751 7 309 l 15 821 q 43 1205 15 1028 q 64 1217 53 1217 z "},"ŋ":{"ha":633,"x_min":7,"x_max":590,"o":"m 519 -115 q 484 -116 519 -115 q 418 -32 448 -117 q 454 -34 453 -15 q 494 -66 455 -53 q 533 -40 532 -79 q 524 22 534 -1 q 548 71 518 61 q 568 27 577 81 q 583 -43 575 27 q 519 -115 590 -114 m 56 1095 l 62 1095 q 150 991 90 1093 q 529 126 216 869 l 531 126 l 531 171 q 514 557 538 193 l 514 800 q 488 1027 514 962 l 488 1029 q 512 1056 488 1047 q 555 979 544 1056 q 567 773 567 911 l 567 562 l 587 212 l 584 175 q 559 2 584 2 l 547 0 q 507 55 527 0 q 189 771 453 166 q 77 1007 125 943 q 58 663 58 806 q 124 28 58 301 q 96 4 119 4 q 63 73 68 4 q 7 629 7 309 l 7 698 q 36 1082 7 905 q 56 1095 45 1095 z "},"Ō":{"ha":614,"x_min":0,"x_max":555,"o":"m 285 1213 q 505 999 424 1213 q 555 606 555 829 l 555 588 q 393 41 555 186 q 271 0 336 0 q 10 291 66 0 q 0 417 0 361 l 0 460 q 132 1025 0 735 q 224 1158 168 1091 l 224 1160 q 205 1182 210 1160 l 205 1186 q 242 1213 210 1213 l 285 1213 m 303 1158 q 258 1117 303 1154 q 98 777 157 1005 q 51 439 51 599 q 199 67 57 131 q 267 53 233 53 l 275 53 q 494 429 446 53 q 503 572 503 503 l 503 623 q 425 1052 503 892 q 303 1158 359 1158 m 352 1326 q 452 1306 452 1322 q 458 1293 458 1302 l 458 1291 q 437 1267 453 1267 q 336 1278 384 1276 l 212 1265 l 165 1265 q 136 1293 136 1268 q 159 1316 143 1316 l 204 1316 l 309 1326 l 352 1326 z "},"ō":{"ha":608,"x_min":0,"x_max":555,"o":"m 347 1212 q 448 1192 448 1208 q 454 1179 454 1188 l 454 1177 q 433 1154 448 1154 q 332 1164 379 1162 l 207 1152 l 161 1152 q 132 1179 132 1154 q 155 1202 138 1202 l 199 1202 l 304 1212 l 347 1212 m 285 1095 q 505 882 424 1095 q 544 439 555 711 q 459 80 532 166 q 271 0 386 -7 q 10 291 41 -2 q 17 541 0 361 q 132 908 35 720 q 224 1040 168 974 l 224 1042 q 205 1065 210 1042 l 205 1069 q 242 1095 210 1095 l 285 1095 m 303 1040 q 258 1000 303 1037 q 103 718 157 888 q 53 339 49 547 q 151 83 57 131 q 343 55 244 35 q 472 231 442 76 q 503 580 503 385 q 425 935 503 775 q 303 1040 359 1040 z "},"Ŏ":{"ha":614,"x_min":0,"x_max":555,"o":"m 285 1213 q 505 999 424 1213 q 555 606 555 829 l 555 588 q 393 41 555 186 q 271 0 336 0 q 10 291 66 0 q 0 417 0 361 l 0 460 q 132 1025 0 735 q 224 1158 168 1091 l 224 1160 q 205 1182 210 1160 l 205 1186 q 242 1213 210 1213 l 285 1213 m 303 1158 q 258 1117 303 1154 q 98 777 157 1005 q 51 439 51 599 q 199 67 57 131 q 267 53 233 53 l 275 53 q 494 429 446 53 q 503 572 503 503 l 503 623 q 425 1052 503 892 q 303 1158 359 1158 m 390 1343 q 418 1319 412 1343 q 301 1254 386 1258 q 198 1326 217 1250 l 198 1329 q 222 1353 198 1348 q 390 1343 292 1241 z "},"ŏ":{"ha":602,"x_min":0,"x_max":555,"o":"m 362 1261 q 391 1237 385 1261 q 274 1172 358 1176 q 170 1244 189 1168 l 170 1246 q 195 1271 170 1265 q 362 1261 264 1159 m 285 1095 q 505 882 424 1095 q 544 439 555 711 q 459 80 532 166 q 271 0 386 -7 q 10 291 41 -2 q 17 541 0 361 q 132 908 35 720 q 224 1040 168 974 l 224 1042 q 205 1065 210 1042 l 205 1069 q 242 1095 210 1095 l 285 1095 m 303 1040 q 258 1000 303 1037 q 103 718 157 888 q 53 339 49 547 q 151 83 57 131 q 343 55 244 35 q 472 231 442 76 q 503 580 503 385 q 425 935 503 775 q 303 1040 359 1040 z "},"Ő":{"ha":614,"x_min":0,"x_max":555,"o":"m 285 1213 q 505 999 424 1213 q 555 606 555 829 l 555 588 q 393 41 555 186 q 271 0 336 0 q 10 291 66 0 q 0 417 0 361 l 0 460 q 132 1025 0 735 q 224 1158 168 1091 l 224 1160 q 205 1182 210 1160 l 205 1186 q 242 1213 210 1213 l 285 1213 m 303 1158 q 258 1117 303 1154 q 98 777 157 1005 q 51 439 51 599 q 199 67 57 131 q 267 53 233 53 l 275 53 q 494 429 446 53 q 503 572 503 503 l 503 623 q 425 1052 503 892 q 303 1158 359 1158 m 319 1359 q 328 1352 319 1359 q 322 1303 337 1346 q 248 1252 307 1260 q 230 1272 230 1256 l 230 1274 q 258 1299 230 1291 q 293 1344 285 1316 q 319 1359 301 1371 m 428 1359 q 437 1352 428 1359 q 431 1303 446 1346 q 357 1252 416 1260 q 339 1272 339 1256 l 339 1274 q 368 1299 339 1291 q 402 1344 394 1316 q 428 1359 410 1371 z "},"ő":{"ha":610,"x_min":0,"x_max":555,"o":"m 337 1258 q 346 1251 337 1258 q 340 1202 355 1245 q 266 1151 325 1159 q 248 1171 248 1155 l 248 1173 q 276 1198 248 1190 q 311 1243 302 1215 q 337 1258 319 1270 m 434 1252 q 443 1245 434 1252 q 437 1196 452 1239 q 363 1145 422 1153 q 345 1165 345 1149 l 345 1167 q 374 1192 345 1183 q 408 1237 400 1209 q 434 1252 416 1264 m 285 1095 q 505 882 424 1095 q 544 439 555 711 q 459 80 532 166 q 271 0 386 -7 q 10 291 41 -2 q 17 541 0 361 q 132 908 35 720 q 224 1040 168 974 l 224 1042 q 205 1065 210 1042 l 205 1069 q 242 1095 210 1095 l 285 1095 m 303 1040 q 258 1000 303 1037 q 103 718 157 888 q 53 339 49 547 q 151 83 57 131 q 343 55 244 35 q 472 231 442 76 q 503 580 503 385 q 425 935 503 775 q 303 1040 359 1040 z "},"Œ":{"ha":947,"x_min":0,"x_max":958,"o":"m 285 1213 q 505 999 424 1213 q 555 606 555 829 l 555 588 q 393 41 555 186 q 271 0 336 0 q 10 291 66 0 q 0 417 0 361 l 0 460 q 132 1025 0 735 q 224 1158 168 1091 l 224 1160 q 205 1182 210 1160 l 205 1186 q 242 1213 210 1213 l 285 1213 m 303 1158 q 258 1117 303 1154 q 98 777 157 1005 q 51 439 51 599 q 199 67 57 131 q 267 53 233 53 l 275 53 q 494 429 446 53 q 503 572 503 503 l 503 623 q 425 1052 503 892 q 303 1158 359 1158 m 878 1191 q 899 1168 895 1191 l 899 1162 q 848 1136 899 1136 q 722 1124 784 1124 l 715 1124 q 589 1132 662 1124 q 567 890 567 1029 l 569 784 q 575 774 572 774 l 644 774 q 762 782 684 774 q 783 760 783 774 l 783 753 q 728 727 783 727 q 634 721 696 721 l 593 721 l 573 723 q 616 192 616 318 l 616 190 l 618 165 l 616 141 l 616 133 q 612 41 616 77 l 632 41 q 933 54 706 41 q 958 25 953 54 q 909 1 958 1 q 612 -12 718 -12 l 581 -12 q 557 13 557 -7 q 565 165 565 102 q 522 719 565 283 q 510 745 522 725 l 510 755 q 518 770 510 766 l 514 894 q 547 1177 514 1054 l 565 1187 q 705 1177 659 1177 l 730 1177 q 878 1191 768 1177 z "},"œ":{"ha":981,"x_min":0,"x_max":947,"o":"m 285 1095 q 505 882 424 1095 q 544 439 555 711 q 459 80 532 166 q 271 0 386 -7 q 10 291 41 -2 q 17 541 0 361 q 132 908 35 720 q 224 1040 168 974 l 224 1042 q 205 1065 210 1042 l 205 1069 q 242 1095 210 1095 l 285 1095 m 303 1040 q 258 1000 303 1037 q 103 718 157 888 q 53 339 49 547 q 151 83 57 131 q 343 55 244 35 q 472 231 442 76 q 503 580 503 385 q 425 935 503 775 q 303 1040 359 1040 m 869 1084 q 890 1061 886 1084 l 890 1055 q 839 1029 890 1029 q 713 1017 775 1017 l 707 1017 q 581 1025 653 1017 q 560 832 558 922 l 562 726 q 568 716 565 716 l 637 716 q 755 724 677 716 q 776 702 776 717 l 776 696 q 721 669 776 669 q 627 663 689 663 l 587 663 l 566 665 q 606 211 606 337 l 606 209 l 608 184 l 606 160 l 606 152 q 602 60 606 96 l 622 60 q 923 73 696 60 q 947 44 943 73 q 899 20 947 20 q 602 7 708 7 l 571 7 q 547 32 547 12 q 555 184 555 121 q 515 661 555 302 q 503 688 515 667 l 503 698 q 511 712 503 709 l 507 836 q 538 1069 505 947 l 556 1080 q 696 1069 650 1069 l 721 1069 q 869 1084 759 1069 z "},"Ŕ":{"ha":448,"x_min":0,"x_max":405,"o":"m 218 1200 l 234 1200 q 358 1095 319 1200 q 370 1015 370 1058 l 370 989 q 269 702 370 848 q 118 592 186 608 q 248 413 210 498 q 405 45 314 288 l 405 39 q 382 16 401 16 l 376 16 q 334 87 353 16 q 122 513 208 416 q 75 557 84 553 l 75 555 l 102 124 l 104 47 q 77 0 104 0 q 51 24 51 4 l 51 59 q 20 580 51 140 q 0 602 0 587 l 0 608 q 20 631 4 631 l 18 633 l 18 635 l 14 873 l 14 909 q 37 1190 14 1190 l 51 1194 q 77 1166 72 1194 l 75 1149 q 218 1200 160 1200 m 71 1090 l 67 938 l 67 842 l 71 635 l 73 635 q 210 712 125 635 q 319 1003 319 850 q 240 1147 319 1128 l 224 1149 q 79 1090 172 1149 l 71 1090 m 319 1359 q 328 1352 319 1359 q 322 1303 337 1346 q 248 1252 307 1260 q 230 1272 230 1256 l 230 1274 q 258 1299 230 1291 q 293 1344 285 1316 q 319 1359 301 1371 z "},"ŕ":{"ha":423,"x_min":9,"x_max":379,"o":"m 335 1262 q 344 1255 335 1262 q 338 1206 353 1249 q 264 1155 323 1163 q 245 1175 245 1159 l 245 1177 q 274 1202 245 1194 q 309 1247 300 1219 q 335 1262 317 1274 m 227 1090 l 243 1090 q 367 985 328 1090 q 379 905 379 948 l 379 879 q 277 592 379 739 q 127 482 195 498 q 257 303 219 389 q 364 31 323 178 l 364 24 q 342 2 361 2 l 336 2 q 293 73 313 2 q 131 403 216 307 q 84 448 93 444 l 84 446 l 90 120 l 92 43 q 66 -4 92 -4 q 39 20 39 0 l 39 55 q 29 470 39 136 q 9 492 9 477 l 9 498 q 29 521 13 521 l 27 523 l 27 525 l 23 763 l 23 800 q 45 1080 23 1080 l 60 1084 q 86 1056 81 1084 l 84 1040 q 227 1090 169 1090 m 80 981 l 76 828 l 76 732 l 80 525 l 82 525 q 218 602 134 525 q 328 893 328 741 q 249 1038 328 1018 l 233 1040 q 88 981 181 1040 l 80 981 z "},"Ŗ":{"ha":448,"x_min":0,"x_max":405,"o":"m 218 1200 l 234 1200 q 358 1095 319 1200 q 370 1015 370 1058 l 370 989 q 269 702 370 848 q 118 592 186 608 q 248 413 210 498 q 405 45 314 288 l 405 39 q 382 16 401 16 l 376 16 q 334 87 353 16 q 122 513 208 416 q 75 557 84 553 l 75 555 l 102 124 l 104 47 q 77 0 104 0 q 51 24 51 4 l 51 59 q 20 580 51 140 q 0 602 0 587 l 0 608 q 20 631 4 631 l 18 633 l 18 635 l 14 873 l 14 909 q 37 1190 14 1190 l 51 1194 q 77 1166 72 1194 l 75 1149 q 218 1200 160 1200 m 71 1090 l 67 938 l 67 842 l 71 635 l 73 635 q 210 712 125 635 q 319 1003 319 850 q 240 1147 319 1128 l 224 1149 q 79 1090 172 1149 l 71 1090 m 226 25 q 235 18 226 25 q 229 -31 244 12 q 155 -82 214 -74 q 137 -62 137 -78 l 137 -60 q 165 -35 137 -43 q 200 10 192 -18 q 226 25 208 37 z "},"ŗ":{"ha":429,"x_min":9,"x_max":379,"o":"m 212 11 q 221 5 212 11 q 215 -44 230 -1 q 141 -96 200 -87 q 123 -75 123 -92 l 123 -73 q 151 -49 123 -57 q 186 -4 178 -31 q 212 11 194 24 m 227 1090 l 243 1090 q 367 985 328 1090 q 379 905 379 948 l 379 879 q 277 592 379 739 q 127 482 195 498 q 257 303 219 389 q 364 31 323 178 l 364 24 q 342 2 361 2 l 336 2 q 293 73 313 2 q 131 403 216 307 q 84 448 93 444 l 84 446 l 90 120 l 92 43 q 66 -4 92 -4 q 39 20 39 0 l 39 55 q 29 470 39 136 q 9 492 9 477 l 9 498 q 29 521 13 521 l 27 523 l 27 525 l 23 763 l 23 800 q 45 1080 23 1080 l 60 1084 q 86 1056 81 1084 l 84 1040 q 227 1090 169 1090 m 80 981 l 76 828 l 76 732 l 80 525 l 82 525 q 218 602 134 525 q 328 893 328 741 q 249 1038 328 1018 l 233 1040 q 88 981 181 1040 l 80 981 z "},"Ř":{"ha":448,"x_min":0,"x_max":405,"o":"m 218 1200 l 234 1200 q 358 1095 319 1200 q 370 1015 370 1058 l 370 989 q 269 702 370 848 q 118 592 186 608 q 248 413 210 498 q 405 45 314 288 l 405 39 q 382 16 401 16 l 376 16 q 334 87 353 16 q 122 513 208 416 q 75 557 84 553 l 75 555 l 102 124 l 104 47 q 77 0 104 0 q 51 24 51 4 l 51 59 q 20 580 51 140 q 0 602 0 587 l 0 608 q 20 631 4 631 l 18 633 l 18 635 l 14 873 l 14 909 q 37 1190 14 1190 l 51 1194 q 77 1166 72 1194 l 75 1149 q 218 1200 160 1200 m 71 1090 l 67 938 l 67 842 l 71 635 l 73 635 q 210 712 125 635 q 319 1003 319 850 q 240 1147 319 1128 l 224 1149 q 79 1090 172 1149 l 71 1090 m 267 1365 q 295 1341 289 1365 q 209 1238 237 1279 l 201 1238 q 184 1246 193 1238 l 102 1348 l 102 1350 q 126 1374 102 1369 q 151 1358 151 1369 l 199 1297 l 267 1365 z "},"ř":{"ha":425,"x_min":9,"x_max":379,"o":"m 113 1266 l 180 1198 l 229 1259 q 254 1275 229 1270 q 278 1251 278 1270 l 278 1249 l 195 1147 q 179 1139 186 1139 l 171 1139 q 85 1242 142 1180 q 113 1266 91 1266 m 227 1090 l 243 1090 q 367 985 328 1090 q 379 905 379 948 l 379 879 q 277 592 379 739 q 127 482 195 498 q 257 303 219 389 q 364 31 323 178 l 364 24 q 342 2 361 2 l 336 2 q 293 73 313 2 q 131 403 216 307 q 84 448 93 444 l 84 446 l 90 120 l 92 43 q 66 -4 92 -4 q 39 20 39 0 l 39 55 q 29 470 39 136 q 9 492 9 477 l 9 498 q 29 521 13 521 l 27 523 l 27 525 l 23 763 l 23 800 q 45 1080 23 1080 l 60 1084 q 86 1056 81 1084 l 84 1040 q 227 1090 169 1090 m 80 981 l 76 828 l 76 732 l 80 525 l 82 525 q 218 602 134 525 q 328 893 328 741 q 249 1038 328 1018 l 233 1040 q 88 981 181 1040 l 80 981 z "},"Ś":{"ha":562,"x_min":27,"x_max":529,"o":"m 323 1204 l 342 1204 q 523 1080 452 1204 l 529 1062 q 500 1034 529 1034 q 458 1088 484 1034 q 334 1154 402 1154 q 189 1078 248 1154 q 173 1009 173 1042 l 173 1001 q 330 632 173 865 q 487 283 487 399 l 487 277 q 379 41 487 134 q 269 5 329 5 q 27 153 140 5 l 27 165 q 50 188 31 188 l 56 188 q 100 145 69 188 q 269 58 186 58 q 432 237 390 58 l 434 269 l 434 288 q 256 645 434 414 q 120 1005 120 869 q 275 1196 120 1150 q 323 1204 295 1204 m 431 1340 q 440 1334 431 1340 q 434 1285 449 1328 q 360 1234 419 1242 q 342 1254 342 1238 l 342 1256 q 370 1280 342 1272 q 405 1325 397 1298 q 431 1340 413 1353 z "},"ś":{"ha":562,"x_min":27,"x_max":511,"o":"m 323 1266 q 332 1260 323 1266 q 326 1211 341 1254 q 252 1160 311 1168 q 234 1180 234 1164 l 234 1182 q 262 1206 234 1198 q 297 1252 289 1224 q 323 1266 305 1279 m 305 1080 l 323 1080 q 505 956 433 1080 l 511 938 q 482 909 511 909 q 439 964 466 909 q 315 1029 384 1029 q 171 954 229 1029 q 155 885 155 918 l 155 877 q 321 570 155 741 q 487 283 487 399 l 487 277 q 379 41 487 134 q 269 5 329 5 q 27 153 140 5 l 27 165 q 50 188 31 188 l 56 188 q 100 145 69 188 q 269 58 186 58 q 432 237 390 58 l 434 269 l 434 288 q 273 532 441 370 q 102 881 105 694 q 256 1072 102 1026 q 305 1080 277 1080 z "},"Ŝ":{"ha":562,"x_min":27,"x_max":529,"o":"m 323 1204 l 342 1204 q 523 1080 452 1204 l 529 1062 q 500 1034 529 1034 q 458 1088 484 1034 q 334 1154 402 1154 q 189 1078 248 1154 q 173 1009 173 1042 l 173 1001 q 330 632 173 865 q 487 283 487 399 l 487 277 q 379 41 487 134 q 269 5 329 5 q 27 153 140 5 l 27 165 q 50 188 31 188 l 56 188 q 100 145 69 188 q 269 58 186 58 q 432 237 390 58 l 434 269 l 434 288 q 256 645 434 414 q 120 1005 120 869 q 275 1196 120 1150 q 323 1204 295 1204 m 401 1227 l 334 1295 l 285 1234 q 260 1218 285 1223 q 236 1242 236 1223 l 236 1244 l 319 1345 q 335 1354 328 1354 l 343 1354 q 429 1251 372 1313 q 401 1227 423 1227 z "},"ŝ":{"ha":559,"x_min":27,"x_max":511,"o":"m 372 1141 l 304 1210 l 256 1149 q 231 1133 256 1137 q 207 1157 207 1138 l 207 1159 l 290 1260 q 306 1268 298 1268 l 314 1268 q 400 1166 342 1227 q 372 1141 394 1141 m 305 1080 l 323 1080 q 505 956 433 1080 l 511 938 q 482 909 511 909 q 439 964 466 909 q 315 1029 384 1029 q 171 954 229 1029 q 155 885 155 918 l 155 877 q 321 570 155 741 q 487 283 487 399 l 487 277 q 379 41 487 134 q 269 5 329 5 q 27 153 140 5 l 27 165 q 50 188 31 188 l 56 188 q 100 145 69 188 q 269 58 186 58 q 432 237 390 58 l 434 269 l 434 288 q 273 532 441 370 q 102 881 105 694 q 256 1072 102 1026 q 305 1080 277 1080 z "},"Ş":{"ha":562,"x_min":27,"x_max":529,"o":"m 323 1204 l 342 1204 q 523 1080 452 1204 l 529 1062 q 500 1034 529 1034 q 458 1088 484 1034 q 334 1154 402 1154 q 189 1078 248 1154 q 173 1009 173 1042 l 173 1001 q 330 632 173 865 q 487 283 487 399 l 487 277 q 379 41 487 134 q 269 5 329 5 q 27 153 140 5 l 27 165 q 50 188 31 188 l 56 188 q 100 145 69 188 q 269 58 186 58 q 432 237 390 58 l 434 269 l 434 288 q 256 645 434 414 q 120 1005 120 869 q 275 1196 120 1150 q 323 1204 295 1204 m 234 -146 q 199 -146 234 -146 q 134 -62 163 -147 q 169 -64 168 -45 q 209 -96 170 -83 q 249 -71 248 -109 q 239 -9 250 -32 q 269 36 233 31 q 283 -3 304 42 q 298 -74 290 -3 q 234 -146 305 -144 z "},"ş":{"ha":564,"x_min":27,"x_max":511,"o":"m 245 -148 q 210 -149 245 -148 q 144 -64 174 -149 q 180 -66 179 -47 q 220 -98 181 -85 q 259 -73 258 -111 q 250 -11 260 -34 q 280 34 244 28 q 294 -5 315 40 q 309 -76 301 -5 q 245 -148 316 -146 m 305 1080 l 323 1080 q 505 956 433 1080 l 511 938 q 482 909 511 909 q 439 964 466 909 q 315 1029 384 1029 q 171 954 229 1029 q 155 885 155 918 l 155 877 q 321 570 155 741 q 487 283 487 399 l 487 277 q 379 41 487 134 q 269 5 329 5 q 27 153 140 5 l 27 165 q 50 188 31 188 l 56 188 q 100 145 69 188 q 269 58 186 58 q 432 237 390 58 l 434 269 l 434 288 q 273 532 441 370 q 102 881 105 694 q 256 1072 102 1026 q 305 1080 277 1080 z "},"Š":{"ha":562,"x_min":27,"x_max":529,"o":"m 323 1204 l 342 1204 q 523 1080 452 1204 l 529 1062 q 500 1034 529 1034 q 458 1088 484 1034 q 334 1154 402 1154 q 189 1078 248 1154 q 173 1009 173 1042 l 173 1001 q 330 632 173 865 q 487 283 487 399 l 487 277 q 379 41 487 134 q 269 5 329 5 q 27 153 140 5 l 27 165 q 50 188 31 188 l 56 188 q 100 145 69 188 q 269 58 186 58 q 432 237 390 58 l 434 269 l 434 288 q 256 645 434 414 q 120 1005 120 869 q 275 1196 120 1150 q 323 1204 295 1204 m 431 1377 q 459 1352 453 1377 q 373 1250 401 1291 l 365 1250 q 349 1258 357 1250 l 266 1359 l 266 1361 q 290 1385 266 1380 q 315 1369 315 1381 l 363 1308 l 431 1377 z "},"š":{"ha":555,"x_min":27,"x_max":511,"o":"m 414 1260 q 443 1236 437 1260 q 357 1133 385 1174 l 349 1133 q 332 1141 341 1133 l 250 1242 l 250 1244 q 274 1269 250 1263 q 298 1253 298 1264 l 347 1192 l 414 1260 m 305 1080 l 323 1080 q 505 956 433 1080 l 511 938 q 482 909 511 909 q 439 964 466 909 q 315 1029 384 1029 q 171 954 229 1029 q 155 885 155 918 l 155 877 q 321 570 155 741 q 487 283 487 399 l 487 277 q 379 41 487 134 q 269 5 329 5 q 27 153 140 5 l 27 165 q 50 188 31 188 l 56 188 q 100 145 69 188 q 269 58 186 58 q 432 237 390 58 l 434 269 l 434 288 q 273 532 441 370 q 102 881 105 694 q 256 1072 102 1026 q 305 1080 277 1080 z "},"Ţ":{"ha":407,"x_min":0,"x_max":429,"o":"m 28 1184 l 110 1184 q 427 1147 427 1177 l 429 1133 q 405 1109 429 1116 q 226 1129 345 1121 l 228 1058 l 228 924 q 240 18 228 808 q 212 -6 240 0 q 185 53 185 -6 q 177 975 177 871 l 173 1131 l 75 1133 l 20 1131 q 0 1154 0 1140 l 0 1162 q 28 1184 0 1181 m 223 -46 q 232 -52 223 -46 q 227 -101 241 -58 q 153 -153 212 -144 q 134 -132 134 -149 l 134 -130 q 163 -106 134 -114 q 197 -61 189 -88 q 223 -46 205 -33 z "},"ţ":{"ha":436,"x_min":-5,"x_max":424,"o":"m 196 -55 q 205 -62 196 -55 q 199 -111 214 -68 q 125 -162 184 -154 q 107 -142 107 -158 l 107 -140 q 136 -115 107 -123 q 170 -70 162 -98 q 196 -55 178 -43 m 23 1060 l 104 1060 q 422 1023 422 1053 l 424 1009 q 399 985 424 992 q 220 1005 340 997 l 222 934 l 222 800 q 240 18 222 684 q 212 -6 240 0 q 185 53 185 -6 q 172 850 172 747 l 168 1007 l 70 1009 l 15 1007 q -5 1029 -5 1016 l -5 1038 q 23 1060 -5 1057 z "},"Ť":{"ha":407,"x_min":0,"x_max":429,"o":"m 28 1184 l 110 1184 q 427 1147 427 1177 l 429 1133 q 405 1109 429 1116 q 226 1129 345 1121 l 228 1058 l 228 924 q 240 18 228 808 q 212 -6 240 0 q 185 53 185 -6 q 177 975 177 871 l 173 1131 l 75 1133 l 20 1131 q 0 1154 0 1140 l 0 1162 q 28 1184 0 1181 m 267 1365 q 295 1341 289 1365 q 209 1238 237 1279 l 201 1238 q 184 1246 193 1238 l 102 1348 l 102 1350 q 126 1374 102 1369 q 151 1358 151 1369 l 199 1297 l 267 1365 z "},"ť":{"ha":436,"x_min":-5,"x_max":424,"o":"m 285 1237 q 296 1236 285 1237 q 317 1191 307 1236 q 280 1109 326 1147 q 254 1117 262 1103 l 253 1118 q 264 1154 245 1133 q 271 1211 278 1183 q 285 1237 263 1238 m 23 1060 l 104 1060 q 424 1009 422 1053 q 399 985 424 992 q 220 1005 340 997 l 222 934 l 222 800 q 240 18 222 684 q 212 -6 240 0 q 185 53 185 -6 q 172 850 172 747 l 168 1007 l 70 1009 l 15 1007 q -5 1029 -5 1016 l -5 1038 q 23 1060 -5 1057 z "},"Ŧ":{"ha":407,"x_min":0,"x_max":429,"o":"m 28 1184 l 110 1184 q 427 1147 427 1177 l 429 1133 q 405 1109 429 1116 q 226 1129 345 1121 l 228 1058 l 228 924 q 240 18 228 808 q 212 -6 240 0 q 185 53 185 -6 q 177 975 177 871 l 173 1131 l 75 1133 l 20 1131 q 0 1154 0 1140 l 0 1162 q 28 1184 0 1181 m 285 1048 q 355 1027 355 1044 q 359 1013 359 1023 l 359 1011 q 344 987 355 987 q 274 997 307 995 l 77 972 l 45 972 q 25 1001 25 976 q 41 1025 30 1025 l 72 1025 l 255 1048 l 285 1048 z "},"ŧ":{"ha":436,"x_min":-5,"x_max":424,"o":"m 259 860 q 311 840 311 856 q 313 825 313 835 l 313 823 q 302 799 311 799 q 252 809 275 807 l 108 785 l 85 785 q 70 813 70 788 q 81 838 73 838 l 104 838 l 238 860 l 259 860 m 23 1060 l 104 1060 q 422 1023 422 1053 l 424 1009 q 399 985 424 992 q 220 1005 340 997 l 222 934 l 222 800 q 240 18 222 684 q 212 -6 240 0 q 185 53 185 -6 q 172 850 172 747 l 168 1007 l 70 1009 l 15 1007 q -5 1029 -5 1016 l -5 1038 q 23 1060 -5 1057 z "},"Ũ":{"ha":543,"x_min":0,"x_max":543,"o":"m 75 1192 l 81 1192 q 104 1170 98 1192 q 51 566 51 734 q 218 65 51 203 q 254 51 239 51 q 378 273 320 51 q 415 588 415 450 l 405 1123 l 403 1133 q 431 1160 403 1154 q 458 1105 458 1160 q 468 590 462 732 l 458 409 q 543 43 458 183 l 543 37 q 515 12 537 12 q 431 179 479 12 l 421 226 l 419 226 q 368 87 419 200 q 260 0 316 0 l 246 0 q 51 218 153 0 q 0 541 0 353 l 0 590 q 53 1176 0 764 q 75 1192 62 1192 m 219 1354 q 296 1311 253 1349 l 326 1305 l 340 1303 q 426 1322 383 1296 l 433 1322 l 436 1322 q 453 1298 453 1320 q 359 1257 449 1270 l 330 1260 l 322 1261 q 218 1310 279 1267 l 204 1312 q 123 1265 153 1320 l 105 1262 q 89 1285 86 1269 l 89 1289 q 219 1354 129 1367 z "},"ũ":{"ha":612,"x_min":35,"x_max":578,"o":"m 240 1236 q 317 1193 274 1231 l 347 1187 l 361 1185 q 447 1204 404 1178 l 454 1204 l 457 1204 q 474 1180 474 1202 q 380 1139 470 1152 l 351 1142 l 343 1143 q 239 1192 300 1149 l 225 1194 q 144 1147 174 1202 l 126 1144 q 110 1167 107 1151 l 110 1171 q 240 1236 150 1249 m 107 1091 l 113 1091 q 136 1069 130 1091 q 86 566 86 734 q 253 65 86 203 q 290 51 274 51 q 414 273 355 51 q 450 588 450 450 l 437 1022 l 435 1032 q 463 1059 435 1053 q 490 1004 490 1059 q 503 590 497 732 l 493 409 q 578 43 493 183 l 578 37 q 550 12 572 12 q 467 179 515 12 l 456 226 l 454 226 q 404 87 454 200 q 296 0 351 0 l 281 0 q 86 218 188 0 q 35 541 35 353 l 35 590 q 85 1075 35 764 q 107 1091 94 1091 z "},"Ū":{"ha":543,"x_min":0,"x_max":543,"o":"m 75 1192 l 81 1192 q 104 1170 98 1192 q 51 566 51 734 q 218 65 51 203 q 254 51 239 51 q 378 273 320 51 q 415 588 415 450 l 405 1123 l 403 1133 q 431 1160 403 1154 q 458 1105 458 1160 q 468 590 462 732 l 458 409 q 543 43 458 183 l 543 37 q 515 12 537 12 q 431 179 479 12 l 421 226 l 419 226 q 368 87 419 200 q 260 0 316 0 l 246 0 q 51 218 153 0 q 0 541 0 353 l 0 590 q 53 1176 0 764 q 75 1192 62 1192 m 352 1326 q 452 1306 452 1322 q 458 1293 458 1302 l 458 1291 q 437 1267 453 1267 q 336 1278 384 1276 l 212 1265 l 165 1265 q 136 1293 136 1268 q 159 1316 143 1316 l 204 1316 l 309 1326 l 352 1326 z "},"ū":{"ha":610,"x_min":29,"x_max":572,"o":"m 283 1215 q 383 1196 383 1211 q 389 1182 389 1192 l 389 1181 q 368 1157 384 1157 q 267 1167 315 1165 l 142 1155 l 96 1155 q 67 1182 67 1158 q 90 1205 74 1205 l 135 1205 l 240 1215 l 283 1215 m 101 1091 l 107 1091 q 130 1069 124 1091 q 80 566 80 734 q 247 65 80 203 q 283 51 268 51 q 408 273 349 51 q 444 588 444 450 l 431 1022 l 429 1032 q 457 1059 429 1053 q 484 1004 484 1059 q 497 590 491 732 l 487 409 q 572 43 487 183 l 572 37 q 544 12 566 12 q 460 179 509 12 l 450 226 l 448 226 q 397 87 448 200 q 290 0 345 0 l 275 0 q 80 218 182 0 q 29 541 29 353 l 29 590 q 79 1075 29 764 q 101 1091 87 1091 z "},"Ŭ":{"ha":543,"x_min":0,"x_max":543,"o":"m 75 1192 l 81 1192 q 104 1170 98 1192 q 51 566 51 734 q 218 65 51 203 q 254 51 239 51 q 378 273 320 51 q 415 588 415 450 l 405 1123 l 403 1133 q 431 1160 403 1154 q 458 1105 458 1160 q 468 590 462 732 l 458 409 q 543 43 458 183 l 543 37 q 515 12 537 12 q 431 179 479 12 l 421 226 l 419 226 q 368 87 419 200 q 260 0 316 0 l 246 0 q 51 218 153 0 q 0 541 0 353 l 0 590 q 53 1176 0 764 q 75 1192 62 1192 m 358 1325 q 387 1301 380 1325 q 270 1236 354 1240 q 166 1308 185 1232 l 166 1310 q 191 1335 166 1329 q 358 1325 260 1223 z "},"ŭ":{"ha":594,"x_min":24,"x_max":567,"o":"m 324 1270 q 353 1246 347 1270 q 236 1181 320 1185 q 132 1253 151 1177 l 132 1255 q 157 1280 132 1274 q 324 1270 227 1168 m 96 1091 l 102 1091 q 124 1069 119 1091 q 75 566 75 734 q 241 65 75 203 q 278 51 262 51 q 402 273 344 51 q 439 588 439 450 l 425 1022 l 423 1032 q 452 1059 423 1053 q 478 1004 478 1059 q 492 590 486 732 l 481 409 q 567 43 481 183 l 567 37 q 538 12 561 12 q 455 179 503 12 l 445 226 l 443 226 q 392 87 443 200 q 284 0 340 0 l 270 0 q 75 218 176 0 q 24 541 24 353 l 24 590 q 73 1075 24 764 q 96 1091 82 1091 z "},"Ů":{"ha":543,"x_min":0,"x_max":543,"o":"m 75 1192 l 81 1192 q 104 1170 98 1192 q 51 566 51 734 q 218 65 51 203 q 254 51 239 51 q 378 273 320 51 q 415 588 415 450 l 405 1123 l 403 1133 q 431 1160 403 1154 q 458 1105 458 1160 q 468 590 462 732 l 458 409 q 543 43 458 183 l 543 37 q 515 12 537 12 q 431 179 479 12 l 421 226 l 419 226 q 368 87 419 200 q 260 0 316 0 l 246 0 q 51 218 153 0 q 0 541 0 353 l 0 590 q 53 1176 0 764 q 75 1192 62 1192 m 264 1351 l 276 1351 q 331 1303 331 1345 q 262 1229 331 1254 l 253 1229 q 203 1294 203 1237 l 203 1315 q 264 1351 203 1351 m 247 1307 l 247 1293 l 250 1274 q 288 1307 269 1274 l 247 1307 z "},"ů":{"ha":606,"x_min":24,"x_max":567,"o":"m 233 1302 l 244 1302 q 299 1255 299 1297 q 231 1180 299 1205 l 221 1180 q 172 1245 172 1188 l 172 1266 q 233 1302 172 1302 m 215 1258 l 215 1244 l 218 1225 q 256 1258 237 1225 l 215 1258 m 96 1091 l 102 1091 q 124 1069 119 1091 q 75 566 75 734 q 241 65 75 203 q 278 51 262 51 q 402 273 344 51 q 439 588 439 450 l 425 1022 l 423 1032 q 452 1059 423 1053 q 478 1004 478 1059 q 492 590 486 732 l 481 409 q 567 43 481 183 l 567 37 q 538 12 561 12 q 455 179 503 12 l 445 226 l 443 226 q 392 87 443 200 q 284 0 340 0 l 270 0 q 75 218 176 0 q 24 541 24 353 l 24 590 q 73 1075 24 764 q 96 1091 82 1091 z "},"Ű":{"ha":543,"x_min":0,"x_max":543,"o":"m 75 1192 l 81 1192 q 104 1170 98 1192 q 51 566 51 734 q 218 65 51 203 q 254 51 239 51 q 378 273 320 51 q 415 588 415 450 l 405 1123 l 403 1133 q 431 1160 403 1154 q 458 1105 458 1160 q 468 590 462 732 l 458 409 q 543 43 458 183 l 543 37 q 515 12 537 12 q 431 179 479 12 l 421 226 l 419 226 q 368 87 419 200 q 260 0 316 0 l 246 0 q 51 218 153 0 q 0 541 0 353 l 0 590 q 53 1176 0 764 q 75 1192 62 1192 m 319 1359 q 328 1352 319 1359 q 322 1303 337 1346 q 248 1252 307 1260 q 230 1272 230 1256 l 230 1274 q 258 1299 230 1291 q 293 1344 285 1316 q 319 1359 301 1371 m 417 1354 q 426 1348 417 1354 q 420 1298 435 1341 q 347 1247 406 1255 q 328 1267 328 1251 l 328 1270 q 357 1294 328 1286 q 391 1339 383 1312 q 417 1354 399 1367 z "},"ű":{"ha":600,"x_min":24,"x_max":567,"o":"m 318 1278 q 327 1272 318 1278 q 321 1222 336 1265 q 248 1171 307 1179 q 229 1192 229 1175 l 229 1194 q 258 1218 229 1210 q 292 1263 284 1236 q 318 1278 300 1291 m 428 1275 q 437 1269 428 1275 q 431 1220 446 1263 q 357 1168 416 1177 q 338 1189 338 1173 l 338 1191 q 367 1215 338 1207 q 401 1260 393 1233 q 428 1275 410 1288 m 96 1089 l 102 1089 q 124 1067 119 1089 q 75 564 75 732 q 241 63 75 201 q 278 49 262 49 q 402 271 344 49 q 439 586 439 448 l 425 1020 l 423 1030 q 452 1057 423 1051 q 478 1002 478 1057 q 492 588 486 730 l 481 407 q 567 41 481 181 l 567 35 q 538 10 561 10 q 455 177 503 10 l 445 224 l 443 224 q 392 85 443 198 q 284 -2 340 -2 l 270 -2 q 75 216 176 -2 q 24 539 24 351 l 24 588 q 73 1073 24 762 q 96 1089 82 1089 z "},"Ų":{"ha":543,"x_min":0,"x_max":644,"o":"m 75 1192 l 81 1192 q 104 1170 98 1192 q 51 566 51 734 q 218 65 51 203 q 254 51 239 51 q 378 273 320 51 q 415 588 415 450 l 405 1123 l 403 1133 q 431 1160 403 1154 q 458 1105 458 1160 q 468 590 462 732 l 458 409 q 543 43 458 183 l 543 37 q 515 12 537 12 q 431 179 479 12 l 421 226 l 419 226 q 368 87 419 200 q 260 0 316 0 l 246 0 q 51 218 153 0 q 0 541 0 353 l 0 590 q 53 1176 0 764 q 75 1192 62 1192 m 544 -114 q 508 -113 544 -114 q 480 -42 473 -113 q 495 28 488 28 q 509 68 473 74 q 538 23 545 62 q 529 -39 528 0 q 569 -64 530 -77 q 609 -33 608 -52 q 644 -31 610 -14 q 544 -114 614 -115 z "},"ų":{"ha":594,"x_min":0,"x_max":644,"o":"m 544 -114 q 508 -113 544 -114 q 480 -42 473 -113 q 495 28 488 28 q 509 68 473 74 q 538 23 545 62 q 529 -39 528 0 q 569 -64 530 -77 q 609 -33 608 -52 q 644 -31 610 -14 q 544 -114 614 -115 m 72 1091 l 78 1091 q 100 1069 95 1091 q 51 566 51 734 q 218 65 51 203 q 254 51 239 51 q 378 273 320 51 q 415 588 415 450 l 401 1022 l 399 1032 q 428 1059 399 1053 q 454 1004 454 1059 q 468 590 462 732 l 458 409 q 543 43 458 183 l 543 37 q 515 12 537 12 q 431 179 479 12 l 421 226 l 419 226 q 368 87 419 200 q 260 0 316 0 l 246 0 q 51 218 153 0 q 0 541 0 353 l 0 590 q 50 1075 0 764 q 72 1091 58 1091 z "},"Ŵ":{"ha":886,"x_min":0,"x_max":844,"o":"m 22 1211 l 28 1211 q 53 1158 53 1211 q 108 541 53 1018 q 183 96 149 268 q 433 507 397 378 q 454 519 443 519 l 460 519 q 523 435 477 519 q 714 104 602 310 q 767 474 741 214 q 791 1176 779 660 q 820 1198 799 1198 q 844 1178 836 1198 q 818 476 829 585 q 757 53 818 359 q 722 0 749 0 q 677 61 701 0 q 462 433 562 277 l 460 433 q 201 31 412 311 q 171 4 185 4 q 138 53 142 4 q 43 649 87 292 q 0 1192 0 1038 q 22 1211 7 1211 m 490 1230 l 422 1298 l 374 1237 q 349 1221 374 1225 q 325 1245 325 1226 l 325 1247 l 408 1348 q 424 1356 416 1356 l 432 1356 q 518 1254 460 1316 q 490 1230 512 1230 z "},"ŵ":{"ha":781,"x_min":12,"x_max":731,"o":"m 451 1085 l 384 1154 l 335 1093 q 311 1076 335 1081 q 286 1101 286 1082 l 286 1103 l 369 1204 q 385 1212 378 1212 l 393 1212 q 479 1109 422 1171 q 451 1085 473 1085 m 34 1075 l 40 1075 q 64 1022 64 1075 q 104 541 64 882 q 180 96 145 268 q 333 475 296 347 q 353 488 342 488 l 359 488 q 422 404 377 488 q 603 104 501 279 q 667 443 641 182 q 678 1022 679 629 q 707 1044 686 1044 q 731 1024 722 1044 q 718 445 729 554 q 646 53 718 328 q 611 0 637 0 q 566 61 589 0 q 361 402 462 245 l 359 402 q 198 31 312 279 q 168 4 182 4 q 135 53 139 4 q 39 649 84 292 q 12 1057 12 902 q 34 1075 18 1075 z "},"Ŷ":{"ha":407,"x_min":0,"x_max":423,"o":"m 395 1200 l 401 1200 q 423 1178 423 1197 l 423 1174 q 297 812 423 1094 q 254 657 254 716 q 236 311 240 468 q 258 24 236 132 q 236 1 252 1 l 232 1 q 199 52 205 1 q 183 315 183 173 q 208 710 187 498 l 210 710 q 26 1054 26 1023 q 0 1147 0 1123 l 0 1162 q 22 1182 0 1177 q 55 1135 49 1182 q 230 783 70 1042 l 334 1036 q 374 1186 358 1096 q 395 1200 383 1200 m 267 1247 l 199 1316 l 151 1255 q 126 1238 151 1243 q 102 1263 102 1244 l 102 1265 l 184 1366 q 201 1374 193 1374 l 209 1374 q 295 1272 237 1333 q 267 1247 289 1247 z "},"ŷ":{"ha":482,"x_min":0,"x_max":423,"o":"m 333 1154 l 266 1222 l 217 1161 q 193 1145 217 1149 q 168 1169 168 1150 l 168 1171 l 251 1272 q 267 1280 260 1280 l 275 1280 q 361 1178 304 1240 q 333 1154 355 1154 m 395 1101 l 401 1101 q 423 1079 423 1098 l 423 1075 q 297 713 423 995 q 254 558 254 617 q 236 311 240 369 q 258 24 236 132 q 236 1 252 1 l 232 1 q 199 52 205 1 q 183 315 183 173 q 208 611 187 399 l 210 611 q 26 955 26 924 q 0 1048 0 1024 l 0 1063 q 22 1083 0 1078 q 55 1036 49 1083 q 230 684 70 943 l 334 937 q 374 1087 358 997 q 395 1101 383 1101 z "},"Ÿ":{"ha":407,"x_min":0,"x_max":423,"o":"m 395 1200 l 401 1200 q 423 1178 423 1197 l 423 1174 q 297 812 423 1094 q 254 657 254 716 q 236 311 240 468 q 258 24 236 132 q 236 1 252 1 l 232 1 q 199 52 205 1 q 183 315 183 173 q 208 710 187 498 l 210 710 q 26 1054 26 1023 q 0 1147 0 1123 l 0 1162 q 22 1182 0 1177 q 55 1135 49 1182 q 230 783 70 1042 l 334 1036 q 374 1186 358 1096 q 395 1200 383 1200 m 126 1326 q 165 1280 165 1311 l 165 1267 q 119 1233 165 1237 q 77 1283 89 1233 q 126 1326 77 1326 m 283 1322 q 322 1275 322 1306 l 322 1263 q 276 1228 322 1232 q 233 1278 245 1228 q 283 1322 233 1322 z "},"Ź":{"ha":608,"x_min":0,"x_max":574,"o":"m 37 1202 q 140 1190 97 1190 l 169 1190 l 435 1198 q 562 1172 562 1198 l 562 1162 q 500 1068 562 1152 q 67 67 284 732 l 69 67 q 155 75 106 75 l 167 75 l 425 59 l 462 59 q 547 71 498 59 l 549 71 q 574 43 569 71 q 496 8 574 16 l 452 6 l 441 6 l 181 22 l 140 22 q 26 0 85 22 l 24 0 q 0 22 0 5 l 0 26 q 444 1076 216 709 l 488 1143 l 458 1145 l 429 1145 l 155 1137 l 153 1137 q 16 1166 16 1141 l 14 1180 q 37 1202 20 1202 m 319 1359 q 328 1352 319 1359 q 322 1303 337 1346 q 248 1252 307 1260 q 230 1272 230 1256 l 230 1274 q 258 1299 230 1291 q 293 1344 285 1316 q 319 1359 301 1371 z "},"ź":{"ha":617,"x_min":0,"x_max":574,"o":"m 350 1237 q 359 1231 350 1237 q 353 1182 368 1225 q 279 1131 338 1139 q 260 1151 260 1135 l 260 1153 q 289 1177 260 1169 q 323 1222 315 1195 q 350 1237 332 1250 m 24 1063 q 127 1051 84 1051 l 156 1051 l 422 1059 q 549 1033 549 1059 l 549 1023 q 488 929 549 1013 q 67 67 271 593 l 69 67 q 155 75 106 75 l 167 75 l 425 59 l 462 59 q 547 71 498 59 l 549 71 q 574 43 569 71 q 496 8 574 16 l 452 6 l 441 6 l 181 22 l 140 22 q 26 0 85 22 l 24 0 q 0 22 0 5 l 0 26 q 431 937 203 570 l 475 1004 l 445 1006 l 416 1006 l 142 998 l 140 998 q 3 1027 3 1002 l 1 1041 q 24 1063 7 1063 z "},"Ż":{"ha":608,"x_min":0,"x_max":574,"o":"m 37 1202 q 140 1190 97 1190 l 169 1190 l 435 1198 q 562 1172 562 1198 l 562 1162 q 500 1068 562 1152 q 67 67 284 732 l 69 67 q 155 75 106 75 l 167 75 l 425 59 l 462 59 q 547 71 498 59 l 549 71 q 574 43 569 71 q 496 8 574 16 l 452 6 l 441 6 l 181 22 l 140 22 q 26 0 85 22 l 24 0 q 0 22 0 5 l 0 26 q 444 1076 216 709 l 488 1143 l 458 1145 l 429 1145 l 155 1137 l 153 1137 q 16 1166 16 1141 l 14 1180 q 37 1202 20 1202 m 288 1345 q 327 1298 327 1329 l 327 1286 q 281 1251 327 1255 q 238 1301 250 1251 q 288 1345 238 1345 z "},"ż":{"ha":632,"x_min":0,"x_max":574,"o":"m 239 1244 q 279 1198 279 1229 l 279 1185 q 233 1151 279 1155 q 190 1201 202 1151 q 239 1244 190 1244 m 24 1063 q 127 1051 84 1051 l 156 1051 l 422 1059 q 549 1033 549 1059 l 549 1023 q 488 929 549 1013 q 67 67 271 593 l 69 67 q 155 75 106 75 l 167 75 l 425 59 l 462 59 q 547 71 498 59 l 549 71 q 574 43 569 71 q 496 8 574 16 l 452 6 l 441 6 l 181 22 l 140 22 q 26 0 85 22 l 24 0 q 0 22 0 5 l 0 26 q 431 937 203 570 l 475 1004 l 445 1006 l 416 1006 l 142 998 l 140 998 q 3 1027 3 1002 l 1 1041 q 24 1063 7 1063 z "},"Ž":{"ha":608,"x_min":0,"x_max":574,"o":"m 37 1202 q 140 1190 97 1190 l 169 1190 l 435 1198 q 562 1172 562 1198 l 562 1162 q 500 1068 562 1152 q 67 67 284 732 l 69 67 q 155 75 106 75 l 167 75 l 425 59 l 462 59 q 547 71 498 59 l 549 71 q 574 43 569 71 q 496 8 574 16 l 452 6 l 441 6 l 181 22 l 140 22 q 26 0 85 22 l 24 0 q 0 22 0 5 l 0 26 q 444 1076 216 709 l 488 1143 l 458 1145 l 429 1145 l 155 1137 l 153 1137 q 16 1166 16 1141 l 14 1180 q 37 1202 20 1202 m 435 1374 q 463 1350 457 1374 q 377 1247 406 1288 l 369 1247 q 353 1255 361 1247 l 270 1356 l 270 1358 q 294 1383 270 1377 q 319 1367 319 1378 l 368 1305 l 435 1374 z "},"ž":{"ha":625,"x_min":0,"x_max":574,"o":"m 326 1260 q 354 1236 348 1260 q 268 1133 296 1174 l 260 1133 q 243 1141 252 1133 l 161 1242 l 161 1244 q 185 1269 161 1263 q 210 1253 210 1264 l 258 1192 l 326 1260 m 24 1063 q 127 1051 84 1051 l 156 1051 l 422 1059 q 549 1033 549 1059 l 549 1023 q 488 929 549 1013 q 67 67 271 593 l 69 67 q 155 75 106 75 l 167 75 l 425 59 l 462 59 q 547 71 498 59 l 549 71 q 574 43 569 71 q 496 8 574 16 l 452 6 l 441 6 l 181 22 l 140 22 q 26 0 85 22 l 24 0 q 0 22 0 5 l 0 26 q 431 937 203 570 l 475 1004 l 445 1006 l 416 1006 l 142 998 l 140 998 q 3 1027 3 1002 l 1 1041 q 24 1063 7 1063 z "}}}
